<svg fill="currentColor" preserveAspectRatio="xMidYMid meet" height="1em" width="1em" viewBox="0 0 200 200" style="vertical-align: middle;">
  <path d="M27,33 L173,33 C178.522847,33 183,37.4771525 183,43 L183,157 C183,162.522847 178.522847,167 173,167 L27,167 C21.4771525,167 17,162.522847 17,157 L17,43 C17,37.4771525 21.4771525,33 27,33 Z M29,64 L29,156 L171,156 L171,64 L29,64 Z M84.260356,82.6998802 L119.974518,107.161635 C121.797124,108.409995 122.262642,110.899505 121.014282,112.722111 C120.734924,113.129973 120.38238,113.482517 119.974518,113.761875 L84.260356,138.223629 C82.4377502,139.471989 79.9482404,139.006471 78.6998802,137.183866 C78.2439706,136.518238 78,135.730302 78,134.92351 L78,86 C78,83.790861 79.790861,82 82,82 C82.8067925,82 83.594728,82.2439706 84.260356,82.6998802 Z" fill="inherit"></path>
</svg>
