<svg height="377" viewBox="0 0 705 377" width="705" xmlns="http://www.w3.org/2000/svg" xmlns:xlink="http://www.w3.org/1999/xlink"><filter id="a"><feColorMatrix in="SourceGraphic" type="matrix" values="0 0 0 0 1.000000 0 0 0 0 1.000000 0 0 0 0 1.000000 0 0 0 1.000000 0"/></filter><linearGradient id="b"><stop offset="0" stop-color="#43b7e9"/><stop offset="1" stop-color="#4e6eb5"/></linearGradient><linearGradient id="c" x1="-1.318836%" x2="56.633865%" xlink:href="#b" y1="-14.847497%" y2="72.60137%"/><linearGradient id="d" x1="29.832726%" x2="87.72507%" xlink:href="#b" y1="6.941917%" y2="94.345232%"/><linearGradient id="e" x1="40.606379%" x2="82.10433%" xlink:href="#b" y1="26.937293%" y2="75.459449%"/><g fill="none" fill-rule="evenodd"><g filter="url(#a)"><g transform="translate(55 60)"><g fill="#2d3f51"><path d="m352.3125 77c13.125 0 22.6875 10.4155496 22.6875 23.176944v44.008043c0 1.50134-1.21875 2.815013-2.8125 2.815013h-8.8125c-1.5 0-2.8125-1.219839-2.8125-2.815013v-41.662199c0-6.1930293-4.78125-11.1662196-12.1875-11.1662196s-13.03125 5.0670241-13.03125 11.1662196v41.568365c0 1.50134-1.21875 2.721179-2.71875 2.815013h-8.8125c-1.59375 0-2.8125-1.032171-2.8125-2.627346v-61.8364608c0-1.3136729.9375-2.4396782 2.15625-2.7211796l8.34375-1.9705094c1.78125-.3753351 3.375.9383378 3.375 2.7211797v3.9410187c4.3125-4.5978552 10.5-7.4128686 17.4375-7.4128686z"/><path d="m286.784651 56.7714543-3.114742 8.8348784c-.47193 1.0338688-1.415791 1.6917853-2.548424 1.6917853h-37.754442c-1.510178 0-2.831583 1.2218448-2.831583 2.819642v16.0719597c0 1.5977972 1.321405 2.8196421 2.831583 2.8196421l33.129523-.2819642c1.604563 0 2.831583 1.2218449 2.831583 2.819642v9.2108304c0 1.503809-1.22702 2.819642-2.831583 2.819642h-33.129523c-1.510178 0-2.831583 1.221845-2.831583 2.819642v37.783204c0 1.503809-1.227019 2.819642-2.831583 2.819642h-8.872294c-1.510178 0-2.831583-1.221845-2.831583-2.819642v-88.3487844c0-1.5038091 1.227019-2.8196421 2.831583-2.8196421h55.404643c1.982108-.1879761 3.303514 1.8797614 2.548425 3.7595228z"/><path d="m305 80.8356164v63.3287676c0 1.606849-1.281046 2.835616-2.745098 2.835616l-8.601307-.189041c-1.464053 0-2.653595-1.323288-2.653595-2.835617v-63.1397256c0-1.5123287 1.189542-2.8356164 2.745098-2.8356164h8.601307c1.464053 0 2.653595 1.3232877 2.653595 2.8356164z"/><path d="m306.594164 61.7142857s-6.763925 6.7460318-6.763925 6.7460318c-.721486.7195767-1.893899.7195767-2.615385 0l-6.67374-6.6560847c-.721485-.7195767-.721485-1.8888889 0-2.6084656l6.67374-6.6560847c.721486-.7195767 1.893899-.7195767 2.615385 0l6.67374 6.6560847s.090185.0899471.090185.0899471c.541115.7195767.541115 1.7089947 0 2.4285714z"/><path d="m518 80.8356164v63.3287676c0 1.606849-1.281046 2.835616-2.745098 2.835616l-8.601307-.189041c-1.464053 0-2.653595-1.323288-2.653595-2.835617v-63.1397256c0-1.5123287 1.189542-2.8356164 2.745098-2.8356164h8.601307c1.372549 0 2.653595 1.3232877 2.653595 2.8356164z"/></g><path d="m519.528402 61.7142857s-6.737121 6.7460318-6.737121 6.7460318c-.718626.7195767-1.886393.7195767-2.605019 0l-6.647292-6.6560847c-.718627-.7195767-.718627-1.8888889 0-2.6084656l6.647292-6.6560847c.718626-.7195767 1.886393-.7195767 2.605019 0l6.647292 6.6560847s.089829.0899471.089829.0899471c.628797.7195767.628797 1.7089947 0 2.4285714z" fill="#4e6eb5"/><path d="m463.249405 126.940239c.936053 1.040837 1.029659 2.649402.093606 3.690239-3.931423 4.636454-8.705294 8.515936-14.040796 11.25996-6.552372 3.406375-13.57277 5.109562-20.967589 5.109562-12.3559 0-23.962958-4.920319-32.761857-13.909363-8.705293-8.989043-13.572769-20.911354-13.572769-33.590637 0-12.6792829 4.773871-24.6015936 13.572769-33.5906375 8.705294-8.9890438 20.405957-13.9093625 32.761857-13.9093625 7.301214 0 14.228007 1.7031873 20.686773 5.0149402 5.241897 2.6494024 10.015768 6.434263 13.94719 10.9760957.936054 1.0408366.842448 2.6494023-.093605 3.690239l-7.394819 7.7589641c-1.123264 1.1354582-2.901764 1.0408367-3.837818-.189243-5.709923-7.4750996-14.228006-11.9223107-23.494931-11.9223107-16.661745 0-30.889751 14.4770916-30.889751 32.2659362 0 17.7888445 14.228006 32.2659365 30.889751 32.2659365 5.335502 0 10.577399-1.513944 15.164059-4.257968 3.369791-2.081674 6.365161-4.825698 8.705294-8.042829.936053-1.324701 2.808159-1.419323 3.837817-.283865z" fill="#2d3f51" fill-rule="nonzero"/><path d="m494.06015 132.524h-4.417293c-2.819549 0-5.169173-2.35-5.169173-5.17v-71.534c0-1.504-1.221804-2.82-2.819549-2.82h-8.834586c-1.50376 0-2.819549 1.222-2.819549 2.82v71.628c0 10.81 8.834586 19.552 19.548872 19.552h4.323308c.657895 0 1.12782-.47 1.12782-1.128v-12.314c0-.564-.37594-1.034-.93985-1.034z" fill="#2d3f51" fill-rule="nonzero"/><path d="m567.685349 78.002073c-8.033391.0945253-15.216188 3.0248096-20.225244 8.7908529v-4.6317397c0-2.2686072-1.89021-4.1591132-4.158462-4.1591132h-6.143182c-2.268251 0-4.158461 1.890506-4.158461 4.1591132v86.6797008c0 2.268607 1.89021 4.159113 4.158461 4.159113h6.143182c2.268252 0 4.158462-1.890506 4.158462-4.159113v-36.864867c4.158461 4.726265 10.301643 7.467498 18.713076 7.656549 17.200909.378101 28.731189-13.895219 28.826263-31.193349.093947-17.8652821-11.719864-30.6261976-27.314095-30.437147zm-4.536503 47.829802c-9.167518 0-16.633846-7.656549-16.633846-17.014554 0-9.4525301 7.466328-17.0145542 16.633846-17.0145542 9.167517 0 16.633846 7.6565494 16.633846 17.0145542 0 9.45253-7.371818 17.014554-16.633846 17.014554z" fill="#2d3f51"/><path d="m151.079426 44.7471429 38.63732 38.6495238c.37512.3752381.75024.7504762 1.031579 1.1257143 6.939713 7.9738095 6.939713 19.981429 0 27.955238-.375119.375238-.656459.750476-1.031579 1.125714l-38.63732 38.649524c-.750239.750476-2.063158.750476-2.813397 0l-11.253589-11.257143c-.750239-.750476-.750239-2.063809 0-2.814285l33.479426-33.49c3.469856-3.470953 3.469856-9.0995242 0-12.5704766l-33.479426-33.49c-.750239-.7504762-.750239-2.0638095 0-2.8142857l11.253589-11.2571429c.750239-.5628571 2.063158-.5628571 2.813397.1876191z" fill="url(#c)"/><path d="m102.782775 44.7471429 11.253589 11.2571428c.750239.7504762.750239 2.0638095 0 2.8142857l-33.4794262 33.3961905c-3.4698565 3.4709524-3.4698565 9.0995241 0 12.5704761l33.4794262 33.49c.750239.750476.750239 1.97 0 2.814286l-11.253589 11.257143c-.750239.750476-2.063158.750476-2.813397 0l-38.6373206-38.649524c-.3751196-.375238-.7502392-.750476-1.0315789-1.125714-6.9397129-7.97381-6.9397129-19.981429 0-27.9552385.3751196-.3752381.6564593-.7504762 1.0315789-1.1257143l38.6373206-38.6495238c.844019-.8442857 2.063158-.8442857 2.813397-.0938095z" fill="url(#d)"/><path d="m113.192344 6.84809524 24.851675 24.85952376c.750239.7504762.750239 2.0638096 0 2.8142858l-11.253588 11.2571428c-.75024.7504762-2.063158.7504762-2.813398 0l-19.693779-19.7c-3.469857-3.4709524-9.0966511-3.4709524-12.5665076 0l-66.0210526 66.1357143c-3.4698565 3.4709524-3.4698565 9.0995241 0 12.5704761l66.1148325 66.135714c3.4698565 3.470953 9.0966507 3.470953 12.5665067 0l19.69378-19.7c.75024-.750476 2.063158-.750476 2.813398 0l11.253588 11.257143c.750239.750476.750239 2.06381 0 2.814286l-24.851675 24.859524c-8.346411 8.349047-21.8507173 8.349047-30.1971288 0l-76.5244019-76.548572c-8.34641148-8.349047-8.34641148-21.8576187 0-30.2066663l76.430622-76.54857146c8.3464115-8.34904762 21.8507177-8.34904762 30.1971287 0z" fill="url(#e)"/></g></g><text fill="#fff" font-family="PingFangSC-Regular, PingFang SC" font-size="25" letter-spacing="4.92557187"><tspan x="66.481781" y="303">五行代码，让你的APP拥有小程序运行能力</tspan></text></g></svg>