<svg height="377" viewBox="0 0 705 377" width="705" xmlns="http://www.w3.org/2000/svg" xmlns:xlink="http://www.w3.org/1999/xlink"><linearGradient id="a"><stop offset="0" stop-color="#43b7e9"/><stop offset="1" stop-color="#4e6eb5"/></linearGradient><linearGradient id="b" x1="-1.351258%" x2="56.638056%" xlink:href="#a" y1="-14.847497%" y2="72.60137%"/><linearGradient id="c" x1="29.819985%" x2="87.748904%" xlink:href="#a" y1="6.941917%" y2="94.345232%"/><linearGradient id="d" x1="40.600445%" x2="82.124613%" xlink:href="#a" y1="26.937293%" y2="75.459449%"/><g fill="none" fill-rule="evenodd"><text fill="#111" font-family="PingFangSC-Regular, PingFang SC" font-size="25" letter-spacing="4.92557187"><tspan x="66.481781" y="315">五行代码，让你的APP拥有小程序运行能力</tspan></text><g transform="translate(29 47)"><g fill="#2d3f51"><path d="m375 81.8c14 0 24.2 11.1 24.2 24.7v46.9c0 1.6-1.3 3-3 3h-9.4c-1.6 0-3-1.3-3-3v-44.4c0-6.6-5.1-11.9-13-11.9s-13.9 5.4-13.9 11.9v44.3c0 1.6-1.3 2.9-2.9 3h-9.4c-1.7 0-3-1.1-3-2.8v-65.9c0-1.4 1-2.6 2.3-2.9l8.9-2.1c1.9-.4 3.6 1 3.6 2.9v4.2c4.6-4.9 11.2-7.9 18.6-7.9z"/><path d="m304.9 60.6-3.3 9.4c-.5 1.1-1.5 1.8-2.7 1.8h-40c-1.6 0-3 1.3-3 3v17.1c0 1.7 1.4 3 3 3l35.1-.3c1.7 0 3 1.3 3 3v9.8c0 1.6-1.3 3-3 3h-35.1c-1.6 0-3 1.3-3 3v40.2c0 1.6-1.3 3-3 3h-9.4c-1.6 0-3-1.3-3-3v-94c0-1.6 1.3-3 3-3h58.7c2.1-.2 3.5 2 2.7 4z"/><path d="m325.6 86.3v67c0 1.7-1.4 3-3 3l-9.4-.2c-1.6 0-2.9-1.4-2.9-3v-66.8c0-1.6 1.3-3 3-3h9.4c1.6 0 2.9 1.4 2.9 3z"/><path d="m326.9 66.5s-7.5 7.5-7.5 7.5c-.8.8-2.1.8-2.9 0l-7.4-7.4c-.8-.8-.8-2.1 0-2.9l7.4-7.4c.8-.8 2.1-.8 2.9 0l7.4 7.4s.1.1.1.1c.6.8.6 1.9 0 2.7z"/><path d="m553 86.3v67c0 1.7-1.4 3-3 3l-9.4-.2c-1.6 0-2.9-1.4-2.9-3v-66.8c0-1.6 1.3-3 3-3h9.4c1.5 0 2.9 1.4 2.9 3z"/></g><path d="m554.2 66.5s-7.5 7.5-7.5 7.5c-.8.8-2.1.8-2.9 0l-7.4-7.4c-.8-.8-.8-2.1 0-2.9l7.4-7.4c.8-.8 2.1-.8 2.9 0l7.4 7.4s.1.1.1.1c.7.8.7 1.9 0 2.7z" fill="#4e6eb5"/><path d="m493.3 135.4c1 1.1 1.1 2.8.1 3.9-4.2 4.9-9.3 9-15 11.9-7 3.6-14.5 5.4-22.4 5.4-13.2 0-25.6-5.2-35-14.7-9.3-9.5-14.5-22.1-14.5-35.5s5.1-26 14.5-35.5c9.3-9.5 21.8-14.7 35-14.7 7.8 0 15.2 1.8 22.1 5.3 5.6 2.8 10.7 6.8 14.9 11.6 1 1.1.9 2.8-.1 3.9l-7.9 8.2c-1.2 1.2-3.1 1.1-4.1-.2-6.1-7.9-15.2-12.6-25.1-12.6-17.8 0-33 15.3-33 34.1s15.2 34.1 33 34.1c5.7 0 11.3-1.6 16.2-4.5 3.6-2.2 6.8-5.1 9.3-8.5 1-1.4 3-1.5 4.1-.3z" fill="#2d3f51" fill-rule="nonzero"/><path d="m526.6 141h-4.7c-3 0-5.5-2.5-5.5-5.5v-76.1c0-1.6-1.3-3-3-3h-9.4c-1.6 0-3 1.3-3 3v76.2c0 11.5 9.4 20.8 20.8 20.8h4.6c.7 0 1.2-.5 1.2-1.2v-13.1c0-.6-.4-1.1-1-1.1z" fill="#2d3f51" fill-rule="nonzero"/><path d="m604.8 83.4c-8.5.1-16.1 3.2-21.4 9.3v-4.9c0-2.4-2-4.4-4.4-4.4h-6.5c-2.4 0-4.4 2-4.4 4.4v91.7c0 2.4 2 4.4 4.4 4.4h6.5c2.4 0 4.4-2 4.4-4.4v-39c4.4 5 10.9 7.9 19.8 8.1 18.2.4 30.4-14.7 30.500596-33 .099404-18.9-12.400596-32.4-28.900596-32.2zm-4.8 50.6c-9.7 0-17.6-8.1-17.6-18 0-10 7.9-18 17.6-18s17.6 8.1 17.6 18c0 10-7.8 18-17.6 18z" fill="#2d3f51"/><path d="m161.1 47.7 41.2 41.2c.4.4.8.8 1.1 1.2 7.4 8.5 7.4 21.3 0 29.8-.4.4-.7.8-1.1 1.2l-41.2 41.2c-.8.8-2.2.8-3 0l-12-12c-.8-.8-.8-2.2 0-3l35.7-35.7c3.7-3.7 3.7-9.7 0-13.4l-35.7-35.7c-.8-.8-.8-2.2 0-3l12-12c.8-.6 2.2-.6 3 .2z" fill="url(#b)"/><path d="m109.6 47.7 12 12c.8.8.8 2.2 0 3l-35.7 35.6c-3.7 3.7-3.7 9.7 0 13.4l35.7 35.7c.8.8.8 2.1 0 3l-12 12c-.8.8-2.2.8-3 0l-41.2-41.2c-.4-.4-.8-.8-1.1-1.2-7.4-8.5-7.4-21.3 0-29.8.4-.4.7-.8 1.1-1.2l41.2-41.2c.9-.9 2.2-.9 3-.1z" fill="url(#c)"/><path d="m120.7 7.3 26.5 26.5c.8.8.8 2.2 0 3l-12 12c-.8.8-2.2.8-3 0l-21-21c-3.7-3.7-9.7-3.7-13.4 0l-70.4 70.5c-3.7 3.7-3.7 9.7 0 13.4l70.5 70.5c3.7 3.7 9.7 3.7 13.4 0l21-21c.8-.8 2.2-.8 3 0l12 12c.8.8.8 2.2 0 3l-26.5 26.5c-8.9 8.9-23.3 8.9-32.2 0l-81.6-81.6c-8.9-8.9-8.9-23.3 0-32.2l81.5-81.6c8.9-8.9 23.3-8.9 32.2 0z" fill="url(#d)"/></g></g></svg>