<svg width="1370" height="424" viewBox="0 0 1370 424" fill="none" xmlns="http://www.w3.org/2000/svg">
<path d="M199.723 205.477L119.488 16H199.723V205.477Z" fill="#1697F6"/>
<path d="M117.949 73.1896H28L199.723 408.15V261.099L117.949 73.1896Z" fill="#7BC6FF"/>
<path d="M199.723 16.075L199.723 205.477L279.955 16H199.723" fill="#7BC6FF"/>
<path d="M281.487 73.1896H371.436L199.723 408.15V261.099L281.487 73.1896Z" fill="#AEDDFF"/>
<path d="M511.361 277.646L572.299 101.719H603.061L523.959 315H499.057L420.102 101.719H450.717L511.361 277.646ZM721.273 299.326C710.727 311.729 695.248 317.93 674.838 317.93C657.943 317.93 645.053 313.047 636.166 303.281C627.377 293.418 622.934 278.867 622.836 259.629V156.504H649.936V258.896C649.936 282.92 659.701 294.932 679.232 294.932C699.936 294.932 713.705 287.217 720.541 271.787V156.504H747.641V315H721.859L721.273 299.326ZM854.721 317.93C833.236 317.93 815.756 310.898 802.279 296.836C788.803 282.676 782.064 263.779 782.064 240.146V235.166C782.064 219.443 785.043 205.43 791 193.125C797.055 180.723 805.453 171.055 816.195 164.121C827.035 157.09 838.754 153.574 851.352 153.574C871.957 153.574 887.973 160.361 899.398 173.936C910.824 187.51 916.537 206.943 916.537 232.236V243.516H809.164C809.555 259.141 814.096 271.787 822.787 281.455C831.576 291.025 842.709 295.811 856.186 295.811C865.756 295.811 873.861 293.857 880.502 289.951C887.143 286.045 892.953 280.869 897.934 274.424L914.486 287.314C901.205 307.725 881.283 317.93 854.721 317.93ZM851.352 175.84C840.414 175.84 831.234 179.844 823.812 187.852C816.391 195.762 811.801 206.895 810.043 221.25H889.438V219.199C888.656 205.43 884.945 194.785 878.305 187.266C871.664 179.648 862.68 175.84 851.352 175.84ZM984.799 118.125V156.504H1014.39V177.451H984.799V275.742C984.799 282.09 986.117 286.875 988.754 290.098C991.391 293.223 995.883 294.785 1002.23 294.785C1005.36 294.785 1009.65 294.199 1015.12 293.027V315C1007.99 316.953 1001.06 317.93 994.32 317.93C982.211 317.93 973.08 314.268 966.928 306.943C960.775 299.619 957.699 289.219 957.699 275.742V177.451H928.842V156.504H957.699V118.125H984.799ZM1075.62 315H1048.52V156.504H1075.62V315ZM1046.32 114.463C1046.32 110.068 1047.64 106.357 1050.28 103.33C1053.01 100.303 1057.02 98.7891 1062.29 98.7891C1067.56 98.7891 1071.57 100.303 1074.3 103.33C1077.04 106.357 1078.4 110.068 1078.4 114.463C1078.4 118.857 1077.04 122.52 1074.3 125.449C1071.57 128.379 1067.56 129.844 1062.29 129.844C1057.02 129.844 1053.01 128.379 1050.28 125.449C1047.64 122.52 1046.32 118.857 1046.32 114.463ZM1132.46 315V177.451H1107.41V156.504H1132.46V140.244C1132.46 123.252 1137 110.117 1146.08 100.84C1155.16 91.5625 1168 86.9238 1184.6 86.9238C1190.85 86.9238 1197.05 87.7539 1203.21 89.4141L1201.74 111.387C1197.15 110.508 1192.27 110.068 1187.09 110.068C1178.3 110.068 1171.52 112.656 1166.73 117.832C1161.95 122.91 1159.55 130.234 1159.55 139.805V156.504H1193.39V177.451H1159.55V315H1132.46ZM1275.28 275.303L1312.19 156.504H1341.2L1277.47 339.463C1267.61 365.83 1251.94 379.014 1230.45 379.014L1225.33 378.574L1215.22 376.67V354.697L1222.54 355.283C1231.72 355.283 1238.85 353.428 1243.93 349.717C1249.11 346.006 1253.35 339.219 1256.67 329.355L1262.68 313.242L1206.14 156.504H1235.73L1275.28 275.303Z" fill="white"/>
</svg>
