<svg width="121" height="24" viewBox="0 0 121 24" xmlns="http://www.w3.org/2000/svg">
    <g fill="none" fill-rule="evenodd">
        <rect fill="#FF438C" width="121" height="22.846" rx="2"/>
        <path d="M16.86 19.994v-.303c.12 0 .212-.031.28-.093a.694.694 0 0 0 .156-.21c.037-.078.074-.163.111-.257a.716.716 0 0 1 .145-.233.847.847 0 0 0 .213-.536 1.571 1.571 0 0 0-.1-.606 1.414 1.414 0 0 1-.224-.07 3.58 3.58 0 0 0 .033-.28c.008-.092.026-.186.056-.279-.164.016-.264.074-.301.175l-.1.268a2.71 2.71 0 0 1-.202.035c-.06.008-.111.012-.156.012l-.05.026-.062.032c-.044.023-.082.027-.111.012a8.6 8.6 0 0 0-.324-.07.535.535 0 0 0-.39.047l-.224.116a.78.78 0 0 1-.29.035.585.585 0 0 1-.29-.128 2.311 2.311 0 0 0-.604-.338 3.025 3.025 0 0 0-.692-.175 1.382 1.382 0 0 0-.436-.023 4.204 4.204 0 0 1-.457.023 1.77 1.77 0 0 0-.023.28c0 .093-.007.194-.022.302h-.179a.993.993 0 0 1-.2-.023.578.578 0 0 1 .1-.151l.123-.129a1.445 1.445 0 0 1-.157-.093.267.267 0 0 0-.156-.046 8.569 8.569 0 0 0-.915.046c-.12.016-.231.024-.335.024a1.09 1.09 0 0 0-.313.046.39.39 0 0 1-.313-.035c-.089-.054-.193-.043-.312.035 0-.202.01-.392.033-.57a1.024 1.024 0 0 0-.056-.502.872.872 0 0 1-.089-.466 1.83 1.83 0 0 0-.022-.49c-.015-.17 0-.357.044-.559.075-.357.15-.718.224-1.083l.074-.364.149-.72c0-.016.004-.023.011-.023.008 0 .011-.008.011-.024a2.497 2.497 0 0 1-.089-.815c.015-.28.022-.567.022-.863a.85.85 0 0 0 .179-.07c.06-.03.127-.062.201-.093.03.156.037.233.022.233-.089.031-.13.07-.123.117a.268.268 0 0 0 .079.14c.044.046.096.09.156.128.06.039.112.074.156.105.194.093.384.151.57.175.186.023.383-.004.591-.082a.852.852 0 0 1-.022-.233c.12.015.242.027.369.035a.856.856 0 0 0 .368-.058c.447-.202.878-.257 1.295-.163.224-.28.339-.575.346-.886a1.108 1.108 0 0 0-.279-.792c-.119.015-.23.019-.335.011a1.025 1.025 0 0 0-.335.035c-.193.031-.38.09-.558.175a9.461 9.461 0 0 1-.558.245l-.067-.175a.312.312 0 0 0-.067-.105h-1.34a.206.206 0 0 0-.056.105.376.376 0 0 1-.056.128.533.533 0 0 1-.2-.023 4.882 4.882 0 0 1-.157-1.375c.015-.45.052-.925.112-1.422a1.706 1.706 0 0 1-.212-.058.289.289 0 0 0-.213.012.445.445 0 0 0-.122.14c-.038.062-.071.124-.1.186a46.32 46.32 0 0 0-.046-.361 1.466 1.466 0 0 1 0-.362l.045-.35c.015-.108.037-.224.067-.349a.37.37 0 0 1 .156.21c.03.093.12.093.268 0V4.426a35.597 35.597 0 0 1 1.742-.14c0-.077.004-.147.011-.21a3.06 3.06 0 0 1 .034-.21h.424a2.35 2.35 0 0 0-.19.176c-.052.054-.04.143.034.268h.223c.074 0 .156-.008.246-.024.134 0 .264-.007.39-.023.127-.016.257-.023.391-.023.209.015.41.03.603.046.194.016.387.024.58.024.06 0 .112.004.157.011a.118.118 0 0 0 .112-.035c.074-.124.163-.182.268-.174.104.007.216-.004.335-.035a.898.898 0 0 0 .033-.152.443.443 0 0 1 .034-.128c.06-.031.122-.058.19-.082.066-.023.107-.058.122-.105a.68.68 0 0 0 .045-.477 1.01 1.01 0 0 0-.246-.408l-.469.14a3.252 3.252 0 0 0-.156-.327 9.278 9.278 0 0 0-.447.105.877.877 0 0 1-.424.012 1.248 1.248 0 0 0-.446-.012c-.134.024-.283.05-.447.082-.12.031-.242.047-.369.047-.126 0-.22-.07-.279-.21a8.46 8.46 0 0 1-1.931.28c-.633.015-1.262.054-1.887.116-.015.14-.026.276-.034.408a6.14 6.14 0 0 1-.033.384c-.12.047-.22.082-.302.105-.081.023-.167.05-.256.082.014.14.037.264.067.373a.555.555 0 0 1-.157.058.197.197 0 0 0-.111.058c.03.124.048.249.055.373.008.124.019.249.034.373a.445.445 0 0 1 0 .198.445.445 0 0 0 0 .198c.03.109.056.214.078.315.022.1-.033.206-.167.314-.015 0-.019.024-.012.07a6.383 6.383 0 0 1 .212 1.631c0 .498.015 1.003.045 1.515.03.233.004.463-.078.688a1.522 1.522 0 0 0-.078.71c.015.172.007.35-.022.537-.03.186-.053.373-.067.559a.903.903 0 0 1-.168.023.603.603 0 0 0-.145.024c.03.124.045.202.045.233a1.198 1.198 0 0 1 .312-.117v.956a.215.215 0 0 1-.033.104c-.023.04-.041.059-.056.059-.12-.031-.186-.004-.201.081a1.427 1.427 0 0 0-.022.245c-.03.31-.03.637 0 .979 0 .45-.023.897-.067 1.34a5.21 5.21 0 0 1-.313 1.317 1.77 1.77 0 0 0-.112.466c-.015.155-.037.31-.067.466 0 .015.03.054.09.116.03-.03.063-.062.1-.093l.036-.031c.023-.02.045-.042.065-.062.015.155.026.318.033.49.008.17.026.357.056.558.06-.03.115-.034.167-.011.053.023.101.046.146.07a.457.457 0 0 0 .145.046c.052.008.108-.02.167-.081v-.56c0-.046.008-.077.023-.093.193-.14.282-.303.268-.49a3.508 3.508 0 0 1 0-.558l-.045-.094a1.636 1.636 0 0 1-.179.35 7.566 7.566 0 0 1-.022-1.002 21.605 21.605 0 0 1 .112-1.422.959.959 0 0 0-.045-.42.98.98 0 0 0-.112-.267c-.044-.07.015-.144.179-.222l.045-.163c.03-.31.063-.606.1-.885.037-.28.07-.575.1-.886h.09a11.848 11.848 0 0 0-.045 1.025c-.03.358-.063.711-.1 1.06-.038.35-.034.704.01 1.061.03.171.05.338.057.501.007.163.018.33.033.501 0 .062-.007.132-.022.21-.015.078-.008.14.022.186a1.23 1.23 0 0 1-.022 1.05.49.49 0 0 0-.1.267 1.258 1.258 0 0 1-.056.291c-.03.202.03.288.178.257.12-.031.179-.012.179.058s.015.12.045.152c.119-.031.215-.047.29-.047.044 0 .09.008.134.023.044.016.097.04.156.07.238.497.625.645 1.161.443a1.178 1.178 0 0 1-.022-.221c0-.07-.007-.152-.022-.245a.807.807 0 0 0 .402-.058c.134-.055.26-.012.38.128a.233.233 0 0 1-.135.046.497.497 0 0 0-.178.047c.402.31.815.49 1.239.536.424.047.852.031 1.284-.047a.886.886 0 0 0 .033-.163 3.06 3.06 0 0 1 .034-.21c.104.063.193.113.268.152.074.039.134.074.179.105.119-.016.204-.031.256-.047a.671.671 0 0 1 .19-.023c.03 0 .067.016.112.047.044.03.09.046.134.046.283-.03.554-.023.815.024.26.046.495.178.703.396h.134zM9.593 4.376a5.636 5.636 0 0 1-.132-.778 8.46 8.46 0 0 0 .505-.07c.132-.024.271-.047.418-.07-.264.07-.447.188-.55.353a2.147 2.147 0 0 0-.241.565zm1.732 5.508a3.322 3.322 0 0 1-.866-.067 1.27 1.27 0 0 1-.075-.402c0-.119.1-.208.3-.267a.478.478 0 0 0 .208-.045c.063-.03.132-.074.207-.134v.045c.176.06.352.141.528.245.175.104.376.216.602.335a1.955 1.955 0 0 1-.904.29zm1.492 1.841c0-.202-.011-.376-.033-.52a4.475 4.475 0 0 0-.657.347 2.665 2.665 0 0 0-.394-.217 8.576 8.576 0 0 0-.427-.174c.635-.405 1.248-.463 1.84-.173.021.173-.012.31-.1.412-.087.101-.163.21-.23.325zm-1.328 4.594c.152-.127.284-.246.398-.356a6.02 6.02 0 0 1 .342-.31c-.038-.031-.057-.063-.057-.094a.324.324 0 0 0-.057-.143.626.626 0 0 1-.342 0c-.113-.032-.208-.016-.284.048a1.677 1.677 0 0 0-.171.38c-.038.126.019.285.17.475zm17.817 3.675a.334.334 0 0 1 .07-.059l.071-.035a.539.539 0 0 0 .07-.116c-.312-.466-.61-.94-.892-1.422-.281-.481-.54-.97-.774-1.468h.563a2.237 2.237 0 0 1-.152.175l-.13.128a1.832 1.832 0 0 0 .188.233c.126.124.235.264.329.42.094.155.18.318.258.489.078.186.168.369.27.548a.859.859 0 0 0 .481.384.226.226 0 0 1 .118.093.765.765 0 0 0 .094.117c.078.016.152-.008.223-.07.07-.062.144-.023.223.117 0 .015.035.023.105.023.07 0 .122-.016.153-.047.078-.062.152-.128.223-.198l.072-.068c.048-.045.099-.088.15-.13.08-.047.165-.085.26-.116.093-.031.203-.07.328-.117a13.123 13.123 0 0 1-.235-.198 3.21 3.21 0 0 0-.188-.152 2.175 2.175 0 0 1-.692-.745 3.209 3.209 0 0 0-.622-.793c-.079-.062-.11-.124-.094-.186a.79.79 0 0 1 .094-.21 4.977 4.977 0 0 1-.869-.897c-.25-.334-.509-.672-.775-1.014a3.027 3.027 0 0 1-.258-.408 21.623 21.623 0 0 0-.235-.43 8.648 8.648 0 0 1-.551-1.236 4.408 4.408 0 0 0-.646-1.188c.204-.171.227-.334.07-.49.063-.093.122-.179.177-.256.054-.078.105-.156.152-.233.141-.264.286-.517.435-.758.148-.24.3-.493.457-.757.063-.109.13-.218.2-.326a.85.85 0 0 0 .129-.373 1.646 1.646 0 0 1 .47-.886c.03.078.066.148.105.21.04.062.074.148.106.256.156-.264.297-.508.422-.734.126-.225.259-.446.4-.664.078-.14.168-.272.27-.396.101-.124.207-.249.316-.373.125-.124.258-.245.4-.361.14-.117.273-.237.398-.361a.079.079 0 0 0 .024-.059c0-.023.016-.05.047-.081a4.256 4.256 0 0 1-.305-.14l.14-.35.047-.116c.063-.125.067-.202.012-.233a.723.723 0 0 0-.246-.07 3.568 3.568 0 0 1-.188.326 135.37 135.37 0 0 1-1.244 1.888.539.539 0 0 1-.212.093c.094-.186.188-.361.282-.524.094-.163.204-.323.329-.478.125-.171.254-.354.387-.548.133-.194.176-.423.13-.687 0-.031.011-.062.034-.093a.877.877 0 0 1 .083-.094 4.121 4.121 0 0 1-.165-.128 2.104 2.104 0 0 1-.14-.128c.125-.109.16-.198.105-.268a.472.472 0 0 0-.2-.152 9.308 9.308 0 0 1-.48-.233 1.698 1.698 0 0 1-.411-.303h-.024c-.078.234-.149.467-.211.7a2.99 2.99 0 0 1-.258.652c-.094.171-.184.342-.27.513-.087.17-.16.35-.223.536a.39.39 0 0 1-.153.21c-.07.046-.137.054-.2.023-.125.28-.238.544-.34.792-.102.249-.207.497-.317.746a3.876 3.876 0 0 1-.669 1.037 45.36 45.36 0 0 1-.833.897l-.094.094a.292.292 0 0 0-.07.116 2.6 2.6 0 0 0-.165.28l-.164.326a21.904 21.904 0 0 0-.552-.827l-.528-.758c.063-.124.086-.217.07-.28a1.3 1.3 0 0 0-.105-.174l-.038-.056a1.325 1.325 0 0 1-.068-.119 34.006 34.006 0 0 1-.845-1.2 3.56 3.56 0 0 1-.54-1.34 1.884 1.884 0 0 0-.13-.326 3.623 3.623 0 0 1-.152-.35c-.062.078-.11.14-.14.186a2.859 2.859 0 0 1-.141.187.602.602 0 0 0-.176-.326 1.654 1.654 0 0 0-.294-.21c-.11-.062-.215-.12-.317-.175a.62.62 0 0 1-.246-.245.293.293 0 0 0-.212.094c-.062.062-.133.023-.21-.117-.016-.015-.067-.02-.153-.012a.433.433 0 0 0-.2.059 2.337 2.337 0 0 0-.282.221.783.783 0 0 0-.21.338c.14.093.265.194.375.303-.047.062-.09.113-.13.151a.84.84 0 0 0-.105.129c.14.14.27.283.387.43.118.148.215.308.294.478.078.156.188.296.328.42.141.124.18.295.118.513 0 .03.015.054.047.07a.368.368 0 0 1 .094.07c.062.077.117.155.164.233.047.077.102.155.164.233.063.108.133.21.212.303a4.2 4.2 0 0 0 .258.28c.172.17.332.337.481.5.149.163.262.361.34.595.079.233.169.454.27.664a13.55 13.55 0 0 1 .563 1.317c.087.232.177.466.27.699a.225.225 0 0 0 .095.116l.14.093c-.219.404-.438.812-.657 1.224l-.219.41-.438.813a1.321 1.321 0 0 0-.07.233l-.048.233c-.125.016-.25.055-.375.117a.545.545 0 0 0-.258.233l-.752 1.398c-.078.125-.16.245-.246.361-.086.117-.176.237-.27.362l-.481.524c-.165.179-.333.353-.505.524-.016.016-.023.055-.023.117a.551.551 0 0 0 .14.105c.047.023.086.05.118.081a10.315 10.315 0 0 0-.235.7c.11.093.192.12.247.081a.382.382 0 0 0 .129-.175c.156-.264.309-.536.457-.815.15-.28.31-.552.482-.816.047-.078.094-.152.14-.221a.238.238 0 0 1 .212-.105c.015.186.055.322.117.408.063.085.188.167.376.244.203.078.391.14.563.187.047-.078.098-.148.153-.21.055-.062.113-.132.176-.21.062-.078.129-.155.2-.233a.35.35 0 0 0 .105-.233.615.615 0 0 1 .117-.443.714.714 0 0 0 .141-.443c0-.046.02-.108.059-.186.039-.078.121-.109.246-.093.016 0 .032-.016.047-.047a.365.365 0 0 1 .07-.093c.095-.202.196-.373.306-.513.172-.217.34-.427.505-.629.164-.202.324-.412.48-.63.063-.077.126-.147.189-.209.062-.062.133-.14.21-.233.08.124.154.237.224.338l.2.291c.03.062.058.128.082.198a.28.28 0 0 0 .105.152c.172.14.321.299.446.478.126.178.25.353.376.524.063.093.117.194.164.303.047.109.102.217.165.326-.126-.124-.212-.194-.259-.21a1.083 1.083 0 0 0-.281-.023c.03.124.062.21.094.256l.363.548c.118.179.24.354.364.525.204.248.36.504.47.769.11.264.203.551.281.862.032.14.075.287.13.443.054.155.152.318.293.489.078-.155.133-.272.164-.35.094.125.184.234.27.327.086.093.176.194.27.303zm-9.781-14.7.086-.103a4.658 4.658 0 0 0-.13-.45.659.659 0 0 0-.302-.344c-.212-.07-.375.034-.49.31.153.116.297.22.432.311l.404.277zm2.345 1.972h-.021c-.077-.008-.208-.098-.392-.268.246.015.553.046.922.093-.276.124-.453.182-.53.174l.021.001zm7.556-.134a2.989 2.989 0 0 1-.252-.207 2.726 2.726 0 0 0-.335-.252l.251-.184c.364.214.587.122.671-.276 0 .215-.014.36-.042.437-.028.076-.125.237-.293.482zm-5.131 1.837-.21-.735a.756.756 0 0 0 .093-.183c.031.163.062.306.094.428.03.123.062.245.093.368-.016.04-.027.061-.035.061-.008 0-.02.02-.035.061zm1.729 1.047c-.016-.015-.028-.023-.035-.023-.008 0-.02-.008-.035-.024a1.02 1.02 0 0 1 .116-.209.27.27 0 0 1 .059.035l.008.006c.01.008.027.017.05.029a1.364 1.364 0 0 1-.163.186zm.146 3.456c-.14.151-.206.113-.199-.113.008-.225.012-.464.012-.715.031.15.062.289.093.414l.032.13.062.284zm.881 2.847a9.662 9.662 0 0 0-.093-.389l-.031-.121c-.02-.084-.042-.173-.062-.267.015 0 .039-.048.07-.142.03.189.093.424.186.707l-.07.212zm-5.501 1.884v-.093h-.187v.093h.187zm-.833.872c.22-.09.404-.203.55-.338.148-.135.209-.329.184-.58-.17.143-.33.279-.477.405a9.01 9.01 0 0 0-.44.405.298.298 0 0 0 .073.04.523.523 0 0 1 .11.068zm.082-.038c.123.046.29.05.5.014l.158-.895c-.281.09-.518.186-.71.285-.194.1-.255.23-.185.393.035.09.114.158.237.203zm16.603.924c.033.04.13.043.29.012v-.245c0-.086-.008-.167-.024-.245a1.106 1.106 0 0 1 0-.327.526.526 0 0 1 .169-.28c.177-.187.2-.412.072-.677a.898.898 0 0 1-.096.082l-.145.105c.032-.405.06-.798.084-1.179l.02-.288c.019-.29.04-.587.065-.89 0-.078.004-.152.012-.222l.007-.071c.003-.049.005-.099.005-.15a8.14 8.14 0 0 1 .036-1.18c.04-.38.133-.766.278-1.155-.033.778-.08 1.54-.145 2.287-.016.25-.024.498-.024.747v.747c0 .047.02.09.06.129.04.038.068.073.084.105l.097.315c.032.1 0 .206-.097.315a.562.562 0 0 1 .121.07c.048.03.089.07.12.116 0-.03.005-.062.013-.093a.372.372 0 0 0 .012-.093c.032.015.068.035.109.058.04.023.076.027.108.012.129-.062.23-.082.302-.059.072.024.14.098.205.222a.353.353 0 0 1 .157-.117c.072-.03.06-.093-.036-.186-.033-.031-.033-.07 0-.117.16-.311.144-.63-.049-.957a.903.903 0 0 1-.108-.268 3.11 3.11 0 0 0-.085-.292.707.707 0 0 0-.048.14c-.016.062-.04.132-.072.21a13.18 13.18 0 0 1-.121-.455c-.032-.132-.064-.26-.097-.385.08-.062.15-.09.206-.082.056.008.108.074.156.199.065-.203.125-.386.181-.549.057-.163.11-.33.157-.502.08-.295.125-.599.133-.91.008-.311.085-.599.23-.864.015-.03.02-.054.011-.07a.158.158 0 0 1-.012-.07c-.048-.28-.08-.56-.096-.84-.016-.28.008-.568.072-.863.048-.218-.056-.343-.314-.374-.209-.03-.313.07-.313.304a.317.317 0 0 0-.012.151c.008.055.012.12.012.199 0 .124.016.253.048.385s.056.26.072.385c.016.124.012.253-.012.385a.789.789 0 0 1-.205.385.38.38 0 0 0-.072.304c.016.124.016.24 0 .35a4.627 4.627 0 0 1-.06-1.727c.088-.576.164-1.16.229-1.75.032.061.068.12.108.174.04.055.077.105.109.152.096 0 .16-.027.193-.082a.384.384 0 0 0 .048-.198 23.391 23.391 0 0 1-.024-1.05c0-.343-.016-.685-.048-1.027a1.907 1.907 0 0 1 .012-.642.977.977 0 0 0-.085-.619c.145-.093.19-.202.133-.327a.68.68 0 0 1-.06-.373c.032-.14.052-.284.06-.432.008-.148.109-.253.302-.315a.202.202 0 0 1-.024-.093.202.202 0 0 0-.024-.094c.08-.03.169-.058.265-.081.097-.024.193.004.29.081l.097.008c.13.007.262.005.397-.008a.744.744 0 0 1 .495.14c-.08.032-.173.055-.277.07-.105.016-.141.102-.109.257h.338c.37-.03.732-.035 1.086-.011.354.023.7.144 1.038.361a.167.167 0 0 0 .12.047.47.47 0 0 1 .145.023l.097-.046c0-.063-.016-.156-.049-.28a27 27 0 0 1 .302-.082c.089-.023.173-.05.253-.082.017-.186-.064-.28-.24-.28a24.177 24.177 0 0 0-1.063-.023c-.354 0-.708-.016-1.062-.047a2.881 2.881 0 0 1-.374-.07c-.12-.031-.253-.062-.398-.093a.734.734 0 0 1 .519-.082.46.46 0 0 0 .446-.128c0 .015.008.023.025.023.016 0 .024.004.024.012s.008.011.024.011c.048.016.096.035.145.059a.189.189 0 0 0 .144.011c.21-.046.443-.03.7.047.129.031.254.05.374.058a.64.64 0 0 0 .374-.105.941.941 0 0 0 .338-.291c.08-.117.161-.238.242-.362a.463.463 0 0 0 .012-.28 1.506 1.506 0 0 1-.036-.327c.016-.109.024-.214.024-.315s.008-.222.024-.362a1.26 1.26 0 0 1-.447.222 3.151 3.151 0 0 1-.458.082 9.09 9.09 0 0 1-.459.035 1.737 1.737 0 0 0-.446.081.335.335 0 0 1-.06-.07.183.183 0 0 0-.037-.046c-.016-.016-.024-.031-.024-.047-.322.031-.627.066-.917.105-.29.039-.58.074-.869.105-.209.016-.414.02-.615.012a1.924 1.924 0 0 1-.567-.105 3.609 3.609 0 0 0-1.497-.187c-.37.016-.732.012-1.086-.012a16.135 16.135 0 0 0-1.062-.035l-.072.117h.434v.093a1.99 1.99 0 0 1-.772.035 6.42 6.42 0 0 1-.796-.175c.16-.046.257-.085.29-.116.032-.031.08-.11.144-.234a2.26 2.26 0 0 0-.386.024c-.354.015-.708.015-1.062 0a1.937 1.937 0 0 1-1.013-.35.152.152 0 0 0-.11-.047.246.246 0 0 1-.108-.024.276.276 0 0 0-.084.012l-.026.007a.311.311 0 0 1-.059.005c0 .03.004.054.012.07.009.015.004.039-.012.07v.163c-.24.062-.382.113-.422.152-.04.039-.044.144-.012.315.257 0 .515-.004.772-.012.258-.007.515-.004.773.012.24.016.486.039.736.07l.736.093v.117c-.097 0-.193.004-.29.012a1.448 1.448 0 0 1-.314-.012c-.08-.015-.165.012-.253.082-.089.07-.173.043-.253-.082a1.074 1.074 0 0 1-.543.047 8.207 8.207 0 0 1-.568-.117.73.73 0 0 0-.41.023.871.871 0 0 0-.314.187c-.16.156-.281.366-.362.63a.43.43 0 0 0-.012.269c.024.1.037.198.037.291 0 .078-.005.168-.013.269a6.98 6.98 0 0 1-.036.338c.258-.202.535-.295.833-.28a2.81 2.81 0 0 0 .88-.093c.033-.016.077 0 .133.046a.89.89 0 0 0 .181.117 22.25 22.25 0 0 1 1.087-.21c.37-.062.756-.078 1.158-.047.29.032.58.078.869.14.29.063.587.125.893.187.08.11.092.202.036.28a.597.597 0 0 1-.23.187c.13.389.206.77.23 1.144.024.373.06.746.108 1.12.033.264.053.533.06.805.009.272.02.54.037.805a.513.513 0 0 1-.12.327c-.097.047-.15.105-.158.175-.008.07-.012.144-.012.222 0 .249.004.498.012.747.009.249-.028.498-.108.747-.032.108-.032.186 0 .233.08.124.108.253.084.385a7.51 7.51 0 0 0-.06.385c-.016.311-.048.634-.097.969-.048.334-.016.657.097.968.032.125.048.238.048.339 0 .1-.04.198-.12.291a.856.856 0 0 0-.121-.175 3.725 3.725 0 0 0-.193-.198c-.016.125-.028.226-.036.303a2.268 2.268 0 0 0-.012.234c0 .451-.008.887-.025 1.307-.016.42-.144.824-.386 1.213a.573.573 0 0 0-.084.257 2.026 2.026 0 0 1-.06.327 2.24 2.24 0 0 1 .205-.07c.056-.016.116-.031.18-.047v.7c.065.016.121.028.17.035.048.008.104.02.169.035.064.296.112.463.144.502zM38.99 4.434h-.923v-.116c.17.03.325.046.461.046h.462v.07zm2.452.96.032-.001c.095-.008.19-.074.284-.198a59.16 59.16 0 0 1-.923.07c.332.093.544.136.64.128h-.033zM38.87 15.4c.146-.23.159-.408.037-.536-.122-.127-.402-.255-.84-.382l.21.22.192.2c.121.128.255.294.401.498zm-.775 3.675c.031-.245.043-.408.035-.49a2.601 2.601 0 0 0-.105-.429 4.857 4.857 0 0 0-.023.46c0 .143.03.296.093.459zm1.91.897c.084.034.36.028.83-.017a5.646 5.646 0 0 1-.352-.458c-.1-.147-.218-.3-.352-.458-.202-.227-.52-.52-.957-.883-.067.25-.126.47-.176.662-.05.192.126.345.529.458.067 0 .109.04.125.119a.93.93 0 0 0 .076.22c.1.204.193.323.277.357zm-1.51.022c.366-.265.53-.547.489-.845a3.697 3.697 0 0 0-.306-.993 7.722 7.722 0 0 1-.305.894 7.723 7.723 0 0 0-.306.894c.082.033.224.05.428.05zm17.122 0v-.303c.119 0 .212-.031.279-.093a.694.694 0 0 0 .156-.21c.037-.078.074-.163.112-.257a.716.716 0 0 1 .145-.233.847.847 0 0 0 .212-.536 1.571 1.571 0 0 0-.1-.606 1.414 1.414 0 0 1-.224-.07 3.58 3.58 0 0 0 .034-.28c.007-.092.026-.186.055-.279-.163.016-.264.074-.301.175l-.1.268a2.71 2.71 0 0 1-.201.035c-.06.008-.112.012-.157.012l-.05.026-.061.032c-.045.023-.082.027-.112.012a8.6 8.6 0 0 0-.324-.07.535.535 0 0 0-.39.047l-.224.116a.78.78 0 0 1-.29.035.585.585 0 0 1-.29-.128 2.311 2.311 0 0 0-.603-.338 3.025 3.025 0 0 0-.693-.175 1.382 1.382 0 0 0-.435-.023 4.204 4.204 0 0 1-.458.023 1.77 1.77 0 0 0-.022.28c0 .093-.008.194-.023.302h-.178a.993.993 0 0 1-.201-.023.578.578 0 0 1 .1-.151l.123-.129a1.445 1.445 0 0 1-.156-.093.267.267 0 0 0-.157-.046 8.569 8.569 0 0 0-.915.046c-.12.016-.23.024-.335.024a1.09 1.09 0 0 0-.313.046.39.39 0 0 1-.312-.035c-.09-.054-.194-.043-.313.035 0-.202.011-.392.034-.57a1.024 1.024 0 0 0-.056-.502.872.872 0 0 1-.09-.466 1.83 1.83 0 0 0-.022-.49c-.015-.17 0-.357.045-.559.074-.357.149-.718.223-1.083l.075-.364.148-.72c0-.016.004-.023.012-.023.007 0 .01-.008.01-.024a2.497 2.497 0 0 1-.089-.815c.015-.28.023-.567.023-.863a.85.85 0 0 0 .178-.07c.06-.03.127-.062.201-.093.03.156.038.233.023.233-.09.031-.13.07-.123.117a.268.268 0 0 0 .078.14c.045.046.097.09.156.128l.157.105c.193.093.383.151.57.175.185.023.382-.004.59-.082a.852.852 0 0 1-.022-.233c.12.015.242.027.369.035a.856.856 0 0 0 .368-.058c.447-.202.879-.257 1.296-.163.223-.28.338-.575.346-.886a1.108 1.108 0 0 0-.28-.792c-.119.015-.23.019-.334.011a1.025 1.025 0 0 0-.335.035c-.194.031-.38.09-.559.175a9.461 9.461 0 0 1-.558.245l-.067-.175a.312.312 0 0 0-.067-.105h-1.34a.206.206 0 0 0-.056.105.376.376 0 0 1-.055.128.533.533 0 0 1-.201-.023 4.882 4.882 0 0 1-.157-1.375c.015-.45.052-.925.112-1.422a1.706 1.706 0 0 1-.212-.058.289.289 0 0 0-.212.012.445.445 0 0 0-.123.14c-.037.062-.07.124-.1.186l-.045-.361a1.466 1.466 0 0 1 0-.362l.044-.35c.015-.108.038-.224.067-.349a.37.37 0 0 1 .157.21c.03.093.119.093.268 0V4.426a35.597 35.597 0 0 1 1.741-.14c0-.077.004-.147.012-.21a3.06 3.06 0 0 1 .033-.21h.424a2.35 2.35 0 0 0-.19.176c-.051.054-.04.143.034.268h.223c.075 0 .157-.008.246-.024.134 0 .264-.007.39-.023.127-.016.258-.023.392-.023.208.015.409.03.603.046.193.016.387.024.58.024.06 0 .112.004.156.011a.118.118 0 0 0 .112-.035c.075-.124.164-.182.268-.174.104.007.216-.004.335-.035a.898.898 0 0 0 .034-.152.443.443 0 0 1 .033-.128c.06-.031.123-.058.19-.082.067-.023.108-.058.123-.105a.68.68 0 0 0 .044-.477 1.01 1.01 0 0 0-.245-.408l-.47.14a3.252 3.252 0 0 0-.156-.327 9.278 9.278 0 0 0-.446.105.877.877 0 0 1-.424.012 1.248 1.248 0 0 0-.447-.012c-.134.024-.283.05-.447.082-.119.031-.242.047-.368.047-.127 0-.22-.07-.28-.21a8.46 8.46 0 0 1-1.93.28c-.634.015-1.263.054-1.888.116-.015.14-.026.276-.033.408a6.14 6.14 0 0 1-.034.384c-.119.047-.22.082-.301.105-.082.023-.168.05-.257.082.015.14.037.264.067.373a.555.555 0 0 1-.156.058.197.197 0 0 0-.112.058c.03.124.048.249.056.373.007.124.018.249.033.373a.445.445 0 0 1 0 .198.445.445 0 0 0 0 .198c.03.109.056.214.078.315.023.1-.033.206-.167.314-.015 0-.019.024-.011.07a6.383 6.383 0 0 1 .212 1.631c0 .498.015 1.003.045 1.515.03.233.003.463-.079.688a1.522 1.522 0 0 0-.078.71c.015.172.008.35-.022.537-.03.186-.052.373-.067.559a.903.903 0 0 1-.168.023.603.603 0 0 0-.145.024c.03.124.045.202.045.233a1.198 1.198 0 0 1 .313-.117v.956a.215.215 0 0 1-.034.104c-.022.04-.04.059-.056.059-.119-.031-.186-.004-.2.081a1.427 1.427 0 0 0-.023.245c-.03.31-.03.637 0 .979 0 .45-.022.897-.067 1.34a5.21 5.21 0 0 1-.313 1.317 1.77 1.77 0 0 0-.111.466c-.015.155-.037.31-.067.466 0 .015.03.054.09.116.029-.03.062-.062.1-.093l.036-.031c.023-.02.044-.042.064-.062.015.155.026.318.034.49.007.17.026.357.055.558.06-.03.116-.034.168-.011.052.023.1.046.145.07a.457.457 0 0 0 .145.046c.052.008.108-.02.168-.081v-.56c0-.046.007-.077.022-.093.193-.14.283-.303.268-.49a3.508 3.508 0 0 1 0-.558l-.045-.094a1.636 1.636 0 0 1-.178.35 7.566 7.566 0 0 1-.023-1.002 21.605 21.605 0 0 1 .112-1.422.959.959 0 0 0-.045-.42.98.98 0 0 0-.111-.267c-.045-.07.015-.144.178-.222l.045-.163c.03-.31.063-.606.1-.885.038-.28.071-.575.1-.886h.09a11.848 11.848 0 0 0-.044 1.025c-.03.358-.064.711-.1 1.06-.038.35-.034.704.01 1.061.03.171.049.338.056.501.008.163.019.33.034.501 0 .062-.008.132-.023.21-.015.078-.007.14.023.186a1.23 1.23 0 0 1-.023 1.05.49.49 0 0 0-.1.267 1.258 1.258 0 0 1-.056.291c-.03.202.03.288.179.257.119-.031.178-.012.178.058s.015.12.045.152c.119-.031.216-.047.29-.047.045 0 .09.008.134.023.045.016.097.04.156.07.239.497.626.645 1.162.443a1.178 1.178 0 0 1-.023-.221c0-.07-.007-.152-.022-.245a.807.807 0 0 0 .402-.058c.134-.055.26-.012.38.128a.233.233 0 0 1-.134.046.497.497 0 0 0-.18.047c.403.31.816.49 1.24.536.425.047.853.031 1.284-.047a.886.886 0 0 0 .034-.163 3.06 3.06 0 0 1 .033-.21c.104.063.194.113.268.152.075.039.134.074.179.105.119-.016.205-.031.257-.047a.671.671 0 0 1 .19-.023c.03 0 .066.016.111.047.045.03.09.046.134.046.283-.03.555-.023.815.024.26.046.495.178.704.396h.134zM48.348 4.376a5.636 5.636 0 0 1-.132-.778 8.46 8.46 0 0 0 .506-.07c.131-.024.27-.047.417-.07-.264.07-.447.188-.55.353a2.147 2.147 0 0 0-.24.565zm1.733 5.508a3.322 3.322 0 0 1-.867-.067 1.27 1.27 0 0 1-.075-.402c0-.119.1-.208.301-.267a.478.478 0 0 0 .207-.045c.063-.03.132-.074.208-.134v.045c.175.06.351.141.527.245.176.104.377.216.602.335a1.955 1.955 0 0 1-.903.29zm.569 1.841c0-.202-.011-.376-.033-.52a4.475 4.475 0 0 0-.657.347 2.665 2.665 0 0 0-.394-.217 8.576 8.576 0 0 0-.427-.174c.635-.405 1.248-.463 1.839-.173.022.173-.011.31-.099.412-.087.101-.164.21-.23.325zm-.406 4.594c.152-.127.285-.246.399-.356a6.02 6.02 0 0 1 .341-.31c-.037-.031-.056-.063-.056-.094a.324.324 0 0 0-.057-.143.626.626 0 0 1-.342 0c-.114-.032-.209-.016-.285.048a1.677 1.677 0 0 0-.17.38c-.039.126.018.285.17.475zm19.324-9.187a14.417 14.417 0 0 1 .179-.603.508.508 0 0 1 .026.174c0 .07.008.131.025.185a.4.4 0 0 0 .09.151c.043.047.124.07.243.07a.7.7 0 0 0 .052-.232 8.805 8.805 0 0 1-.077-.627 7.274 7.274 0 0 0-.077-.603 2.32 2.32 0 0 1-.026-.765 4.45 4.45 0 0 1 .18-.766c.051-.124.085-.255.102-.394a3.58 3.58 0 0 1 .077-.418.333.333 0 0 0-.051-.14 9.804 9.804 0 0 1-.359.07l-.09-.37a4.597 4.597 0 0 0-.09-.326c-.222.016-.333.07-.333.163s.009.178.026.255c0 .402.004.797.013 1.183.008.387.013.774.013 1.16.017.263.021.538.013.824-.009.286-.013.56-.013.823 0 .031.025.093.077.186zm-2.09-3.675c.135-.431.152-.707.051-.825-.1-.119-.387-.124-.858-.016a.51.51 0 0 1 .286.194.855.855 0 0 1 .118.275.69.69 0 0 0 .118.259c.056.075.151.113.286.113zm1.352 16.537c.048-.047.087-.09.12-.13.03-.04.063-.075.094-.106-.286-.52-.568-1.026-.846-1.522a90.55 90.55 0 0 1-.822-1.497v-.118c.016-.016.024-.032.024-.048.08-.015.15-.027.214-.035.064-.008.127-.02.191-.035-.127.141-.163.263-.107.365a.92.92 0 0 0 .226.272c.064.094.131.18.203.259.071.079.139.157.202.236.128.251.247.495.358.731.111.236.222.464.334.684.254.047.405.09.452.13.048.04.088.153.12.342.19.11.325.22.405.33.127.079.318.102.572.07.254-.03.421-.11.5-.235l-.095-.377a.37.37 0 0 1 .143-.06.613.613 0 0 0 .167-.058.71.71 0 0 1-.012-.342c.024-.118-.028-.217-.155-.295-.048-.047-.056-.11-.024-.189.08-.094.104-.185.072-.271a8.308 8.308 0 0 0-.096-.248 10.93 10.93 0 0 0-.095-.354c-.032-.11.032-.212.19-.306.017-.016.025-.063.025-.142a7.984 7.984 0 0 1-.37-1.533c-.071-.519-.139-1.038-.202-1.557a1.233 1.233 0 0 1 0-.342.533.533 0 0 0-.048-.318c-.111-.173-.131-.303-.06-.39.072-.086.147-.16.227-.224.016-.361.031-.7.047-1.014.016-.314.024-.629.024-.943 0-.032.004-.06.012-.083.008-.024.004-.043-.012-.059a.889.889 0 0 1-.167-.578c.016-.196.024-.397.024-.601a7.465 7.465 0 0 1-.036-.437.667.667 0 0 0-.178-.413c-.032-.031-.04-.066-.024-.106a.287.287 0 0 0 .024-.106c-.127.016-.195.055-.203.118-.008.063-.02.134-.036.212l-.143 1.486a19.46 19.46 0 0 1-.155-1.757c-.023-.574-.051-1.152-.083-1.734a26.954 26.954 0 0 0-.06-.766l-.022-.258c-.014-.172-.027-.341-.037-.509a.35.35 0 0 0-.096-.165 2.134 2.134 0 0 0-.143-.13.408.408 0 0 1-.107-.13c-.024-.047-.02-.11.012-.188-.08.094-.159.177-.238.248-.08.07-.08.169 0 .294 0 .016-.04.063-.12.142a4.308 4.308 0 0 1-.154-.448l-.131-.472a.92.92 0 0 1-.12.212c-.047.063-.063.102-.047.118.095.11.123.209.083.295-.04.087-.075.185-.107.295-.111.425.063.582.524.472.016 0 .032.004.048.011l.016.007a.1.1 0 0 0 .032.005c0 .158.016.31.047.46.032.15.06.299.084.448.024.15.031.3.024.449-.008.149-.052.302-.132.46a6.831 6.831 0 0 1-.166-.755 7.65 7.65 0 0 0-.191.542 5.125 5.125 0 0 0-.12.472c-.079.362-.138.716-.178 1.061-.04.346-.091.7-.155 1.062 0 .016.004.027.012.035.008.008.012.028.012.06.159.66.214 1.344.167 2.051.286.048.472.04.56-.023.087-.063.107-.205.06-.425a61.294 61.294 0 0 0-.144-.73 11.396 11.396 0 0 0-.166-.709c.127-.141.202-.24.226-.294.024-.055.028-.17.012-.342a72.99 72.99 0 0 1-.036-.437 1.272 1.272 0 0 1 0-.248c.008-.062.02-.121.036-.176a.876.876 0 0 1 .095-.2c0 .125.004.231.012.318.008.086.012.176.012.27.016.127.02.26.012.402-.008.141.004.275.036.4.08.19.127.374.143.555.016.18.024.366.024.554v2.005c-.048 0-.08.016-.096.048-.08-.11-.167-.228-.262-.354-.08.031-.143.063-.19.094-.048.032-.064.094-.048.189.08.409.143.818.19 1.226.048.41.088.818.12 1.227a.37.37 0 0 1 .012.165 1.707 1.707 0 0 0-.012.212 1.515 1.515 0 0 0-.227-.188.586.586 0 0 1-.179-.189 28.964 28.964 0 0 0-.429-.507 8.112 8.112 0 0 1-.405-.507 1.935 1.935 0 0 1-.167-.283 86.7 86.7 0 0 1-.37-1.074l-.12-.355a87.855 87.855 0 0 0-.249-.718l-.071-.141a2.165 2.165 0 0 1-.322-.401 12.755 12.755 0 0 0-.274-.425 13.136 13.136 0 0 1-.477-.944c-.015-.031-.055-.062-.119-.094-.08.032-.15.06-.214.083a1.996 1.996 0 0 0-.19.082l-.144-.188a1.16 1.16 0 0 0-.12-.708c-.11-.205-.23-.417-.357-.637a3.85 3.85 0 0 1-.37-.59 3.055 3.055 0 0 0-.392-.59 5.465 5.465 0 0 1-.477-.648 53.98 53.98 0 0 1-.43-.696 1.073 1.073 0 0 1-.154-.26.802.802 0 0 0-.179-.259 1.943 1.943 0 0 1-.417-.672c-.087-.244-.17-.484-.25-.72a.916.916 0 0 1-.072-.188.916.916 0 0 0-.071-.189.585.585 0 0 0-.143-.26.479.479 0 0 0-.286-.117c-.08 0-.16-.071-.239-.213a.916.916 0 0 1-.071-.188 4.568 4.568 0 0 1-.048-.213c-.11-.031-.19-.031-.238 0a.18.18 0 0 0-.083.13l-.024.165a.22.22 0 0 1-.06.13c-.159 0-.262.016-.31.047a6.42 6.42 0 0 0-.095-.224 1.198 1.198 0 0 0-.095-.177.59.59 0 0 0-.215-.047c-.063 0-.103-.055-.12-.165 0-.016-.027-.036-.083-.06a.365.365 0 0 0-.13-.035 8.469 8.469 0 0 0-.334.048 2.074 2.074 0 0 1-.334.023c-.095.016-.195.02-.298.012a4.587 4.587 0 0 0-.346-.012c.048.173.104.338.167.496.064.157.116.314.155.471.04.158.052.315.036.472a1.127 1.127 0 0 1-.167.472c.048.063.1.122.155.177l.179.177c-.064.047-.12.09-.167.13-.048.039-.087.074-.12.106.033.078.056.157.072.235l.048.236c.064.252.111.504.143.755.032.252.071.496.12.731.079.44.102.822.07 1.144a5.601 5.601 0 0 1-.238 1.097v.118c0 .268.004.539.012.814.008.275-.028.546-.107.814-.016.031-.012.07.012.118a.276.276 0 0 1 .036.118 1.572 1.572 0 0 1 .095.519V13.2a.932.932 0 0 1 .167-.094c.016.079.028.15.036.212a.866.866 0 0 0 .06.213c0 .015-.017.023-.048.023a.213.213 0 0 0-.096.024c.032.047.076.102.131.165.056.063.108.126.155.189-.27.11-.334.251-.19.424.11.11.174.22.19.33.016.11.04.228.072.354.031.268.06.523.083.767.024.244.06.5.107.766a.756.756 0 0 0 .263.118c-.128.079-.207.118-.239.118-.047.236-.087.46-.119.673a3.478 3.478 0 0 0 .095 1.569.737.737 0 0 0 .096.235c.047.079.095.173.143.283.047.032.115.04.202.024.088-.016.14.047.155.188 0 .032.032.06.096.083a.49.49 0 0 0 .166.035 6.39 6.39 0 0 0 .382-.059c.127-.023.27-.05.429-.082a1.447 1.447 0 0 1-.072-.224c-.016-.071-.031-.146-.047-.224.095-.032.19-.071.286-.118.095-.047.127-.142.095-.283a5.065 5.065 0 0 0-.131-.602 13.32 13.32 0 0 1-.155-.601.43.43 0 0 1 0-.283 1.66 1.66 0 0 1 .214-.26.37.37 0 0 1-.06-.13l-.007-.03a.423.423 0 0 0-.052-.1l-.19-1.226a10.679 10.679 0 0 1-.12-1.227 4.525 4.525 0 0 0-.071-.436 2.888 2.888 0 0 1-.06-.448 1.34 1.34 0 0 1 .048-.436.916.916 0 0 1 .25-.401v-.071a30.8 30.8 0 0 0 .036-.838c.008-.275.02-.546.036-.813 0-.079-.016-.181-.048-.307a23.688 23.688 0 0 1-.048-.295 1.79 1.79 0 0 1-.023-.271c0-.252.004-.492.012-.72.007-.228.011-.46.011-.695l-.047-.095a.72.72 0 0 0-.072.13.314.314 0 0 1-.071.106.58.58 0 0 1-.06-.177.869.869 0 0 0-.036-.153c.128-.063.203-.11.227-.142.024-.031.02-.11-.012-.236a.37.37 0 0 0-.072.095.37.37 0 0 1-.071.094 1.707 1.707 0 0 1-.024-.637.553.553 0 0 0-.06-.342c-.055-.102-.02-.2.108-.295.08.048.15.095.214.142.064.047.127.086.191.118.032-.079.064-.146.095-.2l.143-.248c.112.251.243.456.394.613.15.157.218.37.202.637-.016.22.024.452.12.696.095.243.19.475.285.696.08.251.175.495.286.73.112.237.23.473.358.708a.16.16 0 0 0 .048.118c.127.173.254.338.38.496.128.157.255.322.382.495l.25.39c.088.133.171.27.25.412a5.615 5.615 0 0 0 .335-.094 27.532 27.532 0 0 1 .715 1.32c.079.126.154.256.226.39.072.134.17.248.298.342.206.189.365.37.477.542.11.173.19.401.238.684a6.606 6.606 0 0 0-.215-.283c-.063-.078-.182-.094-.357-.047.048.095.095.173.143.236a.92.92 0 0 1 .12.212c.27.44.535.881.798 1.321.262.44.417.936.464 1.486.016.11.048.213.096.307.047.094.095.204.143.33.063-.047.119-.094.167-.141a.945.945 0 0 1 .143-.118c.079.11.162.212.25.306.087.095.179.205.274.33zm-.308-14.7c0-.264.03-.546.093-.844.062-.298.047-.629-.047-.993a2.661 2.661 0 0 0-.046 1.838zm-8.504 1.838a11.268 11.268 0 0 1-.386-.371 5.288 5.288 0 0 1-.34-.371c-.031 0 .146-.059.533-.177.064.165.129.318.193.46.065.14.13.27.194.388a.327.327 0 0 0-.194.07zm-.642 0a2.163 2.163 0 0 1-.163-.402c-.031-.115.007-.287.116-.517.016.192.028.354.035.488.008.134.012.278.012.43zm10.11.919v-.92h-.093c.015.19.023.354.023.496 0 .141.008.282.023.424h.047zm.437.918a1.29 1.29 0 0 1 .197-.348c.074-.087.154-.203.242-.347a1.393 1.393 0 0 0-.483-.218c-.147-.029-.293.058-.44.261h.352c.03.145.044.26.044.348 0 .087.03.188.088.304zm-10.599.919h-.07v-.919h.07v.919zm2.733 0a1.88 1.88 0 0 0-.46-.387 2.737 2.737 0 0 1-.462-.338.592.592 0 0 1 .142-.073.317.317 0 0 0 .142-.12c.189.16.343.298.461.41.118.113.177.282.177.508zm.923.12c-.4.031-.663.016-.788-.046-.126-.062-.163-.132-.113-.21.2.047.5.132.901.256zm-3.597 3.555h-.14a4.017 4.017 0 0 1-.024-.423c0-.135-.008-.3-.023-.496.124.172.179.33.163.478-.015.147-.008.294.024.44zm-1.144.123c.047-.031.101-.062.163-.093a.541.541 0 0 1 .094-.14c-.187-.047-.273.031-.257.233zM68.575 15.4h-.093v-.434c0-.153-.008-.314-.024-.484h.094c0 .17.004.323.011.459.008.136.012.29.012.46zm-9.522 3.675c.031-.782.063-1.544.094-2.284.032-.74.08-1.51.142-2.31-.094.117-.173.213-.236.288a5.912 5.912 0 0 0-.19.237.802.802 0 0 1-.118-.325c-.016-.116-.181-.175-.497-.175 0 .233-.016.47-.047.712a1.95 1.95 0 0 0 .047.736c.063.283.055.545-.024.787a3.862 3.862 0 0 1-.354.761c-.127.133-.213.27-.26.412a3.707 3.707 0 0 1-.166.412l.003.002.139.073c.094-.017.189-.03.284-.038.094-.008.173-.02.236-.037.126.05.197.12.213.212.016.092.032.175.047.25.016.075.071.141.166.2.095.058.268.087.52.087zm17.355-.919.062.056c.082.08.156.178.224.294.085.059.127.117.127.175a.976.976 0 0 1-.016.175c-.01.059-.026.131-.047.219a1.775 1.775 0 0 0-.398-.044c-.138 0-.292-.014-.461-.044.127-.145.265-.247.413-.306.149-.058.18-.233.096-.525zm3.149-13.78a2.38 2.38 0 0 1-.462-.295 2.967 2.967 0 0 0-.428-.296c0-.087.01-.153.033-.197a1.3 1.3 0 0 1 .412-.065c.143 0 .302-.022.478-.066v.427c0 .11-.011.273-.033.492zm-1.778.919c.301-.062.596-.13.882-.207.287-.076.597-.145.929-.206V4.7a31.297 31.297 0 0 1-.612-.184 3.956 3.956 0 0 0-.61-.137c-.514-.03-.71.275-.59.917zm4.224.918-.284-.367a2.093 2.093 0 0 0-.284-.306.493.493 0 0 0 .107-.123l.027-.04a.568.568 0 0 1 .08-.082c.094.122.2.224.318.306.119.081.249.163.39.245-.188.163-.307.286-.354.367zm2.991 2.756h-.132c-.123-.32-.237-.622-.342-.904-.106-.283-.211-.584-.317-.905.036 0 .07-.01.106-.028.14.207.277.424.408.65.132.226.269.452.41.679l-.015.068a1.623 1.623 0 0 1-.052.186c-.026.075-.048.16-.066.254zm-10.882.919c-.078-.18-.117-.306-.117-.378 0-.072.023-.252.07-.54 0 .18.004.333.012.459.007.126.019.279.035.459zm10.874 0a1.04 1.04 0 0 1 .117-.16c.046-.053.1-.12.163-.2a2.163 2.163 0 0 1-.082-.26 8.017 8.017 0 0 0-.081-.299c0 .027-.008.04-.024.04h-.046a6.66 6.66 0 0 0-.035.42c-.008.146-.012.3-.012.459zm-11.82 0c-.016 0-.032-.009-.047-.027l-.016-.015a.05.05 0 0 0-.031-.012c0-.144.004-.288.012-.432.007-.144.011-.289.011-.433h.094a4.023 4.023 0 0 0-.024.433v.486zm11.878 0c.11-.056.164-.097.164-.125a13.887 13.887 0 0 1-.047-.376l-.047-.418h-.046c0 .167-.004.327-.012.48-.008.154-.012.3-.012.439zm-11.838 3.675c-.14-.364-.183-.695-.128-.993.054-.298.097-.58.128-.845v1.838zm9.022 1.837c.155-.204.24-.347.256-.429.016-.081-.015-.245-.093-.49a3.054 3.054 0 0 0-.07.368 9.895 9.895 0 0 1-.093.551zm.083.14c.031-.031.062-.066.094-.105a1.83 1.83 0 0 0 .093-.128c-.031 0-.047-.015-.047-.046a1.835 1.835 0 0 0-.233.186.14.14 0 0 0 .093.093zm-5.491 1.682a6.58 6.58 0 0 0 1.978-.16 8.51 8.51 0 0 0 1.856-.683c.244-.106.504-.235.781-.387a.191.191 0 0 1-.024-.09 1.39 1.39 0 0 0-.183.01 4.152 4.152 0 0 0-.208.035.824.824 0 0 0 .183-.24c.04-.083.037-.185-.012-.307a5.874 5.874 0 0 0-.305.217 6.794 6.794 0 0 1-2.027 1.002c-.594.174-1.242.155-1.942-.058a3.066 3.066 0 0 0-.44-.102c-.146-.023-.3-.05-.463-.08v.387l-.513-.045-.488-.046c-.05.152-.05.247 0 .285a.706.706 0 0 0 .22.102c.276.03.545.061.805.092.26.03.521.053.782.068zm-2.767-.903c-.253-.217-.56-.498-.923-.845.47-.086.742-.097.815-.032.072.065.108.357.108.877zm1.753 2.737c.287.055.626-.009 1.015-.19a51.435 51.435 0 0 0-1.784-.71 1.433 1.433 0 0 0-.061.382c.266.29.543.464.83.518zm6.176-4.46a3.055 3.055 0 0 0-.195.23l-.352.46.264.085c.058.02.117.03.176.03.175-.04.336-.116.483-.23l-.264-.69-.112.115zm.376-1.033-.136.049c-.257.1-.437.216-.538.348a1.373 1.373 0 0 0-.249.522c.142-.168.296-.32.462-.46.165-.139.319-.292.46-.46zm-6.043 4.744-.024-.013a1.322 1.322 0 0 1-.09-.057.147.147 0 0 0-.136-.023 2.768 2.768 0 0 1-.987-.081 4.065 4.065 0 0 1-.92-.385.8.8 0 0 1-.363-.419c-.06-.17-.03-.35.09-.536a.364.364 0 0 0 .046-.14.652.652 0 0 0-.022-.14l-.091-1.117c-.03-.373-.046-.746-.046-1.118.016-.28.046-.56.091-.839.046-.28.099-.559.16-.838.03-.14.056-.28.079-.42.022-.14.034-.279.034-.419a1.175 1.175 0 0 1-.012-.43c.023-.148.042-.292.057-.432.015-.062.027-.124.034-.186a.237.237 0 0 0-.034-.163.565.565 0 0 1-.08-.396c.023-.14.035-.272.035-.396.015-.155.026-.307.034-.454.007-.148.019-.291.034-.431a.5.5 0 0 0 .068-.384.824.824 0 0 1 0-.385.594.594 0 0 0-.227-.046.594.594 0 0 1-.227-.047c-.03-.31-.05-.621-.057-.932-.008-.31-.019-.628-.034-.955a5.674 5.674 0 0 1-.023-.5c0-.163-.015-.33-.045-.501-.046-.31.007-.59.159-.839.06-.124.113-.252.159-.384a.672.672 0 0 0 .022-.384 1.074 1.074 0 0 0-.215-.024c-.068 0-.118-.015-.148-.046a.521.521 0 0 1-.068-.175 1.467 1.467 0 0 0-.068-.221.302.302 0 0 0-.204-.023c-.076.015-.114-.047-.114-.187 0-.015-.026-.039-.08-.07a.275.275 0 0 0-.124-.046 4.234 4.234 0 0 0-.432-.023c-.136 0-.287-.008-.454-.024.03.124.053.23.068.315.016.085.038.167.069.244-.061.031-.11.058-.148.082a.62.62 0 0 1-.125.058l.09.373c.031.124.031.24 0 .349-.03.17-.022.357.024.56.03.123.045.236.045.337 0 .1-.06.182-.182.244.121.575.212 1.146.273 1.712.06.567.076 1.138.045 1.712v.373a.577.577 0 0 1-.159.373c-.045.03-.072.089-.08.174a.871.871 0 0 0 .012.245c.03.217.046.427.046.629s-.038.404-.114.605a.724.724 0 0 0-.023.21 2.6 2.6 0 0 1 .114 1.013c-.03.334-.053.672-.068 1.013v.28c0 .093.022.179.068.256.09.249.14.462.147.64a1.25 1.25 0 0 1-.147.595 1.292 1.292 0 0 1-.068-.245c-.015-.085-.091-.136-.227-.151a.838.838 0 0 0-.023.233v.687c0 .24.015.477.045.71.03.171.03.319 0 .443s-.113.248-.25.372c-.196.187-.272.435-.226.746.015.155.045.303.09.442h.318l.08.338.018.078.061.26a.991.991 0 0 0 .352-.117c.114-.062.223-.023.33.117.06.108.132.17.215.186.083.016.178.023.284.023.076 0 .147.008.216.024a.353.353 0 0 1 .193.14c.03.03.068.054.113.07l.136.046c.212.047.42.09.625.128l.205.04c.138.028.278.057.419.088.09.016.174.05.25.105.075.054.159.105.25.151.302.016.616.012.942-.011.325-.024.647-.05.965-.082.469-.03.911-.128 1.328-.291.416-.163.836-.33 1.26-.5.166-.063.333-.152.5-.269.166-.116.332-.229.499-.337.075-.047.147-.101.215-.163a.735.735 0 0 1 .216-.14c.136-.078.265-.163.386-.256.121-.094.22-.218.295-.373a.704.704 0 0 1 .227-.221c.106-.07.205-.097.295-.082.167.016.284-.015.352-.093s.133-.163.193-.256c.258-.404.511-.804.76-1.2.25-.396.489-.803.716-1.223.06-.093.114-.198.159-.314a.735.735 0 0 0 .045-.361 1.15 1.15 0 0 1 .012-.361c.022-.117.041-.237.056-.361.03-.171.065-.338.103-.5a3.63 3.63 0 0 0 .08-.502c.03-.295.052-.582.067-.862.015-.279-.06-.55-.227-.815h.023v-.023a.96.96 0 0 1-.068-.536c.03-.17.075-.341.136-.512a.577.577 0 0 1-.17-.233c-.038-.093-.118-.132-.239-.117-.03.016-.06 0-.09-.046a.92.92 0 0 0-.114-.14c.06-.264.026-.516-.102-.757a3.854 3.854 0 0 1-.307-.757c.091.031.17.062.239.093.068.031.155.062.26.093a.88.88 0 0 1-.09-.198 3.73 3.73 0 0 0-.045-.151 9.865 9.865 0 0 0-1.953-2.376 3.755 3.755 0 0 0-.409-.326 2.547 2.547 0 0 1-.386-.326c-.348-.28-.703-.563-1.067-.85a4.167 4.167 0 0 0-1.203-.664.491.491 0 0 0-.159-.023 1.83 1.83 0 0 1-.25-.024l.182.222c.045.054.09.112.136.174h-.136l-.636-.093a2.906 2.906 0 0 0-.635-.023 2.64 2.64 0 0 1-.659-.082 1.965 1.965 0 0 0-.635-.058 3.508 3.508 0 0 1-.398.024c-.128 0-.253.007-.374.023-.121 0-.212.03-.273.093-.106.155-.227.24-.363.256a1.19 1.19 0 0 1-.454-.046c-.197-.047-.303.038-.318.256-.03.636-.064 1.27-.102 1.898a14.962 14.962 0 0 1-.239 1.898l.046.187a6.143 6.143 0 0 0 .204-.466.708.708 0 0 1 .068.314c0 .117.091.175.273.175V5.613c.015-.28.075-.54.181-.78s.31-.4.613-.478l.205.28c.106-.031.204-.058.295-.082.09-.023.181-.05.272-.081a1.18 1.18 0 0 1 .25-.07.358.358 0 0 1 .227.023c.106.062.204.09.295.082.091-.008.19-.02.295-.035.091-.016.186-.027.284-.035.099-.008.193-.004.284.011a.899.899 0 0 1 .227.14c.076.062.166.132.272.21.258.03.53.07.818.116.287.047.545.202.772.466a.462.462 0 0 1 .374.233c.084.14.186.248.307.326.212.14.412.291.601.454l.58.501c.15.155.295.322.43.5.137.18.266.362.387.548.03.062.053.14.068.233.015.093 0 .163-.046.21-.075.124-.102.229-.079.314l.08.291c.105.342.181.68.226 1.014.046.333.03.687-.045 1.06a.607.607 0 0 0-.034.267c.008.101.011.198.011.291 0 .094.008.183.023.268a.446.446 0 0 1-.023.245l-.352.908c-.113.295-.223.598-.329.909l.024.02c.044.04.062.08.056.12a.502.502 0 0 1-.046.14 1.73 1.73 0 0 0-.056.127c-.016.04 0 .082.045.128.045-.03.087-.062.125-.093a.834.834 0 0 1 .147-.093.793.793 0 0 1-.386.582c0 .187-.041.354-.124.501a1.968 1.968 0 0 1-.307.408c-.242.248-.5.466-.772.652a9.375 9.375 0 0 1-1.226.78c-.424.225-.87.423-1.34.594v.21c-.09.015-.177.027-.26.035a.408.408 0 0 0-.216.081c-.03.031-.068.035-.114.012a.497.497 0 0 0-.125-.047.084.084 0 0 0-.09.035c-.023.031-.034.101-.034.21-.152-.264-.326-.31-.523-.14-.06.047-.136.09-.227.128-.09.04-.189.027-.295-.035zm20.824 1.687v-.303c.12 0 .212-.031.28-.093a.694.694 0 0 0 .156-.21c.037-.078.074-.163.111-.257a.716.716 0 0 1 .145-.233.847.847 0 0 0 .213-.536 1.571 1.571 0 0 0-.1-.606 1.414 1.414 0 0 1-.224-.07 3.58 3.58 0 0 0 .033-.28c.008-.092.026-.186.056-.279-.164.016-.264.074-.301.175l-.1.268a2.71 2.71 0 0 1-.202.035c-.06.008-.111.012-.156.012l-.112.058c-.044.023-.082.027-.111.012a8.6 8.6 0 0 0-.324-.07.535.535 0 0 0-.39.047l-.224.116a.78.78 0 0 1-.29.035.585.585 0 0 1-.29-.128 2.311 2.311 0 0 0-.604-.338 3.025 3.025 0 0 0-.692-.175 1.382 1.382 0 0 0-.436-.023 4.204 4.204 0 0 1-.457.023 1.77 1.77 0 0 0-.023.28c0 .093-.007.194-.022.302h-.179a.993.993 0 0 1-.2-.023.578.578 0 0 1 .1-.151l.123-.129a1.445 1.445 0 0 1-.157-.093.267.267 0 0 0-.156-.046 8.569 8.569 0 0 0-.915.046c-.12.016-.231.024-.335.024a1.09 1.09 0 0 0-.313.046.39.39 0 0 1-.313-.035c-.089-.054-.193-.043-.312.035 0-.202.01-.392.033-.57a1.024 1.024 0 0 0-.056-.502.872.872 0 0 1-.089-.466 1.83 1.83 0 0 0-.022-.49c-.015-.17 0-.357.044-.559.075-.357.15-.718.224-1.083l.074-.364.149-.72c0-.016.004-.023.011-.023.008 0 .011-.008.011-.024a2.497 2.497 0 0 1-.089-.815c.015-.28.022-.567.022-.863a.85.85 0 0 0 .179-.07c.06-.03.127-.062.2-.093.03.156.038.233.023.233-.089.031-.13.07-.123.117a.268.268 0 0 0 .079.14c.044.046.096.09.156.128.06.039.112.074.156.105.194.093.384.151.57.175.186.023.383-.004.591-.082a.852.852 0 0 1-.022-.233c.12.015.242.027.369.035a.856.856 0 0 0 .368-.058c.447-.202.878-.257 1.295-.163.223-.28.339-.575.346-.886a1.108 1.108 0 0 0-.279-.792c-.119.015-.23.019-.335.011a1.025 1.025 0 0 0-.335.035c-.193.031-.38.09-.558.175a9.461 9.461 0 0 1-.558.245l-.067-.175a.312.312 0 0 0-.067-.105h-1.34a.206.206 0 0 0-.056.105.376.376 0 0 1-.056.128.533.533 0 0 1-.2-.023 4.882 4.882 0 0 1-.157-1.375c.015-.45.052-.925.112-1.422a1.706 1.706 0 0 1-.213-.058.289.289 0 0 0-.212.012.445.445 0 0 0-.122.14c-.038.062-.071.124-.101.186a46.32 46.32 0 0 0-.045-.361 1.466 1.466 0 0 1 0-.362l.045-.35c.015-.108.037-.224.067-.349a.37.37 0 0 1 .156.21c.03.093.12.093.268 0V4.426a35.597 35.597 0 0 1 1.742-.14c0-.077.004-.147.011-.21a3.06 3.06 0 0 1 .034-.21h.424a2.35 2.35 0 0 0-.19.176c-.052.054-.04.143.034.268h.223c.074 0 .156-.008.246-.024.134 0 .264-.007.39-.023.127-.016.257-.023.391-.023.209.015.41.03.603.046.194.016.387.024.58.024.06 0 .112.004.157.011a.118.118 0 0 0 .112-.035c.074-.124.163-.182.268-.174.104.007.216-.004.335-.035a.898.898 0 0 0 .033-.152.443.443 0 0 1 .034-.128c.06-.031.122-.058.19-.082.066-.023.107-.058.122-.105a.68.68 0 0 0 .045-.477 1.01 1.01 0 0 0-.246-.408l-.469.14a3.252 3.252 0 0 0-.156-.327 9.278 9.278 0 0 0-.447.105.877.877 0 0 1-.424.012 1.248 1.248 0 0 0-.446-.012c-.134.024-.283.05-.447.082-.12.031-.242.047-.369.047-.126 0-.22-.07-.279-.21a8.46 8.46 0 0 1-1.931.28c-.633.015-1.262.054-1.887.116-.015.14-.026.276-.034.408a6.14 6.14 0 0 1-.033.384c-.12.047-.22.082-.302.105-.082.023-.167.05-.256.082.014.14.037.264.067.373a.555.555 0 0 1-.157.058.197.197 0 0 0-.111.058c.03.124.048.249.055.373.008.124.019.249.034.373a.445.445 0 0 1 0 .198.445.445 0 0 0 0 .198c.03.109.056.214.078.315.022.1-.033.206-.167.314-.015 0-.019.024-.012.07a6.383 6.383 0 0 1 .212 1.631c0 .498.015 1.003.045 1.515.03.233.004.463-.078.688a1.522 1.522 0 0 0-.078.71c.015.172.007.35-.022.537-.03.186-.053.373-.067.559a.903.903 0 0 1-.168.023.603.603 0 0 0-.145.024c.03.124.045.202.045.233a1.198 1.198 0 0 1 .312-.117v.956a.215.215 0 0 1-.033.104c-.023.04-.041.059-.056.059-.12-.031-.186-.004-.201.081a1.427 1.427 0 0 0-.022.245c-.03.31-.03.637 0 .979 0 .45-.023.897-.067 1.34a5.21 5.21 0 0 1-.313 1.317 1.77 1.77 0 0 0-.112.466c-.015.155-.037.31-.067.466 0 .015.03.054.09.116.03-.03.063-.062.1-.093l.036-.031c.023-.02.045-.042.065-.062.015.155.026.318.033.49.008.17.026.357.056.558.06-.03.115-.034.167-.011.053.023.1.046.146.07a.457.457 0 0 0 .145.046c.052.008.108-.02.167-.081v-.56c0-.046.008-.077.023-.093.193-.14.282-.303.268-.49a3.508 3.508 0 0 1 0-.558l-.045-.094a1.636 1.636 0 0 1-.179.35 7.566 7.566 0 0 1-.022-1.002 21.605 21.605 0 0 1 .112-1.422.959.959 0 0 0-.045-.42.98.98 0 0 0-.112-.267c-.044-.07.015-.144.179-.222l.045-.163c.03-.31.063-.606.1-.885.037-.28.07-.575.1-.886h.09a11.848 11.848 0 0 0-.045 1.025c-.03.358-.063.711-.1 1.06-.038.35-.034.704.01 1.061.03.171.05.338.057.501.007.163.018.33.033.501 0 .062-.007.132-.022.21-.015.078-.008.14.022.186a1.23 1.23 0 0 1-.022 1.05.49.49 0 0 0-.1.267 1.258 1.258 0 0 1-.056.291c-.03.202.03.288.178.257.12-.031.179-.012.179.058s.015.12.044.152c.12-.031.216-.047.29-.047.045 0 .09.008.135.023.044.016.097.04.156.07.238.497.625.645 1.161.443a1.178 1.178 0 0 1-.022-.221c0-.07-.008-.152-.022-.245a.807.807 0 0 0 .402-.058c.134-.055.26-.012.38.128a.233.233 0 0 1-.135.046.497.497 0 0 0-.178.047c.401.31.815.49 1.239.536.424.047.852.031 1.284-.047a.886.886 0 0 0 .033-.163 3.06 3.06 0 0 1 .034-.21c.104.063.193.113.268.152.074.039.134.074.178.105.12-.016.205-.031.257-.047a.671.671 0 0 1 .19-.023c.03 0 .067.016.112.047.044.03.09.046.134.046.283-.03.554-.023.815.024.26.046.495.178.703.396h.134zM89.872 4.376a5.636 5.636 0 0 1-.132-.778 8.46 8.46 0 0 0 .505-.07c.132-.024.271-.047.418-.07-.264.07-.447.188-.55.353a2.147 2.147 0 0 0-.241.565zm.81 5.508a3.322 3.322 0 0 1-.867-.067 1.27 1.27 0 0 1-.075-.402c0-.119.1-.208.301-.267a.478.478 0 0 0 .207-.045c.063-.03.132-.074.207-.134v.045c.176.06.352.141.528.245.175.104.376.216.602.335a1.955 1.955 0 0 1-.904.29zm1.491 1.841c0-.202-.01-.376-.033-.52a4.475 4.475 0 0 0-.656.347 2.665 2.665 0 0 0-.395-.217 8.576 8.576 0 0 0-.426-.174c.634-.405 1.247-.463 1.839-.173.021.173-.011.31-.099.412-.088.101-.164.21-.23.325zm-1.328 4.594c.152-.127.285-.246.399-.356a6.02 6.02 0 0 1 .341-.31c-.038-.031-.057-.063-.057-.094a.324.324 0 0 0-.057-.143.626.626 0 0 1-.341 0c-.114-.032-.21-.016-.285.048a1.677 1.677 0 0 0-.171.38c-.038.126.019.285.17.475zm13.245 1.837.063.056c.081.08.156.178.224.294.084.059.127.117.127.175a.976.976 0 0 1-.016.175 3.99 3.99 0 0 1-.048.219 1.775 1.775 0 0 0-.398-.044c-.137 0-.291-.014-.46-.044.126-.145.264-.247.413-.306.148-.058.18-.233.095-.525zm3.15-13.78a2.38 2.38 0 0 1-.462-.295 2.967 2.967 0 0 0-.429-.296c0-.087.011-.153.033-.197a1.3 1.3 0 0 1 .412-.065c.143 0 .302-.022.478-.066v.427c0 .11-.01.273-.033.492zm-2.702.919c.302-.062.596-.13.883-.207.287-.076.596-.145.928-.206V4.7a31.296 31.296 0 0 1-.61-.184 3.956 3.956 0 0 0-.612-.137c-.513-.03-.71.275-.589.917zm5.147.918-.284-.367a2.093 2.093 0 0 0-.283-.306.493.493 0 0 0 .106-.123l.028-.04a.568.568 0 0 1 .078-.082c.095.122.202.224.32.306.118.081.248.163.39.245-.189.163-.307.286-.355.367zm2.069 2.756h-.132c-.123-.32-.237-.622-.343-.904-.105-.283-.21-.584-.316-.905.035 0 .07-.01.105-.028.141.207.277.424.41.65.131.226.267.452.408.679l-.014.068a1.623 1.623 0 0 1-.052.186c-.026.075-.048.16-.066.254zm-9.96.919c-.078-.18-.117-.306-.117-.378 0-.072.024-.252.07-.54 0 .18.004.333.012.459s.02.279.035.459zm10.874 0a1.04 1.04 0 0 1 .117-.16c.047-.053.101-.12.164-.2a2.163 2.163 0 0 1-.082-.26 8.018 8.018 0 0 0-.082-.299c0 .027-.008.04-.023.04h-.047a6.66 6.66 0 0 0-.035.42c-.008.146-.012.3-.012.459zm-11.82 0c-.016 0-.031-.009-.047-.027l-.015-.015a.05.05 0 0 0-.032-.012c0-.144.004-.288.012-.432.008-.144.012-.289.012-.433h.093a4.023 4.023 0 0 0-.023.433v.486zm11.879 0c.109-.056.163-.097.163-.125a13.887 13.887 0 0 1-.046-.376l-.047-.418h-.047c0 .167-.004.327-.012.48-.007.154-.011.3-.011.439zm-12.761 3.675c-.14-.364-.183-.695-.129-.993.055-.298.098-.58.129-.845v1.838zm8.098 1.837c.156-.204.242-.347.257-.429.016-.081-.015-.245-.093-.49a3.054 3.054 0 0 0-.07.368 9.896 9.896 0 0 1-.094.551zm.084.14a1.83 1.83 0 0 0 .187-.233c-.031 0-.047-.015-.047-.046a1.835 1.835 0 0 0-.233.186.14.14 0 0 0 .093.093zm-4.569 1.682a6.58 6.58 0 0 0 1.978-.16 8.51 8.51 0 0 0 1.856-.683c.245-.106.505-.235.782-.387a.191.191 0 0 1-.025-.09 1.39 1.39 0 0 0-.183.01 4.152 4.152 0 0 0-.207.035.824.824 0 0 0 .183-.24c.04-.083.036-.185-.012-.307a5.874 5.874 0 0 0-.306.217 6.794 6.794 0 0 1-2.027 1.002c-.594.174-1.241.155-1.941-.058a3.066 3.066 0 0 0-.44-.102c-.146-.023-.3-.05-.464-.08v.387l-.512-.045-.489-.046c-.049.152-.049.247 0 .285a.706.706 0 0 0 .22.102c.277.03.545.061.806.092.26.03.52.053.781.068zm-3.689-.903c-.253-.217-.56-.498-.923-.845.47-.086.742-.097.815-.032.072.065.108.357.108.877zm3.599 2.737c.287.055.625-.009 1.015-.19a51.435 51.435 0 0 0-1.784-.71 1.433 1.433 0 0 0-.062.382c.267.29.544.464.83.518zm6.175-4.46a3.055 3.055 0 0 0-.195.23l-.12.156-.231.303.263.086c.059.02.117.03.176.03.176-.04.337-.116.483-.23l-.263-.69-.113.115zm.376-1.033-.135.049c-.258.1-.438.216-.539.348a1.373 1.373 0 0 0-.248.522c.141-.168.295-.32.46-.46.167-.139.32-.292.462-.46zm-6.042 4.744-.025-.013a1.322 1.322 0 0 1-.089-.057.147.147 0 0 0-.136-.023 2.768 2.768 0 0 1-.988-.081 4.065 4.065 0 0 1-.92-.385.8.8 0 0 1-.363-.419c-.06-.17-.03-.35.091-.536a.364.364 0 0 0 .046-.14.652.652 0 0 0-.023-.14l-.09-1.117c-.031-.373-.046-.746-.046-1.118.015-.28.045-.56.09-.839.046-.28.099-.559.16-.838.03-.14.056-.28.079-.42.023-.14.034-.279.034-.419a1.175 1.175 0 0 1-.011-.43c.022-.148.041-.292.056-.432.016-.062.027-.124.035-.186a.237.237 0 0 0-.035-.163.565.565 0 0 1-.079-.396c.023-.14.034-.272.034-.396.015-.155.027-.307.034-.454.008-.148.019-.291.034-.431a.5.5 0 0 0 .068-.384.824.824 0 0 1 0-.385.594.594 0 0 0-.227-.046.594.594 0 0 1-.227-.047c-.03-.31-.049-.621-.057-.932-.007-.31-.018-.628-.034-.955a5.674 5.674 0 0 1-.022-.5c0-.163-.015-.33-.046-.501-.045-.31.008-.59.16-.839.06-.124.113-.252.158-.384a.672.672 0 0 0 .023-.384 1.074 1.074 0 0 0-.216-.024c-.068 0-.117-.015-.147-.046a.521.521 0 0 1-.069-.175 1.467 1.467 0 0 0-.068-.221.302.302 0 0 0-.204-.023c-.076.015-.114-.047-.114-.187 0-.015-.026-.039-.079-.07a.275.275 0 0 0-.125-.046 4.234 4.234 0 0 0-.431-.023c-.136 0-.288-.008-.454-.024.03.124.053.23.068.315.015.085.038.167.068.244-.06.031-.11.058-.148.082a.62.62 0 0 1-.125.058l.091.373c.03.124.03.24 0 .349-.03.17-.022.357.023.56.03.123.045.236.045.337 0 .1-.06.182-.181.244.12.575.212 1.146.272 1.712.06.567.076 1.138.046 1.712v.373a.577.577 0 0 1-.16.373c-.045.03-.071.089-.079.174a.871.871 0 0 0 .012.245c.03.217.045.427.045.629s-.038.404-.114.605a.724.724 0 0 0-.022.21 2.6 2.6 0 0 1 .113 1.013c-.03.334-.053.672-.068 1.013v.28c0 .093.023.179.068.256.091.249.14.462.148.64a1.25 1.25 0 0 1-.148.595 1.292 1.292 0 0 1-.068-.245c-.015-.085-.09-.136-.227-.151a.838.838 0 0 0-.023.233v.687c0 .24.016.477.046.71.03.171.03.319 0 .443s-.114.248-.25.372c-.197.187-.272.435-.227.746.015.155.045.303.09.442h.319l.08.338.017.078c.018.08.039.167.062.26a.991.991 0 0 0 .352-.117c.113-.062.223-.023.329.117.06.108.132.17.215.186.084.016.178.023.284.023.076 0 .148.008.216.024a.353.353 0 0 1 .193.14c.03.03.068.054.113.07l.137.046c.212.047.42.09.624.128l.206.04c.138.028.277.057.418.088.091.016.174.05.25.105.076.054.159.105.25.151.303.016.617.012.942-.011.325-.024.647-.05.965-.082.47-.03.912-.128 1.328-.291.416-.163.836-.33 1.26-.5.167-.063.333-.152.5-.269.166-.116.333-.229.5-.337.075-.047.147-.101.215-.163a.735.735 0 0 1 .216-.14c.136-.078.264-.163.385-.256.122-.094.22-.218.296-.373a.704.704 0 0 1 .227-.221c.106-.07.204-.097.295-.082.166.016.284-.015.352-.093s.132-.163.193-.256l.76-1.2c.25-.396.488-.803.715-1.223.061-.093.114-.198.16-.314a.735.735 0 0 0 .045-.361 1.15 1.15 0 0 1 .011-.361c.023-.117.042-.237.057-.361.03-.171.064-.338.102-.5a3.63 3.63 0 0 0 .08-.502c.03-.295.052-.582.068-.862.015-.279-.06-.55-.227-.815h.022v-.023a.96.96 0 0 1-.068-.536c.03-.17.076-.341.136-.512a.577.577 0 0 1-.17-.233c-.038-.093-.117-.132-.238-.117-.03.016-.06 0-.091-.046a.92.92 0 0 0-.114-.14c.061-.264.027-.516-.102-.757a3.854 3.854 0 0 1-.306-.757c.09.031.17.062.238.093.068.031.155.062.261.093a.88.88 0 0 1-.09-.198 3.73 3.73 0 0 0-.046-.151 9.865 9.865 0 0 0-1.953-2.376 3.755 3.755 0 0 0-.408-.326 2.547 2.547 0 0 1-.386-.326c-.348-.28-.704-.563-1.067-.85a4.167 4.167 0 0 0-1.204-.664.491.491 0 0 0-.158-.023 1.83 1.83 0 0 1-.25-.024l.181.222c.046.054.091.112.137.174h-.137l-.635-.093a2.906 2.906 0 0 0-.636-.023 2.64 2.64 0 0 1-.658-.082 1.965 1.965 0 0 0-.636-.058 3.508 3.508 0 0 1-.397.024c-.129 0-.254.007-.375.023-.121 0-.212.03-.272.093-.106.155-.227.24-.364.256a1.19 1.19 0 0 1-.454-.046c-.197-.047-.302.038-.318.256-.03.636-.064 1.27-.102 1.898a14.962 14.962 0 0 1-.238 1.898l.045.187a6.142 6.142 0 0 0 .205-.466.708.708 0 0 1 .068.314c0 .117.09.175.272.175V5.613c.015-.28.076-.54.182-.78s.31-.4.613-.478l.204.28c.106-.031.204-.058.295-.082.091-.023.182-.05.273-.081a1.18 1.18 0 0 1 .25-.07.358.358 0 0 1 .226.023c.106.062.205.09.296.082.09-.008.189-.02.295-.035.09-.016.185-.027.284-.035.098-.008.193-.004.283.011a.899.899 0 0 1 .227.14c.076.062.167.132.273.21.257.03.53.07.817.116.288.047.545.202.772.466a.462.462 0 0 1 .375.233c.083.14.185.248.306.326.212.14.413.291.602.454l.579.501c.151.155.295.322.431.5.136.18.265.362.386.548.03.062.053.14.068.233.015.093 0 .163-.045.21-.076.124-.102.229-.08.314l.08.291c.106.342.181.68.227 1.014.045.333.03.687-.046 1.06a.607.607 0 0 0-.034.267c.008.101.012.198.012.291 0 .094.007.183.022.268a.446.446 0 0 1-.022.245c-.121.31-.239.613-.352.908-.114.295-.223.598-.33.909l.024.02c.044.04.063.08.056.12a.502.502 0 0 1-.045.14 1.73 1.73 0 0 0-.057.127c-.015.04 0 .082.045.128.046-.03.087-.062.125-.093a.834.834 0 0 1 .148-.093.793.793 0 0 1-.386.582c0 .187-.042.354-.125.501a1.968 1.968 0 0 1-.307.408c-.242.248-.499.466-.771.652a9.375 9.375 0 0 1-1.226.78c-.424.225-.87.423-1.34.594v.21c-.09.015-.178.027-.261.035a.408.408 0 0 0-.216.081c-.03.031-.068.035-.113.012a.497.497 0 0 0-.125-.047.084.084 0 0 0-.091.035c-.023.031-.034.101-.034.21-.151-.264-.325-.31-.522-.14-.06.047-.136.09-.227.128-.091.04-.19.027-.295-.035z" fill="#000C19" fill-rule="nonzero"/>
    </g>
</svg>
