<svg xmlns="http://www.w3.org/2000/svg" width="110" height="13" viewBox="0 0 110 13">
    <g fill="none" fill-rule="evenodd">
        <g fill="#FFF" fill-rule="nonzero">
            <path d="M945.072 45c.117 0 .213-.037.288-.112.075-.075.112-.165.112-.272v-3.952h4.8c.117 0 .213-.037.288-.112.075-.075.112-.165.112-.272v-1.152c0-.107-.037-.197-.112-.272-.075-.075-.17-.112-.288-.112h-4.8v-3.008h5.12c.117 0 .213-.037.288-.112.075-.075.112-.165.112-.272V34.2c0-.117-.037-.213-.112-.288-.075-.075-.17-.112-.288-.112h-6.96c-.117 0-.21.037-.28.112-.07.075-.104.17-.104.288v10.416c0 .107.037.197.112.272.075.075.165.112.272.112h1.44zm10.033 0c.118 0 .214-.037.288-.112.075-.075.112-.165.112-.272v-3.84h2.192l2.048 3.792c.075.128.16.232.256.312.096.08.23.12.4.12h1.472c.086 0 .163-.032.232-.096.07-.064.104-.144.104-.24 0-.053-.016-.112-.048-.176l-2.32-4.08c.672-.235 1.195-.616 1.568-1.144.374-.528.56-1.181.56-1.96 0-1.12-.37-1.984-1.112-2.592-.741-.608-1.768-.912-3.08-.912h-4.144c-.117 0-.21.037-.28.112-.07.075-.104.17-.104.288v10.416c0 .107.038.197.112.272.075.075.166.112.272.112h1.472zm2.624-6.048h-2.224v-3.36h2.224c.64 0 1.12.147 1.44.44.32.293.48.712.48 1.256s-.16.957-.48 1.24c-.32.283-.8.424-1.44.424zM971.97 45c.118 0 .214-.035.288-.104.075-.07.112-.163.112-.28v-1.088c0-.117-.037-.21-.112-.28-.074-.07-.17-.104-.288-.104h-5.376v-2.896h4.896c.118 0 .214-.035.288-.104.075-.07.112-.163.112-.28v-1.008c0-.117-.037-.213-.112-.288-.074-.075-.17-.112-.288-.112h-4.896v-2.8h5.248c.118 0 .214-.035.288-.104.075-.07.112-.163.112-.28V34.2c0-.117-.037-.213-.112-.288-.074-.075-.17-.112-.288-.112h-7.056c-.117 0-.21.037-.28.112-.069.075-.104.17-.104.288v10.416c0 .107.038.197.112.272.075.075.166.112.272.112h7.184zm10.338 0c.117 0 .213-.035.288-.104.074-.07.112-.163.112-.28v-1.088c0-.117-.038-.21-.112-.28-.075-.07-.171-.104-.288-.104h-5.376v-2.896h4.896c.117 0 .213-.035.288-.104.074-.07.112-.163.112-.28v-1.008c0-.117-.038-.213-.112-.288-.075-.075-.171-.112-.288-.112h-4.896v-2.8h5.248c.117 0 .213-.035.288-.104.074-.07.112-.163.112-.28V34.2c0-.117-.038-.213-.112-.288-.075-.075-.171-.112-.288-.112h-7.056c-.118 0-.211.037-.28.112-.07.075-.104.17-.104.288v10.416c0 .107.037.197.112.272.074.075.165.112.272.112h7.184zm7.106 0c.224 0 .379-.101.464-.304l.736-1.936h4.736l.736 1.936c.085.203.24.304.464.304h1.424c.085 0 .163-.032.232-.096.07-.064.104-.144.104-.24l-.032-.144-3.84-10.32c-.107-.267-.299-.4-.576-.4h-1.76c-.277 0-.47.133-.576.4l-3.84 10.32-.032.144c0 .096.032.176.096.24s.144.096.24.096h1.424zm5.376-4.096h-3.616l1.808-4.928 1.808 4.928zm9.457 4.256c.95 0 1.776-.163 2.48-.488.704-.325 1.251-.77 1.64-1.336.39-.565.595-1.2.616-1.904.011-.096-.018-.176-.088-.24-.069-.064-.152-.096-.248-.096h-1.552c-.128 0-.224.03-.288.088-.064.059-.117.163-.16.312-.16.661-.44 1.128-.84 1.4-.4.272-.92.408-1.56.408-1.525 0-2.32-.853-2.384-2.56-.01-.31-.016-.763-.016-1.36v-.217c.002-.489.007-.859.016-1.111.064-1.707.859-2.56 2.384-2.56.651 0 1.174.136 1.568.408.395.272.672.739.832 1.4.043.15.096.253.16.312s.16.088.288.088h1.552c.086 0 .163-.03.232-.088.07-.059.104-.13.104-.216v-.032c-.02-.704-.226-1.339-.616-1.904-.389-.565-.936-1.01-1.64-1.336-.704-.325-1.53-.488-2.48-.488-1.46 0-2.597.381-3.408 1.144-.81.763-1.242 1.827-1.296 3.192-.01.299-.016.779-.016 1.44v.236c.002.53.007.92.016 1.172.054 1.387.483 2.456 1.288 3.208.806.752 1.944 1.128 3.416 1.128zm11.33 0c.949 0 1.776-.163 2.48-.488.704-.325 1.25-.77 1.64-1.336.389-.565.594-1.2.616-1.904.01-.096-.019-.176-.088-.24-.07-.064-.152-.096-.248-.096h-1.552c-.128 0-.224.03-.288.088-.064.059-.118.163-.16.312-.16.661-.44 1.128-.84 1.4-.4.272-.92.408-1.56.408-1.526 0-2.32-.853-2.384-2.56-.011-.31-.016-.763-.016-1.36v-.217c.001-.489.006-.859.016-1.111.064-1.707.858-2.56 2.384-2.56.65 0 1.173.136 1.568.408.394.272.672.739.832 1.4.042.15.096.253.16.312s.16.088.288.088h1.552c.085 0 .162-.03.232-.088.069-.059.104-.13.104-.216v-.032c-.022-.704-.227-1.339-.616-1.904-.39-.565-.936-1.01-1.64-1.336-.704-.325-1.531-.488-2.48-.488-1.462 0-2.598.381-3.408 1.144-.811.763-1.243 1.827-1.296 3.192-.011.299-.016.779-.016 1.44v.236c.001.53.006.92.016 1.172.053 1.387.482 2.456 1.288 3.208.805.752 1.944 1.128 3.416 1.128zm14.577-.16c.117 0 .213-.035.288-.104.075-.07.112-.163.112-.28v-1.088c0-.117-.037-.21-.112-.28-.075-.07-.17-.104-.288-.104h-5.376v-2.896h4.896c.117 0 .213-.035.288-.104.075-.07.112-.163.112-.28v-1.008c0-.117-.037-.213-.112-.288-.075-.075-.17-.112-.288-.112h-4.896v-2.8h5.248c.117 0 .213-.035.288-.104.075-.07.112-.163.112-.28V34.2c0-.117-.037-.213-.112-.288-.075-.075-.17-.112-.288-.112h-7.056c-.117 0-.21.037-.28.112-.07.075-.104.17-.104.288v10.416c0 .107.037.197.112.272.075.075.165.112.272.112h7.184zm6.673.16c.907 0 1.704-.133 2.392-.4s1.221-.653 1.6-1.16c.379-.507.568-1.107.568-1.8 0-.63-.133-1.147-.4-1.552s-.68-.741-1.24-1.008c-.56-.267-1.315-.507-2.264-.72-.693-.181-1.221-.344-1.584-.488-.363-.144-.63-.312-.8-.504-.17-.192-.256-.432-.256-.72 0-.427.168-.752.504-.976.336-.224.797-.336 1.384-.336.533 0 .981.115 1.344.344.363.23.57.515.624.856.085.192.245.288.48.288h1.52c.096 0 .176-.035.24-.104.064-.07.096-.147.096-.232-.021-.459-.2-.92-.536-1.384-.336-.464-.827-.85-1.472-1.16-.645-.31-1.41-.464-2.296-.464-.843 0-1.581.139-2.216.416-.635.277-1.123.659-1.464 1.144-.341.485-.512 1.037-.512 1.656 0 .917.293 1.621.88 2.112.587.49 1.51.885 2.768 1.184.768.203 1.347.376 1.736.52.39.144.68.312.872.504.192.192.288.432.288.72 0 .437-.19.781-.568 1.032-.379.25-.941.376-1.688.376-.661 0-1.181-.123-1.56-.368s-.621-.55-.728-.912c-.064-.096-.133-.17-.208-.224-.075-.053-.17-.08-.288-.08h-1.456c-.096 0-.176.035-.24.104-.064.07-.096.147-.096.232.021.555.208 1.067.56 1.536.352.47.87.848 1.552 1.136.683.288 1.504.432 2.464.432zm10.657 0c.907 0 1.704-.133 2.392-.4s1.222-.653 1.6-1.16c.379-.507.568-1.107.568-1.8 0-.63-.133-1.147-.4-1.552-.266-.405-.68-.741-1.24-1.008-.56-.267-1.314-.507-2.264-.72-.693-.181-1.221-.344-1.584-.488-.362-.144-.629-.312-.8-.504-.17-.192-.256-.432-.256-.72 0-.427.168-.752.504-.976.336-.224.798-.336 1.384-.336.534 0 .982.115 1.344.344.363.23.571.515.624.856.086.192.246.288.48.288h1.52c.096 0 .176-.035.24-.104.064-.07.096-.147.096-.232-.021-.459-.2-.92-.536-1.384-.336-.464-.826-.85-1.472-1.16-.645-.31-1.41-.464-2.296-.464-.842 0-1.581.139-2.216.416-.634.277-1.122.659-1.464 1.144-.341.485-.512 1.037-.512 1.656 0 .917.294 1.621.88 2.112.587.49 1.51.885 2.768 1.184.768.203 1.347.376 1.736.52.39.144.68.312.872.504.192.192.288.432.288.72 0 .437-.189.781-.568 1.032-.378.25-.941.376-1.688.376-.661 0-1.181-.123-1.56-.368-.378-.245-.621-.55-.728-.912-.064-.096-.133-.17-.208-.224-.074-.053-.17-.08-.288-.08h-1.456c-.096 0-.176.035-.24.104-.064.07-.096.147-.096.232.022.555.208 1.067.56 1.536.352.47.87.848 1.552 1.136.683.288 1.504.432 2.464.432z" transform="translate(-943 -33)"/>
        </g>
    </g>
</svg>
