<svg xmlns="http://www.w3.org/2000/svg" width="104" height="30" viewBox="0 0 104 30">
    <g fill="none" fill-rule="evenodd">
        <g fill="#FFF" fill-rule="nonzero">
            <g>
                <path d="M28.22 28.268c.08 0 .146-.026.198-.078.052-.052.078-.118.078-.198v-.396c0-.072-.024-.134-.072-.186-.048-.052-.104-.078-.168-.078-.456-.008-.812-.162-1.068-.462-.256-.3-.44-.784-.552-1.452-.112-.668-.168-1.59-.168-2.766 0-1.168.056-2.086.168-2.754.112-.668.296-1.152.552-1.452.256-.3.612-.454 1.068-.462.064 0 .12-.026.168-.078.048-.052.072-.114.072-.186v-.396c0-.08-.026-.146-.078-.198-.052-.052-.118-.078-.198-.078-.688 0-1.234.194-1.638.582-.404.388-.694.988-.87 1.8-.176.812-.264 1.886-.264 3.222s.088 2.412.264 3.228c.176.816.466 1.418.87 1.806.404.388.95.582 1.638.582zm2.557-1.908c.08 0 .146-.026.198-.078.052-.052.078-.118.078-.198v-7.968c0-.08-.026-.146-.078-.198-.052-.052-.118-.078-.198-.078h-.528c-.08 0-.146.024-.198.072-.052.048-.078.116-.078.204v7.968c0 .08.026.146.078.198.052.052.118.078.198.078h.528zm3.24-7.416c.08 0 .149-.026.205-.078.056-.052.084-.118.084-.198v-.624c0-.08-.028-.148-.084-.204-.056-.056-.124-.084-.204-.084h-.708c-.08 0-.146.028-.198.084-.052.056-.078.124-.078.204v.624c0 .08.026.146.078.198.052.052.118.078.198.078h.708zm-.083 7.416c.08 0 .146-.026.198-.078.052-.052.078-.118.078-.198v-5.688c0-.08-.026-.146-.078-.198-.052-.052-.118-.078-.198-.078h-.528c-.08 0-.146.026-.198.078-.052.052-.078.118-.078.198v5.688c0 .08.026.146.078.198.052.052.118.078.198.078h.528zm5.569 0c.08 0 .144-.026.192-.078.048-.052.072-.118.072-.198v-.396c0-.08-.024-.146-.072-.198-.048-.052-.112-.078-.192-.078h-.732c-.32 0-.546-.104-.678-.312-.132-.208-.198-.516-.198-.924v-3.132h1.488c.08 0 .146-.024.198-.072.052-.048.078-.112.078-.192v-.384c0-.08-.026-.146-.078-.198-.052-.052-.118-.078-.198-.078h-1.488v-2.004c0-.08-.026-.146-.078-.198-.052-.052-.118-.078-.198-.078h-.528c-.08 0-.144.026-.192.078-.048.052-.072.118-.072.198v2.004h-.948c-.08 0-.144.026-.192.078-.048.052-.072.118-.072.198v.384c0 .08.024.144.072.192.048.048.112.072.192.072h.948v3.216c0 1.4.62 2.1 1.86 2.1h.816zm4.189.12c.512 0 .966-.09 1.362-.27.396-.18.702-.394.918-.642.216-.248.324-.46.324-.636 0-.064-.026-.116-.078-.156-.052-.04-.114-.06-.186-.06h-.528c-.096 0-.164.01-.204.03-.04.02-.096.078-.168.174-.12.16-.298.314-.534.462-.236.148-.542.222-.918.222-.488 0-.88-.184-1.176-.552-.296-.368-.456-.812-.48-1.332v-.108h4.164c.08 0 .146-.026.198-.078.052-.052.078-.118.078-.198v-.216c0-.96-.242-1.72-.726-2.28-.484-.56-1.166-.84-2.046-.84-.816 0-1.468.256-1.956.768s-.756 1.2-.804 2.064l-.012.396.012.408c.048.88.316 1.574.804 2.082.488.508 1.14.762 1.956.762zm1.68-3.684h-3.348v-.036c0-.56.148-1.016.444-1.368.296-.352.704-.528 1.224-.528.512 0 .92.176 1.224.528.304.352.456.808.456 1.368v.036zm3.649 3.564c.08 0 .148-.026.204-.078.056-.052.084-.118.084-.198v-3.54c0-.44.126-.788.378-1.044s.598-.384 1.038-.384h.684c.088 0 .156-.026.204-.078.048-.052.072-.118.072-.198v-.444c0-.088-.024-.156-.072-.204-.048-.048-.116-.072-.204-.072h-.468c-.784 0-1.34.272-1.668.816v-.528c0-.088-.026-.158-.078-.21-.052-.052-.122-.078-.21-.078h-.504c-.08 0-.146.028-.198.084-.052.056-.078.124-.078.204v5.676c0 .08.026.146.078.198.052.052.118.078.198.078h.54zm5.605.12c.528 0 .96-.088 1.296-.264.336-.176.592-.396.768-.66v.528c0 .08.024.146.072.198.048.052.112.078.192.078h.528c.08 0 .146-.026.198-.078.052-.052.078-.118.078-.198v-3.9c0-.624-.194-1.144-.582-1.56-.388-.416-1.03-.624-1.926-.624-.52 0-.96.09-1.32.27-.36.18-.626.392-.798.636-.172.244-.258.458-.258.642 0 .072.026.134.078.186.052.052.114.078.186.078h.468c.064 0 .114-.014.15-.042.036-.028.07-.082.102-.162.104-.2.268-.374.492-.522.224-.148.52-.222.888-.222.952 0 1.428.412 1.428 1.236v.348l-1.8.252c-.744.112-1.332.336-1.764.672-.432.336-.648.768-.648 1.296 0 .336.098.642.294.918.196.276.46.494.792.654.332.16.694.24 1.086.24zm.24-.876c-.368 0-.686-.088-.954-.264-.268-.176-.402-.428-.402-.756 0-.288.148-.528.444-.72.296-.192.732-.328 1.308-.408l1.404-.204v.336c0 .656-.168 1.156-.504 1.5-.336.344-.768.516-1.296.516zm5.724.756c.08 0 .146-.026.198-.078.052-.052.078-.118.078-.198v-7.968c0-.08-.026-.146-.078-.198-.052-.052-.118-.078-.198-.078h-.528c-.08 0-.146.024-.198.072-.052.048-.078.116-.078.204v7.968c0 .08.026.146.078.198.052.052.118.078.198.078h.528zm3.17 0c.08 0 .145-.026.197-.078.052-.052.078-.118.078-.198v-7.968c0-.08-.026-.146-.078-.198-.052-.052-.118-.078-.198-.078h-.528c-.08 0-.146.024-.198.072-.052.048-.078.116-.078.204v7.968c0 .08.026.146.078.198.052.052.118.078.198.078h.528zm3.972 2.28c.072 0 .13-.016.174-.048.044-.032.086-.08.126-.144l3.396-7.872c.04-.088.06-.16.06-.216 0-.064-.024-.12-.072-.168-.048-.048-.104-.072-.168-.072h-.54c-.128 0-.224.064-.288.192l-1.896 4.416-1.848-4.416c-.064-.128-.16-.192-.288-.192h-.552c-.064 0-.12.024-.168.072-.048.048-.076.108-.084.18 0 .04.024.108.072.204l2.292 5.412-.936 2.196c-.04.12-.06.192-.06.216 0 .064.024.12.072.168.048.048.108.072.18.072h.528zm4.381-.372c.688 0 1.234-.194 1.638-.582.404-.388.694-.99.87-1.806.176-.816.264-1.892.264-3.228 0-1.336-.088-2.41-.264-3.222-.176-.812-.466-1.412-.87-1.8-.404-.388-.95-.582-1.638-.582-.072 0-.134.026-.186.078-.052.052-.078.118-.078.198v.396c0 .072.024.134.072.186.048.052.104.078.168.078.448.008.802.162 1.062.462.26.3.446.784.558 1.452.112.668.168 1.586.168 2.754s-.056 2.088-.168 2.76c-.112.672-.298 1.158-.558 1.458-.26.3-.614.454-1.062.462-.064 0-.12.026-.168.078-.048.052-.072.114-.072.186v.396c0 .08.026.146.078.198.052.052.114.078.186.078zM7.344 11.36c.117 0 .213-.037.288-.112.075-.075.112-.165.112-.272V9.824c0-.107-.037-.197-.112-.272-.075-.075-.17-.112-.288-.112H2.272V.544c0-.117-.035-.21-.104-.28-.07-.07-.163-.104-.28-.104H.384C.277.16.187.195.112.264.037.334 0 .427 0 .544v10.432c0 .107.037.197.112.272.075.075.165.112.272.112h6.96zm9.89 0c.117 0 .213-.035.287-.104.075-.07.112-.163.112-.28V9.888c0-.117-.037-.21-.112-.28-.074-.07-.17-.104-.288-.104h-5.376V6.608h4.896c.118 0 .214-.035.288-.104.075-.07.112-.163.112-.28V5.216c0-.117-.037-.213-.112-.288-.074-.075-.17-.112-.288-.112h-4.896v-2.8h5.248c.118 0 .214-.035.288-.104.075-.07.112-.163.112-.28V.56c0-.117-.037-.213-.112-.288-.074-.075-.17-.112-.288-.112H10.05c-.117 0-.21.037-.28.112-.07.075-.104.17-.104.288v10.416c0 .107.038.197.112.272.075.075.166.112.272.112h7.184zm3.504 0c.224 0 .38-.101.464-.304l.736-1.936h4.736l.736 1.936c.086.203.24.304.464.304h1.424c.086 0 .163-.032.232-.096.07-.064.104-.144.104-.24l-.032-.144L25.762.56c-.106-.267-.298-.4-.576-.4h-1.76c-.277 0-.469.133-.576.4l-3.84 10.32-.032.144c0 .096.032.176.096.24s.144.096.24.096h1.424zm5.376-4.096h-3.616l1.808-4.928 1.808 4.928zm7.218 4.096c.117 0 .213-.037.288-.112.074-.075.112-.165.112-.272v-3.84h2.192l2.048 3.792c.074.128.16.232.256.312.096.08.229.12.4.12H40.1c.085 0 .162-.032.232-.096.069-.064.104-.144.104-.24 0-.053-.016-.112-.048-.176l-2.32-4.08c.672-.235 1.194-.616 1.568-1.144.373-.528.56-1.181.56-1.96 0-1.12-.371-1.984-1.112-2.592-.742-.608-1.768-.912-3.08-.912H31.86c-.118 0-.211.037-.28.112-.07.075-.104.17-.104.288v10.416c0 .107.037.197.112.272.074.075.165.112.272.112h1.472zm2.624-6.048h-2.224v-3.36h2.224c.64 0 1.12.147 1.44.44.32.293.48.712.48 1.256s-.16.957-.48 1.24c-.32.283-.8.424-1.44.424zm8.433 6.048c.117 0 .21-.037.28-.112.07-.075.104-.165.104-.272V4.144l4.56 6.944c.107.181.267.272.48.272h1.264c.107 0 .197-.037.272-.112.075-.075.112-.17.112-.288V.56c0-.117-.037-.213-.112-.288-.075-.075-.17-.112-.288-.112h-1.376c-.117 0-.21.037-.28.112-.07.075-.104.17-.104.288v6.976L44.725.432C44.618.251 44.464.16 44.26.16h-1.248c-.117 0-.21.037-.28.112-.07.075-.104.17-.104.288v10.416c0 .107.037.197.112.272.075.075.165.112.272.112h1.376zm15.698 0c.118 0 .211-.037.28-.112.07-.075.104-.165.104-.272v-6.88l2.224 4.224c.14.235.32.352.544.352h.672c.235 0 .411-.117.528-.352l2.224-4.224v6.88c0 .107.038.197.112.272.075.075.166.112.272.112h1.376c.118 0 .214-.035.288-.104.075-.07.112-.163.112-.28V.56c0-.117-.037-.213-.112-.288-.074-.075-.17-.112-.288-.112h-1.28c-.202 0-.362.101-.48.304l-3.088 5.728L60.487.464C60.37.261 60.21.16 60.007.16h-1.296c-.117 0-.21.037-.28.112-.069.075-.104.17-.104.288v10.416c0 .107.038.197.112.272.075.075.166.112.272.112h1.376zm15.922.16c1.45 0 2.584-.368 3.4-1.104.816-.736 1.245-1.83 1.288-3.28.02-.619.032-1.072.032-1.36v-.12c-.003-.296-.014-.715-.032-1.256-.043-1.419-.483-2.507-1.32-3.264C78.539.379 77.417 0 76.009 0c-1.42 0-2.544.379-3.376 1.136-.832.757-1.27 1.845-1.312 3.264-.011.31-.016.768-.016 1.376v.247c.001.477.006.848.016 1.113.042 1.45.469 2.544 1.28 3.28.81.736 1.946 1.104 3.408 1.104zm0-1.856c-.715 0-1.283-.216-1.704-.648-.422-.432-.643-1.085-.664-1.96-.011-.32-.016-.752-.016-1.296 0-.555.005-.987.016-1.296.02-.875.245-1.528.672-1.96.426-.432.992-.648 1.696-.648.693 0 1.253.216 1.68.648.426.432.656 1.085.688 1.96.02.619.032 1.05.032 1.296v.082c-.003.24-.013.645-.032 1.214-.032.885-.256 1.541-.672 1.968-.416.427-.982.64-1.696.64zm9.025 1.696c.117 0 .213-.037.288-.112.075-.075.112-.165.112-.272v-3.84h2.192l2.048 3.792c.075.128.16.232.256.312.096.08.23.12.4.12h1.472c.085 0 .163-.032.232-.096.07-.064.104-.144.104-.24 0-.053-.016-.112-.048-.176l-2.32-4.08c.672-.235 1.195-.616 1.568-1.144.373-.528.56-1.181.56-1.96 0-1.12-.37-1.984-1.112-2.592-.741-.608-1.768-.912-3.08-.912h-4.144c-.117 0-.21.037-.28.112-.07.075-.104.17-.104.288v10.416c0 .107.037.197.112.272.075.075.165.112.272.112h1.472zm2.624-6.048h-2.224v-3.36h2.224c.64 0 1.12.147 1.44.44.32.293.48.712.48 1.256s-.16.957-.48 1.24c-.32.283-.8.424-1.44.424zm14.241 6.048c.117 0 .213-.035.288-.104.075-.07.112-.163.112-.28V9.888c0-.117-.037-.21-.112-.28-.075-.07-.17-.104-.288-.104h-5.376V6.608h4.896c.117 0 .213-.035.288-.104.075-.07.112-.163.112-.28V5.216c0-.117-.037-.213-.112-.288-.075-.075-.17-.112-.288-.112h-4.896v-2.8h5.248c.117 0 .213-.035.288-.104.075-.07.112-.163.112-.28V.56c0-.117-.037-.213-.112-.288-.075-.075-.17-.112-.288-.112h-7.056c-.117 0-.21.037-.28.112-.07.075-.104.17-.104.288v10.416c0 .107.037.197.112.272.075.075.165.112.272.112h7.184z" transform="translate(-916 -29) translate(916.248 29.64)"/>
            </g>
        </g>
    </g>
</svg>
