<svg width="26" height="30" viewBox="0 0 26 30" xmlns="http://www.w3.org/2000/svg">
    <g fill-rule="nonzero" fill="none">
        <path d="M7.546 18.111c-1.96-9.69-.103-16.049-.103-16.049s-.497 3.871 3.408 10.11c-.05 7.735 1.473 11.77 1.473 11.77l.313-.23-.313.272s-2.316-1.89-4.778-5.873zM16.776 16.74c.937.943 1.81 1.596 2.442 1.907a1.405 1.405 0 0 1-.01-.006s.708.255.834.085c.864-.915 1.075-2.621.5-5.827-3.297-1.882-3.713-4.816-3.713-4.816s-.593 4.073-.053 8.656z" fill="#364FDE"/>
        <path d="M7.443 2.062S4.73 11.348 9.32 24.577a.954.954 0 0 1-.334 1.06l-4.84 3.393c-.458.339-1.126.127-1.334-.424-1.293-3.52-4.84-15.18-1.252-27.943.167-.509.71-.806 1.21-.594l4.673 1.993z" fill="#56D8FF"/>
        <path d="m16.704 20.719-4.38 3.222s-2.337-6.19-1.127-17.936c.084-.678.793-1.017 1.377-.678l4.255 2.756s-.834 5.724.376 11.237c.125.55-.084 1.102-.5 1.399zM24.797 13.553l-4.046-2.671c-.25-.17-.626.084-.543.381.96 4.283.835 6.403-.167 7.463-.125.17-.834-.085-.834-.085.668.34.834.17.834.17.668-.509 3.171-2.332 4.756-3.435.626-.466.626-1.399 0-1.823z" fill="#667DFF"/>
    </g>
</svg>
