<svg xmlns="http://www.w3.org/2000/svg" width="37" height="42" viewBox="0 0 37 42">
    <g fill="none" fill-rule="evenodd">
        <g fill-rule="nonzero">
            <g>
                <g>
                    <path fill="#364FDE" d="M10.648 25.558C7.883 11.884 10.503 2.91 10.503 2.91s-.701 5.463 4.81 14.267c-.07 10.915 2.078 16.609 2.078 16.609l.442-.325-.442.385s-3.267-2.667-6.743-8.288zM23.674 23.622c1.322 1.332 2.555 2.254 3.447 2.692l-.016-.008s1 .36 1.177.12c1.22-1.292 1.519-3.699.705-8.223-4.65-2.656-5.238-6.796-5.238-6.796s-.838 5.748-.075 12.215z" transform="translate(-20 -19) translate(20 19)"/>
                    <path fill="#56D8FF" d="M10.503 2.91s-3.827 13.104 2.65 31.773c.176.539 0 1.137-.472 1.496l-6.829 4.787c-.648.479-1.59.18-1.884-.598C2.143 35.4-2.86 18.946 2.202.935c.235-.718 1-1.137 1.707-.837l6.594 2.812z" transform="translate(-20 -19) translate(20 19)"/>
                    <path fill="#667DFF" d="M23.573 29.238l-6.182 4.548s-3.297-8.736-1.59-25.311c.118-.958 1.119-1.436 1.943-.958l6.005 3.89s-1.177 8.078.53 15.857c.177.777-.118 1.555-.706 1.974zM34.994 19.126l-5.711-3.77c-.353-.24-.883.12-.765.539 1.354 6.043 1.177 9.035-.236 10.53-.176.24-1.177-.119-1.177-.119.942.479 1.177.24 1.177.24.942-.719 4.474-3.292 6.712-4.847.883-.658.883-1.975 0-2.573z" transform="translate(-20 -19) translate(20 19)"/>
                </g>
            </g>
        </g>
    </g>
</svg>
