<svg xmlns="http://www.w3.org/2000/svg" width="36" height="41" viewBox="0 0 36 41">
    <g fill="none" fill-rule="evenodd">
        <g fill-rule="nonzero">
            <g>
                <path fill="#FCFCFE" d="M10.381 24.917c-2.696-13.332-.141-22.08-.141-22.08s-.684 5.325 4.688 13.91c-.068 10.64 2.027 16.191 2.027 16.191l.43-.316-.43.375s-3.186-2.6-6.574-8.08zM23.08 23.03c1.289 1.298 2.491 2.197 3.36 2.624l-.015-.008s.976.35 1.148.117c1.19-1.26 1.48-3.606.687-8.017-4.534-2.589-5.107-6.625-5.107-6.625s-.816 5.603-.073 11.909z" opacity=".5" transform="translate(-10 -20) translate(10 20)"/>
                <path fill="#FFF" d="M10.24 2.837s-3.731 12.776 2.582 30.976c.172.525 0 1.109-.459 1.459l-6.658 4.667c-.631.466-1.55.175-1.836-.584C2.089 34.513-2.79 18.471 2.147.912c.23-.7.975-1.108 1.664-.817l6.428 2.742zM22.981 28.505l-6.026 4.433s-3.214-8.517-1.55-24.676c.115-.933 1.09-1.4 1.894-.933l5.854 3.792s-1.148 7.875.517 15.459c.172.758-.115 1.516-.689 1.925zM34.116 18.646l-5.568-3.675c-.344-.233-.86.117-.746.525 1.32 5.892 1.148 8.809-.23 10.267-.172.233-1.147-.117-1.147-.117.918.467 1.148.234 1.148.234.918-.7 4.362-3.209 6.543-4.726.86-.641.86-1.925 0-2.508z" transform="translate(-10 -20) translate(10 20)"/>
            </g>
        </g>
    </g>
</svg>
