<svg xmlns="http://www.w3.org/2000/svg" width="22" height="26" viewBox="0 0 22 26">
    <g fill="none" fill-rule="evenodd">
        <g fill-rule="nonzero">
            <g>
                <path fill="#FCFCFE" d="M6.344 15.227C4.696 7.08 6.257 1.734 6.257 1.734s-.417 3.254 2.866 8.5c-.042 6.503 1.238 9.895 1.238 9.895l.263-.194-.263.23s-1.946-1.59-4.017-4.938zM14.104 14.074c.788.793 1.523 1.342 2.054 1.603l-.01-.004s.597.214.702.071c.727-.77.905-2.204.42-4.9-2.77-1.581-3.12-4.048-3.12-4.048s-.5 3.424-.046 7.278z" opacity=".5" transform="translate(-10 -17) translate(10 17)"/>
                <path fill="#FFF" d="M6.257 1.734s-2.28 7.807 1.579 18.93c.105.32 0 .677-.28.89l-4.07 2.853c-.385.285-.946.107-1.122-.357C1.277 21.091-1.705 11.288 1.312.557c.14-.428.596-.677 1.017-.499l3.928 1.676zM14.044 17.42l-3.683 2.709s-1.964-5.205-.947-15.08c.07-.57.667-.855 1.158-.57l3.577 2.317s-.701 4.813.316 9.447c.105.464-.07.927-.42 1.177zM20.848 11.395l-3.402-2.246c-.21-.143-.526.071-.456.32.807 3.601.702 5.384-.14 6.275-.105.143-.702-.071-.702-.071.562.285.702.142.702.142.561-.427 2.666-1.96 3.998-2.887.527-.392.527-1.177 0-1.533z" transform="translate(-10 -17) translate(10 17)"/>
            </g>
        </g>
    </g>
</svg>
