<svg xmlns="http://www.w3.org/2000/svg" width="120" height="41" viewBox="0 0 120 41">
    <g fill="none" fill-rule="evenodd">
        <g fill-rule="nonzero">
            <g>
                <g>
                    <path fill="#FCFCFE" d="M10.381 24.917c-2.696-13.332-.141-22.08-.141-22.08s-.684 5.325 4.688 13.91c-.068 10.64 2.027 16.191 2.027 16.191l.43-.316-.43.375s-3.186-2.6-6.574-8.08zM23.08 23.03c1.289 1.298 2.491 2.197 3.36 2.624l-.015-.008s.976.35 1.148.117c1.19-1.26 1.48-3.606.687-8.017-4.534-2.589-5.107-6.625-5.107-6.625s-.816 5.603-.073 11.909z" opacity=".5" transform="translate(-50 -20) translate(50 20)"/>
                    <path fill="#FFF" d="M10.24 2.837s-3.731 12.776 2.582 30.976c.172.525 0 1.109-.459 1.459l-6.658 4.667c-.631.466-1.55.175-1.836-.584C2.089 34.513-2.79 18.471 2.147.912c.23-.7.975-1.108 1.664-.817l6.428 2.742zM22.981 28.505l-6.026 4.433s-3.214-8.517-1.55-24.676c.115-.933 1.09-1.4 1.894-.933l5.854 3.792s-1.148 7.875.517 15.459c.172.758-.115 1.516-.689 1.925zM34.116 18.646l-5.568-3.675c-.344-.233-.86.117-.746.525 1.32 5.892 1.148 8.809-.23 10.267-.172.233-1.147-.117-1.147-.117.918.467 1.148.234 1.148.234.918-.7 4.362-3.209 6.543-4.726.86-.641.86-1.925 0-2.508z" transform="translate(-50 -20) translate(50 20)"/>
                </g>
                <path fill="#FFF" d="M54.132 17.571l4.401-11.864H56.09l-3.096 8.819-3.096-8.82h-2.527l4.385 11.865h2.376zm8.066.218c.87 0 1.824-.335 2.276-1.105 0 .335.034.72.067.887h2.126c-.034-.284-.084-.853-.084-1.489V9.338h-2.226v4.786c0 .954-.569 1.623-1.556 1.623-1.038 0-1.506-.736-1.506-1.656V9.338h-2.226v5.204c0 1.791 1.138 3.247 3.13 3.247zm10.36.033c2.024 0 3.33-1.188 3.748-2.61l-1.858-.552c-.268.736-.837 1.255-1.874 1.255-1.105 0-2.025-.787-2.075-1.875h5.89c0-.033.034-.368.034-.686 0-2.644-1.523-4.267-4.067-4.267-2.108 0-4.05 1.707-4.05 4.334 0 2.778 1.992 4.401 4.251 4.401zm1.673-5.304h-3.682c.05-.754.686-1.624 1.84-1.624 1.273 0 1.808.804 1.842 1.624zM52.425 35.394c2.762 0 4.284-1.84 4.284-3.665 0-1.673-1.154-3.08-3.313-3.498l-1.657-.318c-.87-.167-1.288-.686-1.288-1.338 0-.787.736-1.506 1.857-1.506 1.506 0 2.042 1.02 2.159 1.673l2.075-.636c-.268-1.339-1.372-3.08-4.25-3.08-2.243 0-4.134 1.607-4.134 3.716 0 1.79 1.222 3.012 3.113 3.397l1.656.335c.92.184 1.44.72 1.44 1.406 0 .836-.687 1.456-1.925 1.456-1.673 0-2.493-1.055-2.594-2.226l-2.142.569c.184 1.69 1.573 3.715 4.72 3.715zm9.723 0c2.192 0 3.481-1.406 3.85-2.778l-1.959-.653c-.184.636-.753 1.39-1.89 1.39-1.139 0-2.11-.837-2.11-2.327s.954-2.31 2.092-2.31c1.105 0 1.624.704 1.825 1.39l1.99-.67c-.35-1.389-1.622-2.778-3.865-2.778-2.393 0-4.267 1.824-4.267 4.368 0 2.527 1.908 4.368 4.334 4.368zm7.715-.251v-4.836c.05-.904.602-1.607 1.54-1.607 1.07 0 1.522.72 1.522 1.64v4.803h2.226v-5.188c0-1.807-.97-3.263-3.062-3.263-.787 0-1.69.268-2.226.904v-4.57h-2.226v12.117h2.226zm11.246.25c2.46 0 4.317-1.84 4.317-4.367 0-2.544-1.857-4.368-4.317-4.368s-4.318 1.824-4.318 4.368c0 2.527 1.858 4.368 4.318 4.368zm0-2.024c-1.088 0-2.092-.803-2.092-2.343 0-1.556 1.004-2.343 2.092-2.343 1.087 0 2.091.787 2.091 2.343s-1.004 2.343-2.091 2.343zm9.773 2.025c2.46 0 4.317-1.84 4.317-4.368 0-2.544-1.857-4.368-4.317-4.368s-4.318 1.824-4.318 4.368c0 2.527 1.858 4.368 4.318 4.368zm0-2.025c-1.088 0-2.092-.803-2.092-2.343 0-1.556 1.004-2.343 2.092-2.343 1.087 0 2.091.787 2.091 2.343s-1.004 2.343-2.091 2.343zm8.3 1.774V23.027h-2.226v12.116h2.226zm3.682.117c.853 0 1.54-.686 1.54-1.523 0-.837-.687-1.523-1.54-1.523-.837 0-1.523.686-1.523 1.523 0 .837.686 1.523 1.523 1.523zm4.903-9.69c.77 0 1.372-.619 1.372-1.355 0-.77-.602-1.389-1.372-1.389-.753 0-1.372.62-1.372 1.39 0 .735.619 1.355 1.372 1.355zm1.121 9.573v-8.234h-2.226v8.234h2.226zm6.075.25c2.46 0 4.317-1.84 4.317-4.367 0-2.544-1.857-4.368-4.317-4.368s-4.318 1.824-4.318 4.368c0 2.527 1.858 4.368 4.318 4.368zm0-2.024c-1.088 0-2.092-.803-2.092-2.343 0-1.556 1.004-2.343 2.092-2.343s2.092.787 2.092 2.343-1.004 2.343-2.092 2.343z" transform="translate(-50 -20) translate(50 20)"/>
            </g>
        </g>
    </g>
</svg>
