<svg xmlns="http://www.w3.org/2000/svg" width="119" height="42" viewBox="0 0 119 42">
    <g fill="none" fill-rule="evenodd">
        <g fill-rule="nonzero">
            <g>
                <g>
                    <path fill="#364FDE" d="M10.648 25.558C7.883 11.884 10.503 2.91 10.503 2.91s-.701 5.463 4.81 14.267c-.07 10.915 2.078 16.609 2.078 16.609l.442-.325-.442.385s-3.267-2.667-6.743-8.288zM23.674 23.622c1.322 1.332 2.555 2.254 3.447 2.692l-.016-.008s1 .36 1.177.12c1.22-1.292 1.519-3.699.705-8.223-4.65-2.656-5.238-6.796-5.238-6.796s-.838 5.748-.075 12.215z" transform="translate(-30 -19) translate(30 19)"/>
                    <path fill="#56D8FF" d="M10.503 2.91s-3.827 13.104 2.65 31.773c.176.539 0 1.137-.472 1.496l-6.829 4.787c-.648.479-1.59.18-1.884-.598C2.143 35.4-2.86 18.946 2.202.935c.235-.718 1-1.137 1.707-.837l6.594 2.812z" transform="translate(-30 -19) translate(30 19)"/>
                    <path fill="#667DFF" d="M23.573 29.238l-6.182 4.548s-3.297-8.736-1.59-25.311c.118-.958 1.119-1.436 1.943-.958l6.005 3.89s-1.177 8.078.53 15.857c.177.777-.118 1.555-.706 1.974zM34.994 19.126l-5.711-3.77c-.353-.24-.883.12-.765.539 1.354 6.043 1.177 9.035-.236 10.53-.176.24-1.177-.119-1.177-.119.942.479 1.177.24 1.177.24.942-.719 4.474-3.292 6.712-4.847.883-.658.883-1.975 0-2.573z" transform="translate(-30 -19) translate(30 19)"/>
                </g>
                <path fill="#38416F" d="M51.949 18.195L56.472 6h-2.51l-3.183 9.064L47.597 6H45l4.506 12.195h2.443zm8.29.223c.895 0 1.875-.344 2.34-1.135 0 .344.034.74.068.912h2.185c-.035-.293-.086-.877-.086-1.53V9.731h-2.288v4.92c0 .98-.585 1.668-1.6 1.668-1.066 0-1.547-.757-1.547-1.703V9.732h-2.288v5.35c0 1.84 1.17 3.336 3.216 3.336zm10.647.035c2.081 0 3.423-1.221 3.853-2.683l-1.91-.568c-.274.757-.86 1.29-1.926 1.29-1.135 0-2.08-.808-2.132-1.926h6.054c0-.035.034-.379.034-.706 0-2.717-1.565-4.386-4.18-4.386-2.166 0-4.162 1.755-4.162 4.455 0 2.855 2.047 4.524 4.37 4.524zM72.606 13h-3.784c.052-.774.705-1.668 1.892-1.668 1.307 0 1.858.826 1.892 1.668zM50.194 36.513c2.838 0 4.404-1.892 4.404-3.767 0-1.72-1.187-3.165-3.406-3.595l-1.703-.326c-.894-.172-1.324-.706-1.324-1.376 0-.809.757-1.548 1.909-1.548 1.548 0 2.098 1.049 2.219 1.72l2.133-.654c-.276-1.376-1.41-3.165-4.37-3.165-2.304 0-4.248 1.651-4.248 3.819 0 1.84 1.256 3.096 3.2 3.491l1.702.344c.946.19 1.48.74 1.48 1.445 0 .86-.706 1.496-1.978 1.496-1.72 0-2.563-1.083-2.666-2.287l-2.202.585c.19 1.737 1.617 3.818 4.85 3.818zm9.994 0c2.253 0 3.577-1.445 3.956-2.855l-2.013-.671c-.189.654-.774 1.428-1.943 1.428-1.17 0-2.167-.86-2.167-2.391 0-1.531.98-2.374 2.15-2.374 1.135 0 1.668.723 1.874 1.428l2.047-.688c-.361-1.428-1.668-2.855-3.973-2.855-2.46 0-4.386 1.874-4.386 4.489 0 2.597 1.96 4.489 4.455 4.489zm7.929-.258v-4.97c.052-.93.62-1.652 1.582-1.652 1.101 0 1.566.74 1.566 1.686v4.936h2.287v-5.332c0-1.858-.997-3.354-3.147-3.354-.809 0-1.738.275-2.288.929v-4.696h-2.288v12.453h2.288zm11.558.258c2.529 0 4.438-1.892 4.438-4.49 0-2.614-1.91-4.488-4.438-4.488-2.528 0-4.437 1.874-4.437 4.489 0 2.597 1.91 4.489 4.437 4.489zm0-2.081c-1.118 0-2.15-.826-2.15-2.408 0-1.6 1.032-2.408 2.15-2.408 1.118 0 2.15.808 2.15 2.408 0 1.6-1.032 2.408-2.15 2.408zm10.045 2.081c2.529 0 4.438-1.892 4.438-4.49 0-2.614-1.91-4.488-4.438-4.488-2.528 0-4.437 1.874-4.437 4.489 0 2.597 1.909 4.489 4.437 4.489zm0-2.081c-1.118 0-2.15-.826-2.15-2.408 0-1.6 1.032-2.408 2.15-2.408 1.118 0 2.15.808 2.15 2.408 0 1.6-1.032 2.408-2.15 2.408zm8.532 1.823V23.802h-2.288v12.453h2.288zm3.784.12c.877 0 1.582-.705 1.582-1.565s-.705-1.565-1.582-1.565c-.86 0-1.566.705-1.566 1.565s.706 1.565 1.566 1.565zm5.04-9.958c.79 0 1.41-.637 1.41-1.394 0-.79-.62-1.427-1.41-1.427-.775 0-1.411.636-1.411 1.427 0 .757.636 1.394 1.41 1.394zm1.152 9.838v-8.462h-2.288v8.462h2.288zm6.243.258c2.529 0 4.438-1.892 4.438-4.49 0-2.614-1.91-4.488-4.438-4.488-2.528 0-4.437 1.874-4.437 4.489 0 2.597 1.909 4.489 4.437 4.489zm0-2.081c-1.118 0-2.15-.826-2.15-2.408 0-1.6 1.032-2.408 2.15-2.408 1.118 0 2.15.808 2.15 2.408 0 1.6-1.032 2.408-2.15 2.408z" transform="translate(-30 -19) translate(30 19)"/>
            </g>
        </g>
    </g>
</svg>
