<svg width="128" height="41" viewBox="0 0 128 41" xmlns="http://www.w3.org/2000/svg">
    <g fill-rule="nonzero" fill="none">
        <path d="M10.448 25.077c-2.714-13.417-.143-22.222-.143-22.222s-.688 5.36 4.72 13.999c-.07 10.71 2.039 16.296 2.039 16.296l.433-.32-.433.378s-3.206-2.617-6.616-8.13zM23.228 23.177c1.297 1.307 2.507 2.212 3.382 2.642a1.952 1.952 0 0 1-.015-.008s.981.352 1.155.117c1.197-1.267 1.49-3.629.692-8.068-4.564-2.606-5.14-6.668-5.14-6.668s-.822 5.64-.074 11.985z" fill="#364FDE"/>
        <path d="M10.305 2.855s-3.754 12.858 2.6 31.175c.173.529 0 1.116-.463 1.468l-6.7 4.697c-.636.47-1.56.176-1.849-.587-1.79-4.873-6.7-21.018-1.732-38.69.23-.705.981-1.116 1.675-.822l6.47 2.76z" fill="#56D8FF"/>
        <path d="m23.129 28.688-6.065 4.462s-3.235-8.572-1.56-24.835c.115-.94 1.097-1.409 1.906-.94l5.892 3.817s-1.155 7.926.52 15.558c.173.763-.116 1.527-.693 1.938zM34.335 18.766l-5.603-3.7c-.347-.234-.867.118-.751.53 1.328 5.929 1.155 8.865-.231 10.332-.174.235-1.156-.117-1.156-.117.925.47 1.156.235 1.156.235.924-.705 4.39-3.23 6.585-4.756.866-.646.866-1.937 0-2.524z" fill="#667DFF"/>
        <path d="m57.499 17.684 4.43-11.94h-2.46l-3.115 8.875-3.116-8.876h-2.543l4.412 11.941H57.5zm8.118.22c.876 0 1.836-.338 2.29-1.112 0 .336.034.724.068.892h2.139a13.63 13.63 0 0 1-.085-1.499V9.398h-2.24v4.817c0 .96-.572 1.633-1.566 1.633-1.044 0-1.516-.74-1.516-1.667V9.398h-2.24v5.238c0 1.802 1.146 3.267 3.15 3.267zm10.425.033c2.038 0 3.352-1.196 3.773-2.628l-1.87-.555c-.27.74-.842 1.263-1.886 1.263-1.112 0-2.038-.792-2.088-1.886h5.928c0-.034.034-.371.034-.691 0-2.661-1.533-4.295-4.093-4.295-2.122 0-4.076 1.718-4.076 4.362 0 2.796 2.004 4.43 4.278 4.43zm1.684-5.34h-3.705c.05-.757.69-1.633 1.853-1.633 1.28 0 1.819.809 1.852 1.634zM55.781 35.622c2.779 0 4.312-1.853 4.312-3.688 0-1.685-1.162-3.1-3.335-3.52l-1.667-.32c-.876-.169-1.297-.69-1.297-1.348 0-.791.74-1.516 1.87-1.516 1.515 0 2.054 1.028 2.172 1.685l2.088-.64c-.27-1.348-1.38-3.1-4.278-3.1-2.257 0-4.16 1.618-4.16 3.74 0 1.802 1.23 3.031 3.133 3.419l1.667.336c.927.186 1.449.725 1.449 1.415 0 .842-.69 1.465-1.937 1.465-1.684 0-2.51-1.06-2.61-2.24l-2.156.573c.185 1.701 1.583 3.74 4.75 3.74zm9.785 0c2.207 0 3.503-1.415 3.874-2.796l-1.97-.657c-.186.64-.758 1.398-1.904 1.398-1.145 0-2.122-.842-2.122-2.34 0-1.5.96-2.325 2.105-2.325 1.112 0 1.634.707 1.836 1.398l2.004-.674c-.353-1.398-1.633-2.796-3.89-2.796-2.408 0-4.295 1.836-4.295 4.396 0 2.543 1.92 4.396 4.362 4.396zm7.765-.253v-4.867c.05-.91.606-1.617 1.549-1.617 1.078 0 1.533.724 1.533 1.65v4.834h2.24v-5.22c0-1.82-.977-3.285-3.082-3.285-.792 0-1.702.27-2.24.91v-4.598h-2.24v12.193h2.24zm11.317.253c2.476 0 4.346-1.853 4.346-4.396 0-2.56-1.87-4.396-4.346-4.396-2.475 0-4.345 1.836-4.345 4.396 0 2.543 1.87 4.396 4.345 4.396zm0-2.038c-1.094 0-2.105-.808-2.105-2.358 0-1.566 1.01-2.358 2.105-2.358s2.106.792 2.106 2.358c0 1.567-1.01 2.358-2.106 2.358zm9.836 2.038c2.476 0 4.345-1.853 4.345-4.396 0-2.56-1.869-4.396-4.345-4.396s-4.345 1.836-4.345 4.396c0 2.543 1.87 4.396 4.345 4.396zm0-2.038c-1.095 0-2.105-.808-2.105-2.358 0-1.566 1.01-2.358 2.105-2.358s2.105.792 2.105 2.358c0 1.567-1.01 2.358-2.105 2.358zm8.354 1.785V23.175h-2.24v12.193h2.24zm3.705.118c.86 0 1.55-.69 1.55-1.532a1.542 1.542 0 0 0-3.082 0c0 .842.69 1.532 1.532 1.532zm9.095-9.751c.775 0 1.38-.623 1.38-1.364a1.38 1.38 0 0 0-1.38-1.398 1.39 1.39 0 0 0-1.381 1.398c0 .74.623 1.364 1.38 1.364zm1.128 9.633v-8.286h-2.24v8.286h2.24zm6.114.253c2.476 0 4.345-1.853 4.345-4.396 0-2.56-1.87-4.396-4.345-4.396-2.476 0-4.345 1.836-4.345 4.396 0 2.543 1.87 4.396 4.345 4.396zm0-2.038c-1.095 0-2.105-.808-2.105-2.358 0-1.566 1.01-2.358 2.105-2.358s2.105.792 2.105 2.358c0 1.567-1.01 2.358-2.105 2.358z" fill="#FFF"/>
    </g>
</svg>
