<svg width="768" height="80" viewBox="0 0 768 80" xmlns="http://www.w3.org/2000/svg" xmlns:xlink="http://www.w3.org/1999/xlink">
    <defs>
        <linearGradient x1="115.066%" y1="86.528%" x2="23.195%" y2="34.95%" id="c">
            <stop stop-color="#4EC28D" offset="0%"/>
            <stop stop-color="#4EEA8D" offset="100%"/>
        </linearGradient>
        <linearGradient x1="109.65%" y1="70.604%" x2="10.626%" y2="36.401%" id="f">
            <stop stop-color="#4EBF8D" offset="0%"/>
            <stop stop-color="#2C6C50" offset="100%"/>
        </linearGradient>
        <linearGradient x1="25.039%" y1="30.511%" x2="78.845%" y2="62.21%" id="g">
            <stop offset="0%"/>
            <stop stop-opacity="0" offset="100%"/>
        </linearGradient>
        <linearGradient x1="18.897%" y1="29.764%" x2="83.189%" y2="71.591%" id="h">
            <stop stop-color="#4EEC8D" offset="0%"/>
            <stop stop-color="#4EBF8D" offset="100%"/>
        </linearGradient>
        <linearGradient x1="27.117%" y1="38.86%" x2="96.817%" y2="76.426%" id="i">
            <stop stop-color="#4EEC8D" offset="0%"/>
            <stop stop-color="#4EBF8D" offset="100%"/>
        </linearGradient>
        <linearGradient x1="92.1%" y1="81.919%" x2="-3.74%" y2="9.238%" id="j">
            <stop stop-color="#4EBF8D" offset="0%"/>
            <stop stop-color="#2C6C50" offset="100%"/>
        </linearGradient>
        <linearGradient x1="-1.218%" y1="19.815%" x2="83.522%" y2="81.342%" id="k">
            <stop offset="0%"/>
            <stop stop-opacity="0" offset="100%"/>
        </linearGradient>
        <linearGradient x1="9.893%" y1="19.042%" x2="96.435%" y2="85.857%" id="m">
            <stop stop-color="#4EEC8D" offset="0%"/>
            <stop stop-color="#4EBF8D" offset="100%"/>
        </linearGradient>
        <linearGradient x1="12.213%" y1="11.494%" x2="93.522%" y2="86.808%" id="l">
            <stop stop-color="#B2FFD1" offset="0%"/>
            <stop stop-color="#FFF" stop-opacity="0" offset="100%"/>
        </linearGradient>
        <linearGradient x1="2.911%" y1="22.486%" x2="97.174%" y2="77.562%" id="n">
            <stop stop-color="#4EEC8D" offset="0%"/>
            <stop stop-color="#4EBF8D" offset="100%"/>
        </linearGradient>
        <linearGradient x1="-5.57%" y1="17.963%" x2="92.628%" y2="74.572%" id="p">
            <stop stop-color="#BC8A19" offset="0%"/>
            <stop stop-color="#FCCB3E" offset="100%"/>
        </linearGradient>
        <linearGradient x1="20.037%" y1="25.572%" x2="90.029%" y2="69.717%" id="q">
            <stop offset="0%"/>
            <stop stop-opacity="0" offset="100%"/>
        </linearGradient>
        <linearGradient x1="87.313%" y1="68.687%" x2="20.683%" y2="35.324%" id="r">
            <stop stop-color="#FCCA3E" offset="0%"/>
            <stop stop-color="#FCE13E" offset="100%"/>
        </linearGradient>
        <linearGradient x1="74.189%" y1="75.061%" x2="48.06%" y2="43.332%" id="s">
            <stop stop-color="#FCCA3E" offset="0%"/>
            <stop stop-color="#FCE13E" offset="100%"/>
        </linearGradient>
        <linearGradient x1="87.313%" y1="68.54%" x2="20.683%" y2="35.439%" id="t">
            <stop stop-color="#FCCA3E" offset="0%"/>
            <stop stop-color="#FCE13E" offset="100%"/>
        </linearGradient>
        <linearGradient x1="20.578%" y1="23.766%" x2="92.369%" y2="87.785%" id="v">
            <stop stop-color="#358AC4" offset="0%"/>
            <stop stop-color="#64B9FB" offset="100%"/>
        </linearGradient>
        <linearGradient x1="23.984%" y1="27.983%" x2="77.122%" y2="59.679%" id="w">
            <stop offset="0%"/>
            <stop stop-opacity="0" offset="100%"/>
        </linearGradient>
        <linearGradient x1="26.947%" y1="25.09%" x2="76.054%" y2="78.152%" id="x">
            <stop stop-color="#88DAFB" offset="0%"/>
            <stop stop-color="#61B6FB" offset="100%"/>
        </linearGradient>
        <linearGradient x1="14.548%" y1="24.997%" x2="77.654%" y2="74.157%" id="y">
            <stop stop-color="#88DAFB" offset="0%"/>
            <stop stop-color="#61B6FB" offset="100%"/>
        </linearGradient>
        <linearGradient x1="2.884%" y1="42.014%" x2="104.546%" y2="59.246%" id="A">
            <stop stop-color="#4EEC8D" offset="0%"/>
            <stop stop-color="#4EBF8D" offset="100%"/>
        </linearGradient>
        <linearGradient x1="99.182%" y1="57.987%" x2="-12.783%" y2="39.81%" id="C">
            <stop stop-color="#4EBF8D" offset="0%"/>
            <stop stop-color="#2C6C50" offset="100%"/>
        </linearGradient>
        <linearGradient x1="1.574%" y1="30.513%" x2="95.103%" y2="62.49%" id="D">
            <stop offset="0%"/>
            <stop stop-opacity="0" offset="100%"/>
        </linearGradient>
        <filter x="-92.8%" y="-104%" width="285.7%" height="308%" filterUnits="objectBoundingBox" id="d">
            <feGaussianBlur stdDeviation="5.70502529 8.21295845" in="SourceGraphic"/>
        </filter>
        <filter x="-92.8%" y="-104%" width="285.7%" height="308%" filterUnits="objectBoundingBox" id="e">
            <feGaussianBlur stdDeviation="5.70502529 8.21295845" in="SourceGraphic"/>
        </filter>
        <filter x="-246.8%" y="-267%" width="593.5%" height="633.9%" filterUnits="objectBoundingBox" id="o">
            <feGaussianBlur stdDeviation="12.0407091 12.0008884" in="SourceGraphic"/>
        </filter>
        <filter x="-178.6%" y="-240.4%" width="457.1%" height="580.5%" filterUnits="objectBoundingBox" id="u">
            <feGaussianBlur stdDeviation="6.27735434 7.78426763" in="SourceGraphic"/>
        </filter>
        <filter x="-280.8%" y="-314.4%" width="661.5%" height="728.9%" filterUnits="objectBoundingBox" id="z">
            <feGaussianBlur stdDeviation="-13.4926177 -16.0919006" in="SourceGraphic"/>
        </filter>
        <filter x="-79.3%" y="-104%" width="258.6%" height="308%" filterUnits="objectBoundingBox" id="B">
            <feGaussianBlur stdDeviation="6.29140946 7.77291239" in="SourceGraphic"/>
        </filter>
        <path id="a" d="M0 0h768v80H0z"/>
    </defs>
    <g fill="none" fill-rule="evenodd">
        <mask id="b" fill="#fff">
            <use xlink:href="#a"/>
        </mask>
        <g fill-rule="nonzero" mask="url(#b)">
            <path d="M26.764.138c7.65 1.093 10.132 8.375 5.545 16.262-4.588 7.886-14.512 13.404-22.162 12.313C2.496 27.623.013 20.342 4.602 12.45 9.19 4.558 19.112-.953 26.764.138zm-14.88 25.588c6.052.863 13.898-3.497 17.528-9.738 3.63-6.242 1.667-12.001-4.385-12.864-6.051-.862-13.9 3.498-17.529 9.74-3.629 6.24-1.666 12 4.386 12.862" fill="url(#c)" filter="url(#d)" transform="translate(57 4)"/>
            <path d="M26.764 7.494c7.65 1.094 10.132 8.376 5.545 16.263C27.72 31.643 17.797 37.16 10.147 36.07 2.496 34.98.013 27.698 4.602 19.807 9.19 11.915 19.112 6.404 26.764 7.494zm-14.88 25.59c6.052.862 13.898-3.498 17.528-9.74 3.63-6.241 1.667-12-4.385-12.863-6.051-.863-13.9 3.498-17.529 9.739-3.629 6.241-1.666 12 4.386 12.863" fill="url(#c)" opacity=".298" filter="url(#e)" transform="translate(57 4)"/>
            <path d="M21.471 3.403c5.682.799 7.605 6.195 4.297 12.053-3.308 5.858-10.6 9.96-16.282 9.162-5.681-.799-7.605-6.195-4.297-12.054 3.308-5.858 10.6-9.959 16.282-9.16z" fill="url(#f)" transform="translate(57 8.828)"/>
            <path fill="url(#g)" opacity=".2" d="m7.552 15.634-1.146.095.095.764 13.247 7.636 2.033-2.002 2.387-2.1 2.483-2.866 1.91-5.73-11.364-5.06-3.343 2.196-3.82 3.247-3.246 3.438 3.724.382z" transform="translate(57 8.828)"/>
            <path d="M82.726 14.219c-.975-1.297-2.52-2.19-4.565-2.483l-.248-.032-.083-.008c-.056-.006-.112-.013-.17-.018l-.095-.007-.157-.013-.104-.005-.155-.008h-.899c-.087 0-.175.008-.263.012l-.077.006-.191.014-.101.01-.165.014-.108.012-.162.019-.11.014-.162.023-.107.015-.17.028-.096.016-.199.037-.072.013h-.01l-.076.015-.216.045-.115.026a8.846 8.846 0 0 0-.19.043l-.125.03-.18.045-.127.034-.177.049-.062.017-.042.012c-.147.042-.294.086-.441.133l-.065.022c-.287.091-.573.192-.86.302l-.095.035c-.13.05-.26.101-.388.155h-.009l-.037.016-.316.135-.095.045c-.106.047-.21.096-.316.145l-.036.016h-.01c-.113.054-.227.109-.34.165l-.095.046-.255.132-.06.03-.043.023c-.09.048-.18.096-.27.146l-.059.032c-.107.06-.215.121-.323.184l-.024.013-.066.039-.231.137c-.035.022-.07.044-.107.065l-.224.14-.066.04-.028.02c-.104.065-.206.132-.31.2l-.012.009-.293.198-.03.021-.064.045-.214.152-.103.074c-.074.053-.148.108-.221.163l-.06.045-.02.014c-.096.077-.201.153-.3.231l-.061.049c-.08.062-.158.125-.236.19l-.042.034-.052.043-.227.191-.078.066c-.096.084-.191.17-.294.256l-.01.01-.035.031c-.088.08-.175.159-.261.24l-.083.076c-.096.088-.185.176-.276.265l-.018.017a8.711 8.711 0 0 1-.378.402c-.101.106-.203.213-.305.323l-.008.008-.018.02c-.123.135-.244.27-.364.408l-.016.02c-.118.137-.234.275-.348.415l-.027.033-.018.023-.224.287-.006.006c-.071.096-.141.191-.21.28l-.068.096-.145.2-.074.106c-.046.065-.096.13-.136.197l-.045.066-.018.028c-.085.127-.168.254-.249.382l-.047.076a13.365 13.365 0 0 0-.453.778c-.023.04-.043.081-.065.121-.045.084-.09.168-.132.251l-.07.144a12.623 12.623 0 0 0-.181.378 3.04 3.04 0 0 0-.096.224 4.247 4.247 0 0 0-.064.147l-.095.229-.056.138-.095.25-.041.113c-.042.12-.083.24-.12.36l-.012.038-.096.318c0 .009 0 .017-.006.026-.013.044-.023.087-.035.13l-.044.173a5.063 5.063 0 0 0-.037.157l-.038.17a46.55 46.55 0 0 0-.063.323l-.026.155-.026.165-.005.034-.03.24v.033a11.34 11.34 0 0 0-.023.248c0 .027 0 .055-.006.083 0 .07-.01.141-.012.21v.541c0 .082 0 .162.009.242V26.934c.005.072.011.145.019.217l.008.095c.012.103.025.206.041.308 0 .014.006.028.008.043a6.882 6.882 0 0 0 .066.345c.013.061.026.123.041.185v.022c.009.034.02.067.028.1l.04.149c.014.052.026.082.038.123.012.041.03.095.047.143 0 .01.006.021.01.032.01.032.023.064.036.095.012.032.03.086.047.128l.051.125.053.125.014.032c.014.031.03.061.044.095.014.035.037.08.057.12l.062.12.062.116.016.028.052.088.068.113.072.112c.024.038.05.075.074.111l.016.025.12.167.873 1.164a4.365 4.365 0 0 1-.21-.3l-.072-.113a3.559 3.559 0 0 1-.068-.114l-.068-.115a3.446 3.446 0 0 1-.062-.117l-.063-.12a4.361 4.361 0 0 1-.056-.119c-.019-.04-.04-.082-.058-.123a4.922 4.922 0 0 1-.053-.125l-.052-.125-.047-.128-.046-.128-.046-.142-.038-.123a3.766 3.766 0 0 1-.04-.148c-.014-.053-.023-.083-.033-.125a3.918 3.918 0 0 1-.041-.183l-.023-.101a9.88 9.88 0 0 1-.043-.243l-.008-.047a8.196 8.196 0 0 1-.04-.308c0-.032-.006-.065-.01-.095a5.532 5.532 0 0 1-.018-.217l-.006-.11c0-.08-.008-.16-.009-.24V27.2c0-.07.008-.14.013-.21a10.897 10.897 0 0 1 .03-.331v-.033a6.17 6.17 0 0 1 .06-.439c.01-.055.017-.103.025-.156.009-.052.022-.11.033-.166l.031-.157.038-.168c.012-.057.023-.106.037-.159l.044-.17.042-.158c.03-.106.06-.212.095-.318l.012-.039a9.32 9.32 0 0 1 .257-.723l.055-.138c.03-.076.061-.152.095-.228.022-.049.043-.096.064-.147.033-.075.066-.15.096-.224.023-.05.046-.095.07-.149l.11-.229.072-.143c.043-.084.087-.167.132-.251l.064-.123a17.517 17.517 0 0 1 .455-.778l.046-.074c.081-.13.163-.257.248-.382l.064-.096.136-.198.075-.105.144-.2.068-.096c.07-.095.139-.19.21-.278l.006-.008c.073-.096.148-.191.223-.287l.047-.056c.113-.14.228-.278.346-.415l.017-.02c.119-.137.24-.273.363-.407l.027-.029c.096-.109.203-.217.305-.324l.071-.073.316-.317.021-.02c.096-.089.184-.178.276-.265l.083-.077c.086-.08.173-.16.261-.239l.046-.04c.096-.088.191-.173.293-.257l.079-.067c.075-.064.15-.128.227-.19l.095-.077.237-.191.061-.049.3-.23.08-.06.227-.16.102-.074.214-.152.095-.066c.096-.067.191-.132.287-.196l.014-.01c.103-.069.205-.136.31-.201l.095-.06c.074-.046.149-.095.224-.14l.107-.064.232-.138.088-.052.326-.184.06-.034.268-.144.104-.054.254-.131.096-.047.339-.164.048-.022.313-.144.101-.044c.105-.047.211-.096.316-.137l.046-.02c.129-.053.258-.104.388-.155l.095-.035c.131-.05.261-.096.393-.145.154-.054.309-.107.463-.157l.066-.02c.147-.048.294-.092.441-.135l.105-.03.175-.047.129-.034.178-.045.125-.03.191-.044.115-.025.217-.044.087-.019.071-.012.198-.036.095-.017.171-.027.107-.016.164-.023.108-.014.162-.019.107-.011.167-.016.095-.01.191-.013h.077c.088-.006.176-.01.262-.014h.048l.215-.005h.626l.155.006.103.007.158.011.095.009c.058 0 .114.01.17.017l.083.009c.084.01.168.02.25.032 2.047.287 3.591 1.184 4.566 2.483l-.872-1.156z" fill="#2C6B4F"/>
            <path d="M87.955 18.154v-.346c0-.086-.008-.17-.013-.255v-.047c-.006-.096-.015-.184-.024-.275 0-.04-.006-.082-.011-.123-.014-.13-.031-.26-.05-.388 0-.018-.007-.036-.01-.054a6.806 6.806 0 0 0-.056-.31c-.008-.043-.018-.084-.027-.127a6.33 6.33 0 0 0-.053-.233c0-.01 0-.02-.006-.03-.01-.042-.023-.084-.035-.126-.016-.063-.032-.126-.05-.19-.019-.066-.033-.105-.05-.157a11.972 11.972 0 0 0-.07-.221c-.014-.041-.03-.08-.045-.121a5.333 5.333 0 0 0-.06-.162l-.065-.157a4.388 4.388 0 0 0-.068-.159l-.016-.04c-.018-.04-.037-.077-.056-.115-.02-.039-.047-.102-.072-.151l-.079-.152-.078-.146-.02-.037-.066-.11-.085-.144a2.487 2.487 0 0 0-.096-.143c-.033-.048-.06-.095-.095-.138l-.022-.033a8.4 8.4 0 0 0-.152-.21l-.872-1.16c.06.08.118.161.174.242.031.046.061.096.095.14l.096.142.085.143c.028.048.058.096.086.147l.078.147c.026.052.054.096.08.152.025.057.048.096.072.15.024.055.049.103.072.156l.067.16.065.156c.021.053.04.108.06.162.02.055.04.107.058.16l.058.182c.02.06.033.103.049.156.015.052.034.125.051.19l.041.157.053.233c.008.042.019.084.028.127.02.102.038.206.055.31 0 .019.007.037.01.056.02.128.036.259.05.39.005.04.008.081.012.122a9.747 9.747 0 0 1 .04.577v.414c0 .11 0 .22-.007.33 0 .03 0 .06-.005.09 0 .088-.01.177-.015.266 0 .035-.005.07-.008.106-.008.103-.018.207-.03.312 0 .015 0 .028-.004.042a8.83 8.83 0 0 1-.045.347l-.032.21c-.012.069-.02.129-.033.19l-.04.211a9.253 9.253 0 0 1-.088.412l-.046.2c-.016.066-.037.143-.056.215-.02.072-.034.133-.053.199-.037.133-.077.268-.119.403l-.014.047c-.048.151-.099.303-.152.455l-.053.142c-.038.106-.076.211-.117.317l-.07.176c-.038.096-.077.191-.118.287-.026.062-.054.124-.08.19a12.5 12.5 0 0 1-.127.287c-.03.063-.058.125-.087.191-.046.095-.096.191-.14.286l-.091.176c-.054.106-.11.211-.167.317a19.612 19.612 0 0 1-.656 1.138l-.059.096a16.127 16.127 0 0 1-.395.605 19.33 19.33 0 0 1-.171.249l-.096.133-.182.254-.086.116c-.088.118-.177.237-.267.354l-.007.008c-.096.12-.186.239-.282.357l-.059.072c-.143.177-.29.351-.438.524l-.022.025c-.15.174-.304.346-.46.515l-.032.037-.382.409-.09.095c-.132.135-.264.27-.399.401l-.029.027c-.114.113-.23.223-.347.333l-.105.096c-.11.102-.22.203-.33.302l-.058.052c-.122.11-.246.217-.37.324l-.096.085-.286.24-.117.096-.315.24-.077.06c-.127.099-.254.194-.381.287l-.104.077-.278.206-.13.095c-.09.065-.18.128-.27.191l-.12.083c-.123.085-.247.17-.371.251l-.016.01c-.13.087-.26.17-.39.255l-.12.075-.286.176-.135.082c-.095.06-.19.117-.293.175l-.112.066c-.136.078-.272.156-.41.231l-.076.043-.338.182-.132.07-.321.164-.117.059c-.142.071-.286.14-.429.208l-.06.028c-.133.064-.264.125-.396.182l-.127.056c-.134.058-.268.117-.401.172l-.058.025c-.162.067-.325.133-.488.196l-.118.045c-.165.063-.331.125-.497.184l-.333.121-.11.036-.234.076-.132.04-.212.066-.14.04-.19.054-.221.06-.165.044c-.074.02-.15.038-.224.057l-.159.038-.237.054-.144.033-.274.056-.11.022-.087.016-.254.047-.124.02-.217.036-.136.02-.205.028-.139.018-.203.023-.136.016-.212.02-.125.01-.238.018-.096.007c-.11.007-.222.012-.332.016h-.06l-.272.007h-.458l-.199-.005-.131-.004-.191-.01-.138-.004-.199-.014-.124-.01-.215-.023c-.035 0-.07-.006-.105-.011a11.493 11.493 0 0 1-.317-.04c-2.587-.372-4.537-1.501-5.771-3.142l.87 1.16c1.233 1.64 3.186 2.77 5.773 3.138.105.015.211.029.317.041l.105.012c.071.007.143.015.215.02l.124.011.199.015.132.008.19.01.134.004h.659c.09 0 .18 0 .272-.006h.059c.11 0 .221-.01.333-.016l.096-.007.236-.017.127-.012c.07-.006.14-.012.21-.02l.137-.014.203-.024.139-.018c.069-.009.136-.018.205-.029l.136-.02c.072-.01.144-.023.217-.034l.124-.021.254-.046.087-.016h.013l.095-.02.275-.057.143-.031.239-.055.157-.039.226-.056.163-.043.221-.061.08-.021.107-.033.14-.04.212-.065.134-.042.23-.074.113-.038a20.919 20.919 0 0 0 .84-.302l.116-.044c.164-.064.327-.13.49-.197h.012l.045-.02c.134-.056.268-.114.402-.173l.126-.055c.132-.06.265-.12.397-.183l.048-.022.012-.005c.143-.068.286-.138.429-.208l.115-.059c.108-.054.216-.11.324-.166l.074-.038.056-.03c.114-.06.226-.122.34-.184l.075-.041c.137-.076.273-.154.41-.232l.03-.017.082-.049.293-.174.135-.082.286-.177.083-.051.036-.024c.132-.083.262-.168.391-.253l.015-.01a9.65 9.65 0 0 0 .37-.252l.04-.027.08-.057.271-.19.13-.096c.096-.068.186-.137.28-.206l.076-.057.026-.02c.128-.095.255-.193.382-.291l.076-.06c.1-.08.201-.16.3-.241l.053-.042.064-.054.286-.241.096-.084c.124-.107.248-.215.37-.324l.014-.011.043-.04c.111-.1.222-.201.332-.303l.103-.096c.118-.11.234-.221.349-.333l.024-.023c.135-.133.267-.266.399-.401l.09-.095c.13-.135.26-.27.383-.408l.01-.012c.009-.008.015-.017.023-.025.157-.17.31-.342.46-.516l.021-.024c.15-.173.295-.349.439-.525.011-.015.024-.028.035-.041l.023-.03.286-.357.006-.008c.09-.117.18-.236.268-.354l.085-.117c.063-.084.124-.169.184-.254l.095-.133c.059-.082.115-.165.171-.25.02-.027.04-.054.058-.082a23.24 23.24 0 0 0 .338-.521l.059-.095a20.2 20.2 0 0 0 .574-.985l.082-.154c.056-.106.113-.212.166-.318l.09-.18a8.84 8.84 0 0 0 .228-.477l.127-.287.08-.185c.041-.096.08-.191.119-.287l.07-.175.117-.318.052-.141c.054-.152.104-.303.152-.455l.014-.046c.042-.136.082-.27.12-.404l.008-.032c.017-.056.03-.112.044-.167l.057-.216c.018-.071.03-.133.046-.2l.048-.213c.016-.071.026-.132.04-.198l.04-.211.032-.197c.01-.066.023-.14.032-.208 0-.014.005-.029.007-.043a11.991 11.991 0 0 0 .072-.659l.008-.105c.006-.089.012-.177.016-.266v-.13c0-.096.004-.191.005-.287l.013-.076z" fill="#2C6B4F"/>
            <path d="M22.778.128c7.123 1.018 9.433 7.798 5.162 15.14-4.272 7.343-13.51 12.48-20.634 11.465-7.123-1.015-9.435-7.794-5.162-15.142C6.416 4.244 15.654-.887 22.778.128zM8.924 23.952c5.634.803 12.94-3.256 16.32-9.067 3.379-5.811 1.551-11.173-4.083-11.976-5.634-.803-12.942 3.256-16.32 9.067-3.379 5.81-1.551 11.173 4.083 11.976" fill="url(#h)" transform="translate(57 8.828)"/>
            <path d="m72.419 17.13.726.954-7.29 5.973-.727-.954 7.29-5.974z" fill="#245E42"/>
            <path d="m72.419 17.13.726.954-7.29 5.973-.727-.954 7.29-5.974M74.966 16.659v-.111a.343.343 0 0 0-.01-.078v-.03c0-.017-.006-.035-.01-.05a.17.17 0 0 1 0-.02v-.011a.328.328 0 0 0-.012-.041.179.179 0 0 0-.007-.021v-.01c0-.01-.008-.021-.012-.032a.099.099 0 0 0-.01-.022v-.009l-.014-.027c0-.006-.007-.014-.01-.02l-.006-.01-.015-.023c-.004-.006-.007-.013-.012-.018a.127.127 0 0 0-.013-.018l-.727-.955a.42.42 0 0 1 .025.037c.006.007.01.015.015.023a.31.31 0 0 1 .016.03l.015.027.013.03.012.033.01.03.013.04.008.031c0 .017.007.034.01.052.004.018 0 .02 0 .03 0 .01.007.051.01.077v.116l-.016 3.016v.413l.727.955v-.413a183.846 183.846 0 0 1 0-3.021z" fill="#245E42"/>
            <path d="m76.59 20.492.03-.025.044-.034h.006l.09-.07-.727-.954-.095.074-.075.059-.067.052-.063.05a7326.689 7326.689 0 0 0-4.406 3.613l-.306.251h-.005c-.101.082-.203.162-.305.241l-.028.022-.143.108-.059.043a3.701 3.701 0 0 1-.117.085l-.054.038a6.98 6.98 0 0 1-.246.167l-.044.029-.18.112-.05.03c-.063.037-.129.075-.197.11l-.036.02a4.81 4.81 0 0 1-.157.08l-.066.03-.13.06-.07.03-.155.06-.05.02a4.485 4.485 0 0 1-.192.064l-.11.031c-.05.014-.096.027-.146.038l-.082.02-.146.031-.074.015c-.076.016-.15.03-.226.043-.336.065-.68.076-1.02.033l-3.802-.535a.524.524 0 0 1-.353-.184l.728.955a.52.52 0 0 0 .352.184l3.794.533c.34.044.684.033 1.02-.032l.226-.043.03-.005.044-.01.146-.031.082-.02.146-.038.055-.015.055-.016c.065-.02.13-.041.191-.064h.012l.042-.016.156-.06.028-.012.04-.018.131-.06.041-.019.025-.012c.053-.026.105-.052.157-.08l.03-.015h.006c.067-.037.133-.074.198-.113l.016-.009.032-.02c.06-.036.12-.073.18-.112l.03-.019.015-.01c.083-.054.165-.109.246-.167l.022-.015.033-.023.116-.085.06-.043.142-.107.025-.02c.102-.079.204-.159.305-.241.102-.082.204-.166.306-.25a800.114 800.114 0 0 1 4.407-3.614l.064-.05.078-.065z" fill="#245E42"/>
            <path d="M20.827 15.88c0 .714-.253 1.142-.918 1.492a1.327 1.327 0 0 1-.777.16l-5.527-.776c.513-.422 1.032-.838 1.536-1.268.173-.147.3-.19.468-.166a122.904 122.904 0 0 0 1.824.26l1.577.222.024-5.23c-.14.11-.224.171-.305.238a7326.689 7326.689 0 0 0-4.407 3.613c-.807.668-1.623 1.31-2.592 1.603-.258.075-.52.135-.784.178-.336.065-.68.076-1.02.033l-3.795-.534a.5.5 0 0 1-.376-.22.935.935 0 0 1-.084-.669 1.04 1.04 0 0 1 .287-.507c3.141-2.572 6.282-5.145 9.422-7.72.478-.392.943-.557 1.286-.509.343.048.573.317.573.788l-.015 3.016v.412l1.757-1.432c.494-.403.961-.573 1.305-.525.344.047.573.32.568.802-.007 2.246-.016 4.493-.027 6.74zm-5.622-3.935a.556.556 0 0 0 .19-.31c.019-1.098.02-2.19.027-3.334l-7.294 5.974 1.528.213c.308.043.614.086.918.131.772.11 1.534-.142 2.292-.755.786-.632 1.565-1.272 2.338-1.92" fill="url(#i)" transform="translate(57 8.828)"/>
            <path d="M78.582 18.83v-.024c0-.027-.006-.053-.01-.08v-.031a.5.5 0 0 0-.011-.054v-.03c0-.015-.009-.03-.013-.044a.191.191 0 0 0-.007-.021v-.008l-.014-.034c0-.007-.006-.016-.01-.024v-.007a.233.233 0 0 0-.013-.027l-.012-.023-.006-.008-.014-.023-.012-.02-.014-.018-.726-.955a.662.662 0 0 1 .04.06l.017.031c0 .01.01.018.013.027l.015.032c0 .011.008.021.013.033.005.011.007.02.01.03.002.011.01.028.013.043a.38.38 0 0 1 .007.031.482.482 0 0 1 .016.085c0 .026.006.053.01.08a.17.17 0 0 0 0 .022v.096c-.01 2.247-.02 4.494-.032 6.74v.161c0 .021 0 .041-.005.061-.005.02 0 .041-.007.062-.006.021 0 .039-.007.058-.008.019-.007.042-.012.063l-.01.053-.015.06-.014.054-.012.037a1.08 1.08 0 0 1-.021.06l-.015.036-.025.057-.017.034-.033.06-.015.026-.017.026a1.72 1.72 0 0 1-.051.073l-.04.05-.02.024a1.52 1.52 0 0 1-.065.07l-.014.013c-.02.02-.042.04-.065.06l-.014.013a1.386 1.386 0 0 1-.08.064l-.02.014c-.023.018-.049.035-.075.052l-.019.014a2.551 2.551 0 0 1-.1.062l-.032.018-.096.052-.086.04-.023.011a1.466 1.466 0 0 1-.299.094l-.055.01-.041.006-.058.005h-.133a.878.878 0 0 1-.089-.008l-5.527-.777.726.955 5.522.786c.029.004.058.006.089.008h.134l.057-.005a.307.307 0 0 0 .04-.007l.053-.008c.037-.007.072-.016.108-.027.03-.008.06-.019.096-.03l.078-.03.013-.006.023-.01.035-.016.051-.026.026-.013.066-.038.032-.018h.006l.086-.052.009-.006.019-.013.045-.03.03-.023.02-.015.014-.01.058-.046.008-.008.014-.012.031-.028c.012-.01.023-.021.034-.033l.013-.011.007-.007a1.466 1.466 0 0 0 .06-.064l.02-.025.03-.037a1.273 1.273 0 0 0 .06-.086c0-.006.01-.012.013-.02.004-.007 0 0 0 0l.015-.027a.896.896 0 0 0 .033-.06l.016-.033.026-.057.014-.037c.008-.02.015-.039.021-.059l.013-.038.006-.02c0-.01.005-.022.008-.033a.98.98 0 0 0 .014-.06l.012-.053a.866.866 0 0 0 .01-.063c.003-.021 0-.017 0-.024v-.035c0-.011 0-.04.007-.06.007-.022 0-.042 0-.063V25.68c.01-2.247.02-4.494.032-6.741.014-.047.014-.08.014-.11z" fill="#245E42"/>
        </g>
        <g fill-rule="nonzero" mask="url(#b)">
            <path d="M7.637 2.607c4.249-.297 8.927 2.837 10.45 7 1.524 4.162-.685 7.777-4.933 8.076-4.248.299-8.927-2.839-10.45-6.999-1.523-4.16.685-7.78 4.933-8.077z" fill="url(#j)" transform="translate(11 51.056)"/>
            <path fill="url(#k)" opacity=".2" d="m7.725 14.278 6.684 2.711 2.791-.294L19.3 15.04l.318-1.971.381-3.753-6.359-4.451-1.399 3.561-4.324-3.18 1.399 3.816.254 2.226z" transform="translate(11 51.056)"/>
            <path d="M29.53 60.071c-.023-.063-.048-.131-.074-.197l-.026-.063a8.208 8.208 0 0 0-.054-.133c-.01-.026-.022-.051-.033-.076a3.822 3.822 0 0 0-.05-.118l-.038-.082a8.793 8.793 0 0 0-.051-.11l-.042-.085-.051-.105-.045-.086-.052-.103-.047-.086-.055-.1-.05-.086c-.016-.028-.037-.063-.056-.099-.019-.036-.034-.057-.05-.085l-.06-.098-.053-.085a9.487 9.487 0 0 0-.06-.095l-.056-.085-.063-.093a4.911 4.911 0 0 0-.058-.084c-.02-.031-.042-.064-.063-.093l-.06-.083-.063-.09-.064-.083c-.023-.03-.045-.063-.068-.09l-.063-.08-.07-.09-.063-.08-.071-.086a1.511 1.511 0 0 1-.064-.08l-.073-.084a3.956 3.956 0 0 0-.068-.078l-.075-.085-.07-.075-.077-.084a3.82 3.82 0 0 0-.07-.075l-.078-.082-.072-.073a7.14 7.14 0 0 0-.08-.08l-.073-.073-.082-.079-.075-.071-.083-.077-.076-.07-.084-.076-.078-.068-.09-.075-.077-.063-.088-.074a2.463 2.463 0 0 0-.079-.064l-.09-.072-.08-.064-.09-.07-.081-.064-.094-.07-.08-.059a3.309 3.309 0 0 0-.097-.068l-.08-.058-.098-.067-.08-.055-.102-.067-.07-.046-.01-.006-.079-.05-.098-.064-.082-.05-.098-.059-.083-.049c-.032-.019-.064-.038-.098-.056l-.085-.049-.097-.054-.087-.047-.098-.052-.088-.045-.098-.05-.089-.044-.097-.049-.09-.042c-.033-.015-.064-.03-.1-.045l-.09-.042-.099-.044-.091-.038-.1-.042-.092-.038-.1-.04-.093-.036-.1-.037-.093-.034-.1-.034-.094-.034-.102-.033-.094-.03-.1-.03-.094-.029-.102-.03-.094-.026-.103-.027-.094-.024-.103-.025-.095-.022-.1-.025-.095-.02a2.75 2.75 0 0 0-.104-.02l-.094-.02-.104-.018-.095-.016-.107-.016-.094-.014-.106-.014-.091-.012c-.035-.005-.071-.008-.107-.012l-.094-.012-.107-.009-.092-.007a3.083 3.083 0 0 0-.108-.007l-.09-.006-.11-.005-.089-.003h-.395c-.045 0-.09 0-.134.005h-.064c-.064 0-.132.006-.197.011a5.612 5.612 0 0 0-.234.02l-.06.007a7.236 7.236 0 0 0-.213.025h-.018l-.223.035-.057.01-.194.039-.022.003h-.006a6.997 6.997 0 0 0-.235.055l-.049.013c-.076.02-.152.04-.226.063l-.031.01-.206.064-.035.012a7.063 7.063 0 0 0-.214.08l-.045.017c-.07.028-.14.058-.21.088l-.013.007c-.063.03-.13.063-.195.092l-.039.019a9.297 9.297 0 0 0-.19.102l-.038.021c-.063.035-.123.071-.183.108l-.01.006c-.064.039-.123.08-.184.12l-.037.025c-.058.04-.115.082-.172.124l-.028.021c-.052.04-.104.081-.154.123l-.023.018a5.592 5.592 0 0 0-.159.138l-.033.03a4.115 4.115 0 0 0-.152.145l-.016.016a5.755 5.755 0 0 0-.136.143l-.025.028c-.047.05-.091.103-.135.155l-.027.034c-.045.054-.09.11-.131.166l-.51.673a4.73 4.73 0 0 1 .133-.167l.026-.033a5.28 5.28 0 0 1 .136-.155l.025-.028c.045-.049.09-.097.136-.143l.015-.016c.05-.05.101-.097.153-.145l.033-.03c.052-.047.104-.093.159-.138l.022-.018a5.71 5.71 0 0 1 .155-.123l.028-.022a4.94 4.94 0 0 1 .172-.123l.037-.025c.064-.041.121-.081.183-.12l.011-.006c.06-.037.121-.073.183-.108l.037-.02c.064-.036.127-.07.191-.103l.039-.02c.063-.031.127-.063.195-.091l.013-.007c.07-.03.14-.06.21-.088l.045-.018c.07-.028.141-.054.213-.08l.035-.012a3.2 3.2 0 0 1 .206-.063l.032-.01c.074-.023.15-.044.226-.064l.049-.013c.078-.019.156-.038.235-.054l.028-.006c.063-.014.127-.026.19-.038l.057-.01c.074-.013.148-.025.224-.035h.018c.07-.01.14-.018.213-.026l.059-.006a5.643 5.643 0 0 1 .432-.032h.063c.045 0 .09-.004.135-.004h.483l.11.004.09.006c.037 0 .073.004.109.007l.092.007.106.01.093.01.11.022.094.012.106.014.093.014.105.016.094.016.105.019.094.018c.035.006.07.013.104.021l.094.02.105.023.093.023.104.024.094.025.103.028.094.026.102.029.094.028.102.032.094.03.102.033.092.033.102.035.092.034.101.038.092.035.1.04.092.038.1.042.09.038.1.045.091.04.1.047.088.041.1.049.087.044.1.05.086.045.099.053.086.046.098.055.085.047.098.058.082.048.1.06.08.049.1.064.078.049.08.053.1.064.082.056.097.063.081.057.096.07.08.058.094.07.08.063.092.07.08.064.09.072.078.063c.03.024.06.048.088.073l.079.064.086.074.077.069.088.08.076.07.083.078.075.072.081.078.074.073.079.079.071.074.079.082.07.075.075.083.07.077.074.084.068.078.073.085.064.08.071.086.064.08.069.089.064.081.067.09c.022.03.041.055.064.082l.063.09.06.083c.02.032.043.064.063.093l.057.084.064.094.055.084c.018.028.04.064.064.096.023.032.036.056.053.085l.059.097.051.085c.02.034.038.064.057.1.018.035.033.057.049.086l.054.1.047.086.053.102.045.087.051.105.042.085.05.11c.018.036.026.055.038.082l.05.117.034.076.054.133.025.064c.026.063.051.13.075.197.834 2.277.55 4.388-.572 5.886l.505-.673c1.122-1.497 1.407-3.61.574-5.887z" fill="#2C6B4F"/>
            <path d="M29.964 68.492c.058-.063.115-.13.17-.197l.035-.041c.056-.07.112-.14.166-.211l.507-.673c-.053.072-.11.142-.166.21l-.034.042a6.198 6.198 0 0 1-.17.197l-.033.035a3.867 3.867 0 0 1-.172.181l-.02.02-.191.184-.042.038c-.064.059-.132.117-.2.174l-.029.023a4.031 4.031 0 0 1-.196.155l-.035.027a7.886 7.886 0 0 1-.217.157l-.048.032a7.458 7.458 0 0 1-.23.15l-.015.009a5.523 5.523 0 0 1-.231.136l-.047.026c-.08.045-.161.088-.243.128l-.05.024c-.08.04-.163.08-.246.117l-.017.007a7.08 7.08 0 0 1-.266.112l-.056.023a9.042 9.042 0 0 1-.27.1l-.044.015c-.086.03-.173.058-.26.084l-.04.013a8.64 8.64 0 0 1-.287.08l-.063.015a8.08 8.08 0 0 1-.296.07l-.036.007a7.57 7.57 0 0 1-.245.048l-.072.013a9.694 9.694 0 0 1-.282.044l-.022.003a8.93 8.93 0 0 1-.27.033l-.076.008a8.853 8.853 0 0 1-.545.04H25l-.168.006h-.501l-.11-.004c-.047 0-.094-.004-.14-.006l-.115-.007-.136-.008-.116-.01-.136-.012-.117-.012-.134-.015-.118-.015-.133-.018-.119-.018-.132-.02-.12-.021-.131-.024a3.571 3.571 0 0 1-.12-.022l-.13-.027-.12-.025-.132-.03-.118-.027-.131-.033-.12-.03-.13-.035-.118-.033-.127-.037-.12-.036-.126-.04-.119-.038-.127-.043-.117-.04-.128-.045-.117-.042-.127-.049-.116-.044-.127-.051-.116-.047-.127-.053-.116-.05-.127-.056-.114-.05-.127-.059-.112-.053a3.385 3.385 0 0 1-.127-.064c-.044-.023-.076-.036-.112-.055a7.888 7.888 0 0 0-.128-.064l-.11-.056-.127-.067-.109-.059-.127-.07-.107-.06-.127-.072a1.122 1.122 0 0 1-.104-.064l-.127-.075-.102-.064-.127-.08-.098-.063-.103-.067-.127-.084-.104-.07-.122-.084-.092-.062-.12-.085-.102-.076-.118-.087-.102-.078-.115-.09-.102-.08-.113-.09-.097-.085-.114-.092-.1-.085-.108-.094c-.033-.028-.063-.058-.097-.086l-.108-.096-.096-.089-.105-.098-.094-.088-.103-.1c-.032-.03-.064-.063-.093-.092l-.1-.1-.093-.095-.098-.103c-.03-.03-.064-.063-.09-.095l-.096-.104c-.03-.033-.06-.064-.088-.098l-.095-.106-.086-.098-.091-.108-.085-.1-.09-.11-.082-.102-.087-.11-.08-.104a7.515 7.515 0 0 1-.085-.113c-.028-.038-.053-.07-.078-.106-.024-.037-.056-.077-.083-.115l-.075-.105a7.618 7.618 0 0 1-.08-.117l-.074-.107-.078-.118a10.217 10.217 0 0 1-.146-.228l-.068-.107-.074-.12-.064-.109a3.94 3.94 0 0 1-.071-.127c-.023-.044-.042-.073-.064-.109l-.069-.127-.059-.11-.067-.127-.056-.108a2.755 2.755 0 0 1-.063-.135 8.175 8.175 0 0 1-.053-.106l-.063-.14c-.016-.033-.033-.068-.048-.103l-.063-.146-.043-.1a2.866 2.866 0 0 1-.064-.162l-.034-.084-.095-.25c-1.055-2.877-.7-5.549.72-7.44l-.503.673c-1.42 1.891-1.781 4.563-.725 7.441.03.084.064.167.095.25l.034.084.064.162.042.1.064.146.048.103c.02.047.042.093.063.14l.052.106c.022.044.044.09.063.134.02.045.037.073.056.108.018.036.044.087.067.127l.06.11a12.526 12.526 0 0 0 .132.236c.023.037.047.084.071.128l.064.109.074.122.068.108.076.12.07.107.078.118.074.107.08.117.075.105.084.115c.028.038.051.07.077.103l.09.111.079.103.088.111.082.102.09.11.084.1c.03.036.063.072.091.107l.086.099.094.106.089.098c.032.035.063.07.096.104l.09.095.097.105.092.094.1.1.093.092.103.1.096.091.105.097.096.09.107.095.098.085.109.095.1.084.11.09.1.083.112.09.105.081.115.09.103.078.114.087.103.076.12.085.103.074.122.083.104.07.127.084.09.059.013.008.098.064.127.08.102.064.127.075c.035.021.07.04.105.064.035.023.082.048.127.072l.107.06.127.07.108.058.127.063.11.057.127.064.111.055c.038.018.083.041.127.064l.113.053.127.059.113.05.127.056.115.05.127.053.115.047.127.05.117.045.127.049.118.042.127.045.117.04.128.043.117.038.128.04.118.036.13.037.118.033.13.035.12.03.127.033.12.028.13.029.12.025.132.026.11.023.133.023.118.021.13.02.119.017.134.018.117.015.135.015.117.012.134.012.117.01.137.008.114.007.14.006.11.004h.501l.169-.006h.08a8.145 8.145 0 0 0 .545-.04l.076-.008c.09-.01.18-.02.27-.033l.022-.003c.095-.013.19-.028.282-.044l.072-.013a7.57 7.57 0 0 0 .245-.048l.028-.005h.008c.1-.021.199-.045.296-.07l.064-.016c.096-.024.19-.051.286-.08l.04-.012c.088-.026.174-.054.26-.084l.045-.015c.09-.032.18-.064.27-.1l.055-.023c.09-.035.179-.073.266-.112l.017-.007c.084-.038.166-.077.247-.117l.048-.024c.083-.042.164-.085.244-.128l.048-.026c.078-.045.155-.09.231-.136l.013-.009c.079-.049.156-.1.231-.15l.048-.032c.074-.052.146-.103.217-.157l.035-.027c.067-.05.132-.102.196-.155l.029-.023c.068-.057.135-.115.2-.174l.042-.039.191-.183.02-.02.172-.18.034-.04z" fill="#2C6B4F"/>
            <path d="M7.352.025c5.37-.376 11.286 3.585 13.212 8.848 1.926 5.263-.867 9.833-6.238 10.206-5.37.373-11.285-3.583-13.212-8.846C-.812 4.971 1.981.4 7.352.025zm6.246 17.065c4.248-.297 6.456-3.912 4.933-8.076-1.523-4.165-6.202-7.297-10.45-6.997-4.249.3-6.457 3.911-4.934 8.076 1.524 4.165 6.202 7.294 10.45 6.997" stroke="url(#l)" fill="url(#m)" transform="translate(11 51.056)"/>
            <path fill="#2C6C50" d="m24.624 55.896-.63.84-2.486.175.63-.84z"/>
            <path fill="#1B252F" d="m21.902 57.689-.63.839.236-1.617.63-.84z"/>
            <path fill="#354A5D" d="m24.624 55.898-.575 4.16-2.147-2.37.236-1.616z"/>
            <path fill="#1E2934" d="m24.049 60.058-.63.839-2.147-2.369.63-.84z"/>
            <path fill="#245E42" d="m21.668 59.308-.63.84.464-3.238.63-.839zM27.564 63.931l-.63.84-2.491.173.63-.839z"/>
            <path fill="#2C6B4F" d="m25.073 64.105-.63.84-2.806-3.159.63-.84z"/>
            <path fill="#286047" d="m19.944 60.344-.63.84.348-2.542.63-.84z"/>
            <path fill="#2C6B4F" d="m19.944 60.344-.63.84-3.52-3.875.63-.839z"/>
            <path fill="#354A5D" d="m18.915 56.296 1.378 1.504-.35 2.544-3.519-3.874z"/>
            <path fill="#1E2935" d="m19.944 60.344-.63.84-3.52-3.875.63-.839z"/>
            <path fill="url(#n)" d="M8.855.007 6.368.183l-.235 1.616 2.142 2.365 3.52 3.878-2.492.174-2.805-3.159-.412 3.384-2.49.174.578-4.16L.654.58l3.52 3.873.348-2.541 1.376 1.505.465-3.236z" transform="translate(15.77 55.89)"/>
            <path fill="#2C6B4F" d="m19.365 64.505-.63.839.579-4.16.63-.84z"/>
            <path fill="#245E42" d="m21.856 64.33-.63.84-2.491.174.63-.84z"/>
            <path d="M8.174.025c5.37-.376 11.287 3.585 13.212 8.848 1.926 5.263-.867 9.833-6.237 10.206-5.37.373-11.286-3.583-13.212-8.846C.01 4.971 2.803.4 8.174.025zM14.42 17.09c4.248-.297 6.456-3.912 4.933-8.076-1.523-4.165-6.202-7.297-10.45-6.997-4.248.3-6.457 3.911-4.933 8.076 1.524 4.165 6.201 7.294 10.45 6.997" fill="url(#m)" filter="url(#o)" transform="translate(11 49)"/>
        </g>
        <g fill-rule="nonzero" mask="url(#b)">
            <path d="M13.98 3.41c2.033 2.033 1.223 5.183-1.809 7.034-3.032 1.85-7.139 1.71-9.172-.326C.966 8.083 1.776 4.936 4.81 3.084c3.032-1.85 7.138-1.706 9.171.326z" fill="url(#p)" transform="translate(92 55)"/>
            <path fill="url(#q)" opacity=".2" d="m6.91 9.396 3.637 2.632 1.964-.136 1.579-1.244.24-1.483.286-2.823-4.785-3.35-3.303 2.672-1.483-.622-.957 1.579 2.631 2.057z" transform="translate(92 55)"/>
            <path d="m97.175 58.078.059-.031.112-.058.058-.03.124-.06.048-.023c.056-.027.113-.052.17-.078l.048-.021.111-.048.061-.026.1-.04.066-.027.096-.037.069-.026.096-.034.072-.026.086-.03.074-.024.087-.028.074-.023.087-.027.075-.022.088-.024.073-.02.092-.024.072-.019.093-.022.07-.017.095-.021.067-.015.104-.02.06-.013.169-.03.03-.006.14-.022.06-.009.11-.016.067-.008.102-.013.066-.007.12-.012.064-.006.133-.01.048-.004.18-.01h.035c.048 0 .096-.004.144-.006h.27c.07 0 .14 0 .209.004h.048c.062 0 .124.005.186.008h.029l.206.015.044.004c.083.008.165.016.248.026l.033.004c.085.01.17.022.253.036l.018.003c.086.013.17.029.255.045h.01c.083.016.166.034.249.053l.027.007c.08.018.158.038.236.06l.035.01c.076.02.151.043.226.067l.038.012c.074.024.148.05.22.076l.035.012c.074.027.147.055.22.085l.025.011.222.096.008.004c.074.034.144.07.217.107l.015.008c.07.036.137.074.205.112l.026.016c.065.038.128.077.192.117l.03.02c.062.04.122.082.181.125l.03.022c.06.043.118.087.175.133l.025.02c.058.047.115.095.17.144l.016.014c.058.053.115.107.17.162.534.537.87 1.148 1.017 1.795l-.148-.645c-.148-.646-.483-1.259-1.017-1.796a4.518 4.518 0 0 0-.17-.161l-.016-.015a3.619 3.619 0 0 0-.17-.143l-.026-.021a4.58 4.58 0 0 0-.174-.133l-.03-.022a46.409 46.409 0 0 0-.185-.123l-.03-.02c-.064-.04-.128-.08-.192-.118l-.026-.015a6.039 6.039 0 0 0-.205-.113l-.015-.008a5.422 5.422 0 0 0-.216-.106l-.009-.005a4.12 4.12 0 0 0-.221-.095l-.026-.01a5.999 5.999 0 0 0-.22-.086l-.034-.013a7.787 7.787 0 0 0-.22-.076l-.038-.012a6.585 6.585 0 0 0-.226-.067l-.036-.01a7.67 7.67 0 0 0-.235-.06l-.028-.006a6.754 6.754 0 0 0-.25-.054h-.009a8.282 8.282 0 0 0-.254-.045l-.02-.003a7.104 7.104 0 0 0-.251-.035l-.034-.004a7.006 7.006 0 0 0-.248-.026l-.022-.004h-.021a7.299 7.299 0 0 0-.206-.015h-.03a11.782 11.782 0 0 0-.185-.008h-.048c-.07 0-.138-.004-.208-.004h-.271l-.144.006h-.037c-.06.002-.12.006-.179.01l-.048.003-.132.011-.064.006-.12.012-.038.004-.028.003-.102.013-.068.008-.11.016-.06.009-.138.022-.031.006-.17.03h-.006l-.054.011-.103.02-.068.016c-.032.007-.064.013-.095.021l-.072.017-.092.022-.072.019-.091.023-.024.007-.048.014-.089.024-.074.022-.087.026-.074.024-.087.028-.074.024-.089.028-.04.014-.032.012-.094.034-.07.026-.095.037-.068.026a3.037 3.037 0 0 0-.096.04l-.063.027-.109.048-.044.02h-.006a8.919 8.919 0 0 0-.169.078l-.048.022-.123.06-.059.03-.111.059-.059.03-.12.067-.035.02-.01.005-.156.091-.195.12-.06.043a6.509 6.509 0 0 0-.126.084l-.072.048-.112.079-.072.055-.057.042-.048.035-.08.062-.095.076a4.94 4.94 0 0 0-.077.064l-.09.077-.073.064-.088.08-.07.064-.087.085-.066.065-.083.086-.06.064c-.03.031-.057.062-.084.093l-.053.06a6.061 6.061 0 0 0-.253.31l-.007.01a4.19 4.19 0 0 0-.108.149l-.037.055c-.024.035-.048.07-.07.106a7.9 7.9 0 0 0-.101.16l-.04.07a2.604 2.604 0 0 0-.054.096l-.039.072-.047.093c-.016.031-.025.048-.036.074l-.043.092a2.93 2.93 0 0 0-.033.076c-.01.025-.017.036-.024.053l-.012.033a3.38 3.38 0 0 0-.045.115l-.027.072a3.933 3.933 0 0 0-.042.127l-.02.06a3.772 3.772 0 0 0-.093.375l-.003.012-.022.125c0 .01-.004.018-.005.026-.009.055-.016.11-.023.165 0 .017-.003.033-.004.048a4.69 4.69 0 0 0-.011.116c0 .02 0 .041-.003.062-.004.021-.003.048-.004.072v.246c0 .052.004.104.008.156v.004l.013.129.003.018c.005.04.01.081.017.122l.01.06c.01.06.022.12.035.179l.149.646a3.325 3.325 0 0 1-.037-.18l-.009-.06a3.561 3.561 0 0 1-.032-.269v-.003a3.427 3.427 0 0 1-.009-.156v-.213c0-.035.003-.07.004-.106 0-.02 0-.04.004-.062l.01-.116c0-.016.003-.032.005-.048.006-.055.014-.11.023-.165 0-.008.003-.017.004-.025a3.702 3.702 0 0 1 .067-.32v-.006c.016-.062.033-.125.053-.187l.019-.06c.014-.043.027-.085.042-.127l.027-.072a3.794 3.794 0 0 1 .08-.201c.011-.026.022-.048.033-.076.012-.028.029-.061.044-.092l.035-.074c.012-.027.032-.062.048-.093l.039-.072c.016-.032.034-.063.053-.096.013-.024.026-.048.04-.07l.06-.096.04-.065.072-.106.036-.055c.035-.048.07-.099.107-.147l.009-.012c.04-.053.08-.105.122-.157l.042-.05.088-.105.054-.06.083-.093.06-.063c.027-.03.055-.058.083-.087l.066-.065.085-.083.07-.065c.032-.021.06-.05.09-.076l.074-.065.09-.078.078-.063.096-.076.08-.062.102-.077.072-.05.112-.08.071-.047c.042-.029.084-.056.127-.084l.062-.04a6.158 6.158 0 0 1 .35-.212l.049-.025.117-.07z" fill="#BC8A19"/>
            <path d="M15.337 2.129c2.558 2.572 1.51 6.523-2.34 8.825-3.849 2.303-9.043 2.084-11.599-.487C-1.157 7.896-.11 3.944 3.738 1.64c3.85-2.303 9.042-2.084 11.6.488zM2.855 9.593c2.022 2.034 6.13 2.207 9.175.385 3.045-1.82 3.873-4.946 1.85-6.98C11.858.964 7.752.794 4.706 2.615 1.661 4.436.833 7.56 2.856 9.595" fill="url(#r)" transform="translate(92 55)"/>
            <path d="M108.883 61.092V60.89a5.407 5.407 0 0 0-.026-.366c0-.012-.004-.023-.005-.035l-.004-.033a4.754 4.754 0 0 0-.03-.191l-.003-.025a4.687 4.687 0 0 0-.041-.198l-.148-.645c.015.065.028.131.04.197l.005.025c.01.064.02.127.028.191 0 .011.004.022.005.033a4.574 4.574 0 0 1 .03.4v.27c0 .044-.001.089-.005.133l-.004.079-.014.146c0 .021-.004.042-.006.062-.008.07-.017.14-.028.209l-.006.032c-.01.06-.02.12-.033.18l-.007.03a5.236 5.236 0 0 1-.103.402l-.008.03a5.934 5.934 0 0 1-.145.418l-.012.029a3.472 3.472 0 0 1-.1.237l-.055.116-.045.096-.06.117c-.017.03-.032.061-.048.092l-.068.119-.05.088-.076.123-.052.082c-.029.045-.06.09-.09.134-.015.023-.03.048-.047.07l-.135.186-.011.015c-.05.066-.101.132-.155.198l-.052.063c-.037.044-.073.089-.112.133l-.067.076-.105.117-.077.08a7.6 7.6 0 0 1-.105.11l-.083.082-.108.105-.088.082-.111.102-.094.08a5.96 5.96 0 0 1-.115.1l-.096.08-.12.096-.101.078a3.458 3.458 0 0 1-.13.096l-.09.067-.144.1-.09.062-.161.106c-.027.017-.052.035-.079.051a10.408 10.408 0 0 1-.443.267l-.056.032-.154.085-.073.039c-.048.025-.096.048-.141.073l-.075.038a6.713 6.713 0 0 1-.156.076l-.057.029-.215.1-.062.026c-.047.02-.092.041-.139.06l-.078.033-.125.052-.084.033-.12.048-.088.033-.118.043-.092.032-.109.038-.093.031-.11.036-.093.029-.111.033-.096.028-.112.032-.093.025-.115.03-.091.023-.117.029-.09.021-.12.027-.086.018-.131.027-.077.015a12.72 12.72 0 0 1-.214.04l-.039.006-.174.028-.077.011-.138.02-.086.01-.129.017-.083.009a8.29 8.29 0 0 1-.153.015l-.08.008-.167.013-.062.004c-.076.006-.151.01-.227.014h-.048l-.181.007H99.4l-.234.002h-.038c-.088 0-.176 0-.263-.004h-.062a12.96 12.96 0 0 1-.236-.01h-.036a9.282 9.282 0 0 1-.26-.02l-.091-.008-.082-.007-.107-.012-.08-.009-.11-.014-.074-.01-.117-.017-.066-.01-.144-.023-.04-.007a10.05 10.05 0 0 1-.18-.034l-.048-.01c-.044-.008-.087-.017-.13-.027l-.067-.014-.111-.026-.073-.018a3.59 3.59 0 0 1-.103-.026l-.075-.02-.099-.027-.075-.021a1.86 1.86 0 0 1-.096-.029l-.076-.023-.095-.03-.075-.025-.096-.032-.073-.026-.096-.035-.07-.027-.096-.037-.067-.027-.1-.042-.06-.026-.112-.05-.048-.021c-.052-.025-.104-.048-.155-.075l-.03-.014a4.494 4.494 0 0 1-.123-.064l-.053-.028a3.577 3.577 0 0 1-.096-.052l-.056-.037a2.719 2.719 0 0 0-.087-.048l-.062-.036-.083-.051-.062-.04-.08-.051-.061-.04-.077-.057-.062-.042-.075-.055-.06-.044-.074-.057-.056-.045c-.026-.02-.048-.04-.075-.06l-.053-.045a3.36 3.36 0 0 1-.076-.065l-.048-.043c-.027-.025-.054-.048-.08-.074l-.04-.038a5.292 5.292 0 0 1-.118-.114c-.675-.679-1.1-1.454-1.286-2.27l.148.646c.188.813.611 1.59 1.286 2.27l.118.114.04.037.08.075.049.043.075.065.053.044c.025.02.048.041.075.061l.056.045.075.057.059.044.076.055.06.042.078.053.062.041.082.052.062.04.081.05.063.037.087.048.06.034.095.052.054.029.123.063.03.014c.05.026.102.05.154.075l.048.02.113.05.06.027.1.042c.022.01.045.018.067.027l.096.037.071.027.096.035.073.026.096.032.075.025.095.03.076.023.096.029.075.021.099.027c.025.007.048.014.075.02.034.01.069.018.103.026l.073.018.11.025.067.016.13.026.048.01.18.034.04.007.144.024.067.01.116.016.076.01.109.014.08.01.105.01.083.009c.02 0 .042.004.063.005l.028.003c.086.007.173.013.26.018h.036c.078.005.157.008.236.01h.061c.088.003.177.005.265.005h.037c.078 0 .156 0 .234-.003h.064l.182-.006h.048l.226-.013.062-.005.167-.013.08-.008.154-.015.048-.005c.011 0 .022-.003.034-.004l.13-.016.085-.01.139-.021.076-.011.177-.029.037-.005.214-.04h.008l.068-.014.131-.026.085-.019c.04-.009.082-.017.122-.027l.09-.02.116-.03.092-.023.115-.03.03-.007.063-.018c.037-.01.074-.02.112-.032l.093-.027.11-.033.097-.03.11-.035.095-.031.11-.038.047-.017.042-.015.118-.044.088-.032.12-.048.084-.033.124-.052.08-.032.138-.06.056-.025.006-.003c.072-.032.143-.065.215-.1l.057-.027c.052-.025.104-.05.156-.077l.075-.038c.047-.024.095-.048.14-.073l.074-.04.153-.084.044-.024.013-.008a9.276 9.276 0 0 0 .443-.267l.079-.05c.054-.036.108-.071.16-.107.031-.02.06-.042.09-.063.049-.033.097-.066.144-.1l.092-.066.072-.053.057-.044a5.279 5.279 0 0 0 .221-.175c.04-.032.066-.054.096-.08.03-.028.077-.066.115-.099.031-.027.063-.054.093-.082l.111-.1a7.2 7.2 0 0 0 .089-.083l.108-.105.082-.082.106-.11.076-.08.105-.117c.023-.026.048-.048.068-.076l.112-.133.052-.063a5.63 5.63 0 0 0 .155-.199l.011-.015c.046-.061.09-.123.134-.186l.048-.069.09-.134c.018-.027.034-.054.051-.082.026-.04.052-.082.076-.123l.05-.088c.024-.04.049-.08.068-.12a6.802 6.802 0 0 0 .109-.209l.048-.095a12.632 12.632 0 0 0 .095-.212l.03-.067.03-.073.011-.03c.025-.063.048-.127.07-.191.005-.012.01-.024.013-.036.022-.064.043-.128.062-.191l.008-.029c.02-.066.039-.133.056-.2s.032-.134.048-.202c0-.01.004-.02.006-.029l.005-.022c.01-.053.02-.106.028-.159 0-.01.004-.021.006-.032.011-.07.02-.14.028-.209l.007-.062a4.28 4.28 0 0 0 .013-.146c0-.027.003-.053.004-.08l.005-.09v-.043c0-.014-.009-.039-.008-.06zM97.054 60.002l-.118-.491v.007a.113.113 0 0 1-.007.014l-.012.02v.004l-.015.025-.008.012-.013.022c-.014.023-.027.048-.04.067l-.01.021-.024.045-.012.023-.018.04a.455.455 0 0 0-.01.025l-.008.018-.006.018-.01.027a.55.55 0 0 0-.009.036l-.006.026v.01c0 .015-.004.03-.005.045V60.088a.22.22 0 0 0 .004.043c0 .009 0 .017.004.026l.119.49a.493.493 0 0 1-.008-.068v-.007a.563.563 0 0 1 .007-.12c0-.009.004-.017.007-.026.002-.009.005-.024.01-.036l.008-.027.014-.037.01-.024.018-.04.012-.024.024-.044a.417.417 0 0 1 .01-.02l.04-.068a.532.532 0 0 0 .015-.025l.006-.009.015-.025v-.004a.27.27 0 0 0 .012-.02l.007-.014-.003-.007z" fill="#BC8A19"/>
            <path d="m99.034 61.46.154-.096.034-.022.096-.06.03-.02.048-.03.179-.112c1.035-.626 2.062-1.259 3.096-1.891l-.119-.49c-1.034.631-2.061 1.265-3.096 1.89l-.178.113-.048.03-.031.02-.096.061-.033.021-.155.096-.018.011-.157.096-.045.026-.048.028-.059.033-.048.026-.058.031-.048.026-.058.028-.048.024-.052.024-.064.028-.052.022a2.27 2.27 0 0 1-.065.025l-.063.023-.038.014-.08.025-.027.008c-.035.01-.07.02-.104.027l-.028.007a2.194 2.194 0 0 1-.1.02c-.034.007-.06.013-.09.017h-.01l-.072.011-.043.004c-.015 0-.03.004-.048.005l-.042.002h-.164c-.027 0-.054 0-.08-.004l-.035-.003c-.02 0-.04-.003-.06-.005l-.036-.005-.062-.01-.031-.005a1.566 1.566 0 0 1-.082-.016h-.009a2.72 2.72 0 0 1-.09-.023l-.026-.008-.06-.02-.033-.01-.055-.02-.031-.013-.057-.024-.026-.011a1.743 1.743 0 0 1-.08-.038 2.276 2.276 0 0 1-.456-.348 1.425 1.425 0 0 1-.395-.666l.119.49c.068.255.204.485.394.667.137.135.29.251.457.348l.08.038.026.011.057.024.031.012.055.02.032.011.06.02.028.007c.029.009.06.016.089.023h.008l.083.017.03.005.063.01.035.004.062.006h.034c.026 0 .053.003.08.003h.126l.038-.002h.042l.048-.005.042-.004h.007l.066-.01h.01l.08-.014h.01l.053-.01.048-.011.027-.007c.033-.008.066-.016.096-.025h.006l.026-.009c.028-.008.055-.016.08-.025l.039-.013.04-.014.023-.01.064-.025c.021-.01.035-.014.052-.022l.065-.028.035-.015.017-.009.048-.023.06-.03.047-.024.059-.031.047-.027.06-.033.047-.027.026-.015.02-.012c.052-.03.104-.062.157-.095l.018-.013z" fill="#BC8A19"/>
            <path d="m103.532 61.276.119.49a.433.433 0 0 0-.019-.059l-.119-.49a.5.5 0 0 1 .019.059" fill="#837320"/>
            <path d="m102.877 61.37.026-.006.024-.004.03-.005h.019l.037-.004h.087a.533.533 0 0 1 .055.007h.014l.041.01.018.004.037.011.016.006.042.017.008.003.047.025.013.007a.44.44 0 0 1 .032.02l.014.01.029.023.012.01a.537.537 0 0 1 .153.202l-.119-.491a.556.556 0 0 0-.153-.202l-.012-.01-.028-.022-.015-.01c-.01-.008-.02-.014-.032-.02l-.012-.008a.64.64 0 0 0-.048-.025l-.008-.002a.553.553 0 0 0-.094-.035l-.019-.005a.557.557 0 0 0-.04-.008l-.014-.003a.689.689 0 0 0-.056-.007h-.086l-.039.003h-.019l-.029.005-.02.003h-.004l-.026.007-.023.005h-.003l-.029.01-.021.006-.008.003-.008.003-.009.004a.536.536 0 0 0-.038.016l-.008.003-.007.004a.915.915 0 0 0-.043.022l-.006.003-.025.017-.016.01a.61.61 0 0 0-.03.021l-.01.007h-.003l-.035.029-.012.01-.03.026-.012.011a2.187 2.187 0 0 0-.043.04.458.458 0 0 0-.034.05l-.005.01a.44.44 0 0 0-.026.064c-.004.008-.006.017-.009.026l-.004.014-.006.03v.012a.467.467 0 0 0-.006.05V61.491c0 .02.004.04.007.06v.011a1.304 1.304 0 0 0 .014.089l.02.09.12.49a2.196 2.196 0 0 1-.035-.178v-.01l-.007-.062V61.865a.407.407 0 0 1 .008-.056c0-.01.003-.019.006-.028l.004-.015c0-.009.005-.017.008-.026l.005-.013a.408.408 0 0 1 .024-.05c0-.004.003-.007.005-.01a.482.482 0 0 1 .033-.05l.044-.04.012-.012.03-.026.011-.01.036-.029h.003l.01-.007a.493.493 0 0 1 .03-.023l.016-.009.025-.016.008-.005a.61.61 0 0 1 .043-.022l.015-.007a.726.726 0 0 1 .039-.016l.016-.006.03-.01.027-.01.021.001z" fill="#BC8A19"/>
            <path d="m102.358 62.029.12.49c.006.02.01.04.014.059l-.118-.491-.014-.058M99.64 63.306c0-.01 0-.02-.002-.03v-.067c0-.018 0-.036.002-.055v-.014c0-.014.004-.028.006-.043l.003-.018c0-.008.003-.017.005-.026l.005-.022.007-.027.006-.021.009-.03.006-.02a.784.784 0 0 1 .011-.03l.007-.02c.007-.019.015-.039.024-.058l.006-.016.02-.045.01-.02.022-.044.009-.019.034-.064-.12-.49a1.646 1.646 0 0 0-.033.063l-.01.019-.02.044a1.192 1.192 0 0 0-.03.065c0 .006-.005.011-.007.016a1.117 1.117 0 0 0-.024.06c0 .006-.004.012-.006.017l-.01.031-.007.021-.01.029-.005.02-.007.028-.004.022-.006.027V62.607a.995.995 0 0 0-.006.043v.014a.52.52 0 0 1-.003.054v.067c0 .01 0 .02.004.03v.016c.003.021.006.041.012.062l.118.49a.688.688 0 0 1-.012-.06l-.004-.017z" fill="#9C8926"/>
            <path d="m101.082 62.594.12.492c-.034-.136-.076-.282-.113-.433l-.119-.491c.037.151.08.297.112.434" fill="#837320"/>
            <path d="M104.893 61.97c0-.005 0-.009.002-.013.003-.005 0-.011.003-.017a.74.74 0 0 0 .005-.044l.003-.03V61.722c0-.012 0-.022-.003-.033a.213.213 0 0 0-.002-.024v-.009a.939.939 0 0 0-.016-.081l-.119-.491a.82.82 0 0 1 .015.082c0 .01.003.021.005.032l.003.033v.098c0 .01 0 .03-.002.045l-.003.03-.006.045c0 .01-.003.02-.005.03a1.199 1.199 0 0 1-.012.053c0 .008-.003.016-.005.024a1.287 1.287 0 0 1-.023.078l-.013.048c0 .005-.004.01-.006.015l-.01.032-.014.033v.005l-.018.042-.005.013-.018.038-.005.011-.027.053c0 .004-.004.007-.006.011a.77.77 0 0 1-.025.048l-.01.017-.035.068.118.491.036-.067.01-.018.024-.047.007-.013.026-.052.005-.012.018-.037.005-.013.02-.042v-.005c.002-.009.006-.018.01-.026l.002-.007a.825.825 0 0 0 .03-.095c.008-.026.016-.052.022-.078l.006-.025a.467.467 0 0 0 .013-.053z" fill="#A57516"/>
            <path d="m104.54 62.067.119.493c-.474-.102-.471-.103-1.155-.245l-.119-.491c.684.14.681.14 1.155.243z" fill="#BC8A19"/>
            <path d="m104.54 62.067.119.493c-.474-.102-.471-.103-1.155-.245l-.119-.491c.684.143.681.143 1.155.245M102.608 63.472l.003-.07v-.088c0-.038 0-.077-.004-.117v-.015a1.868 1.868 0 0 0-.013-.122v-.019l-.016-.096-.008-.048a3.058 3.058 0 0 0-.034-.155l-.118-.491c.013.053.024.105.033.156l.008.047a1.955 1.955 0 0 1 .03.234v.015l.005.118v.092c0 .022 0 .048-.004.07l-.005.056a1.387 1.387 0 0 1-.034.185l-.012.048c-.007.023-.014.048-.022.068a1.27 1.27 0 0 1-.017.046l-.017.04a1.034 1.034 0 0 1-.024.052l-.02.04a.615.615 0 0 1-.029.047l-.022.038c-.008.012-.022.03-.033.048-.01.016-.016.023-.024.034-.01.011-.025.03-.037.048l-.027.032-.042.045-.027.03c-.017.015-.033.031-.048.047l-.025.023a2.307 2.307 0 0 1-.08.068c-.028.023-.057.048-.085.068l-.038.028-.038.028-.037.027-.038.025-.035.023a.776.776 0 0 1-.037.024l-.034.02-.035.022-.044.025-.018.01c-.02.012-.04.022-.06.032l-.01.005-.047.024-.02.009-.033.016-.02.01-.029.012-.02.008-.025.01-.017.007-.023.009-.015.006-.02.007-.012.004-.017.006-.009.003-.015.005h-.006l-.013.004a2.39 2.39 0 0 1-.109.035l-.037.01-.04.01-.043.011-.039.009-.041.008-.044.008-.04.007-.043.006-.038.005-.056.006-.035.003-.055.003h-.159c-.03 0-.06 0-.088-.004h-.025c-.031 0-.062-.006-.095-.01h-.01l-.084-.012-.028-.006c-.023-.003-.045-.008-.068-.013l-.023-.01-.09-.021h-.008l-.08-.024-.027-.009-.063-.022-.025-.009a2.568 2.568 0 0 1-.084-.033l-.006-.003c-.026-.01-.051-.023-.077-.034l-.024-.012-.06-.03-.022-.012a2.035 2.035 0 0 1-.078-.043l-.004-.003a2.923 2.923 0 0 1-.072-.044l-.022-.014-.054-.037-.021-.015a1.763 1.763 0 0 1-.136-.105l-.02-.017-.048-.041-.019-.018a1.85 1.85 0 0 1-.564-.915l.119.492a1.855 1.855 0 0 0 .564.914l.02.017.047.042.02.017c.02.018.043.036.066.053l.07.052.021.015.054.036.023.015.071.044h.004c.026.016.051.03.078.044l.023.012.059.03.024.011.077.035.006.003.084.033.025.01.064.021.026.009.081.024h.008l.09.022.026.006.067.013.028.005.084.012h.009l.096.01h.024c.03 0 .059.003.089.004h.158l.055-.003.035-.003.055-.006h.02l.017-.002.043-.006.04-.007.044-.008.025-.005.016-.003.04-.01.043-.01.04-.01.023-.007a1.913 1.913 0 0 0 .122-.039l.014-.003h.005l.015-.005.01-.003.017-.006.012-.005.014-.004h.006l.014-.006.023-.009.018-.007.025-.01.02-.008.028-.013.02-.01.009-.003.025-.012.019-.01.048-.023.009-.005.06-.032.018-.01.037-.02.007-.005.034-.021.035-.021.037-.024.036-.023.037-.026.037-.026.039-.028.03-.023.006-.005.086-.068.08-.068.025-.023.05-.048.027-.029.042-.045c.01-.01.018-.022.027-.033.01-.01.025-.03.037-.045l.025-.035c.008-.012.022-.03.032-.048l.023-.037c.01-.016.02-.032.028-.048l.02-.038a.972.972 0 0 0 .024-.052l.017-.041.008-.018.01-.028c.007-.022.015-.045.021-.068l.013-.047a1.49 1.49 0 0 0 .015-.072c0-.01.005-.02.007-.03.001-.01 0-.013.003-.02l.008-.066c.002-.022 0-.038.002-.057z" fill="#BC8A19"/>
            <path d="M10.552 3.738C9.518 4.37 8.491 5.004 7.456 5.63c-.63.388-1.165.774-1.809.89a1.992 1.992 0 0 1-1.32-.173 2.276 2.276 0 0 1-.456-.348c-.257-.258-.403-.552-.423-.85-.02-.299.104-.616.314-.91.391.091.782.182 1.174.271a.526.526 0 0 1-.06.106c-.117.198-.189.35-.153.542a.638.638 0 0 0 .758.384c.24-.039.787-.407 1.405-.785.971-.593 1.94-1.18 2.91-1.773l.756.755zm-.18 3.35c-.079-.35-.232-.7-.036-.952.134-.128.221-.188.338-.23a.676.676 0 0 1 .722.144.556.556 0 0 1 .115.168c.065.17.039.383-.126.605.684.144.681.144 1.155.246.117-.215.164-.32.194-.43.134-.408.04-.79-.387-1.217l-.048-.048-.283-.21A2.062 2.062 0 0 0 10.94 4.9c-1.027.012-2.049.813-2.05 1.56-.054.77.501 1.514.108 1.892-.439.386-.923.24-1.24-.078a1.321 1.321 0 0 1-.127-.148c-.189-.325-.134-.603.079-.996l-1.14-.291c-.166.22-.197.364-.282.614-.131.493.084 1.046.503 1.464.536.536 1.404.852 2.302.54.31-.103.599-.265.849-.478.488-.398.71-.92.428-1.892z" fill="url(#s)" transform="translate(92 55)"/>
            <path d="M17.31 2.366c2.568 2.585 1.515 6.557-2.35 8.872-3.864 2.315-9.079 2.096-11.644-.49C.75 8.163 1.8 4.191 5.666 1.875 9.528-.44 14.742-.22 17.31 2.365zM4.795 9.837c2.024 2.024 6.136 2.195 9.184.383 3.048-1.812 3.876-4.92 1.852-6.944s-6.135-2.194-9.183-.382C3.6 4.706 2.771 7.814 4.795 9.84" fill="url(#t)" filter="url(#u)" transform="translate(92 55)"/>
        </g>
        <g fill-rule="nonzero" mask="url(#b)">
            <path d="M16.015 2.539c4.238.595 5.673 4.62 3.205 8.99-2.467 4.369-7.906 7.429-12.144 6.833-4.238-.595-5.673-4.62-3.205-8.99 2.467-4.37 7.905-7.429 12.144-6.833z" fill="url(#v)" transform="translate(636 9.818)"/>
            <path fill="url(#w)" opacity=".2" d="m12.684 17.573-.712.997 2.53.361 1.517-1.493 1.78-1.567 1.852-2.137 1.639-4.843-4.688-2.145-6.495.578-3.833 6.545z" transform="translate(636 9.818)"/>
            <path d="M655.189 13.84c-.727-.968-1.88-1.634-3.405-1.853l-.185-.023-.062-.007-.127-.013-.07-.005-.118-.01-.077-.004-.116-.006h-.671c-.065 0-.13.006-.196.01l-.057.004-.143.01-.075.007-.123.012-.081.008-.12.014-.082.011-.121.017-.08.011-.128.021-.07.012-.149.027-.053.01h-.008l-.057.012-.161.033-.086.02-.142.031-.093.023-.134.034-.095.025-.132.036-.046.013-.032.01c-.11.03-.219.063-.329.098l-.048.016c-.214.069-.427.144-.641.226l-.071.026c-.096.037-.193.075-.29.115h-.006l-.028.012c-.078.033-.157.067-.235.102l-.072.033-.235.108-.027.012h-.007c-.085.04-.17.08-.254.123l-.07.034-.19.098-.045.022-.033.018c-.067.036-.134.072-.201.11l-.044.023-.241.137-.018.01-.05.029-.172.102-.08.049-.166.104-.05.03-.02.015c-.078.049-.154.099-.231.15l-.01.006-.218.148-.023.015-.047.034-.16.113-.077.055c-.055.04-.11.08-.165.122l-.045.033-.015.01c-.07.058-.15.115-.223.173l-.046.037c-.06.046-.117.093-.176.142l-.031.025-.039.032-.17.143-.058.049c-.07.062-.142.126-.218.19l-.008.008-.026.023-.195.179-.062.057a9.099 9.099 0 0 0-.206.197l-.013.013a6.498 6.498 0 0 1-.282.3l-.228.24-.005.007-.014.015c-.091.1-.182.202-.271.304l-.012.014c-.089.103-.175.206-.26.31l-.02.025-.014.017-.166.214-.005.005c-.053.071-.105.142-.157.209l-.05.07-.108.15-.056.08c-.034.048-.071.097-.101.146l-.033.05a13.901 13.901 0 0 0-.2.306l-.035.056a9.969 9.969 0 0 0-.338.58l-.049.091-.098.187-.053.107a9.415 9.415 0 0 0-.134.282c-.026.056-.05.111-.071.168a3.168 3.168 0 0 0-.048.11l-.071.17-.042.103-.07.186-.032.085-.09.268-.008.029-.071.237c0 .006 0 .013-.005.019-.01.033-.017.065-.026.098l-.033.128-.027.117-.029.126a34.723 34.723 0 0 0-.047.242l-.019.115a5.017 5.017 0 0 0-.02.123l-.003.026-.023.179v.025a8.458 8.458 0 0 0-.017.184c0 .02 0 .042-.005.062 0 .053-.006.106-.008.158v.403c0 .06 0 .12.006.18v.081l.014.162.007.071a4.8 4.8 0 0 0 .03.23c0 .01.005.02.006.032a5.133 5.133 0 0 0 .05.257l.03.138v.017l.02.075.03.11c.011.04.02.061.03.092.008.03.022.071.034.107 0 .008.005.016.007.023l.027.072c.01.023.023.064.036.095l.038.093c.012.031.026.063.04.094l.01.023.032.071c.01.026.028.06.043.09l.046.09.046.085.012.022.039.065.05.084.055.084.055.083c.004.006.007.013.012.019.029.042.059.083.09.124l.65.868a3.256 3.256 0 0 1-.157-.224c-.017-.028-.036-.055-.053-.084a2.655 2.655 0 0 1-.05-.085c-.017-.028-.035-.057-.051-.086a2.57 2.57 0 0 1-.047-.087c-.015-.029-.032-.059-.047-.09a3.253 3.253 0 0 1-.042-.088l-.043-.092a3.672 3.672 0 0 1-.04-.093l-.038-.093-.036-.096-.034-.095-.034-.106c-.01-.031-.02-.062-.028-.092a2.81 2.81 0 0 1-.03-.11l-.025-.093a2.922 2.922 0 0 1-.03-.137l-.017-.076a7.37 7.37 0 0 1-.032-.18l-.007-.036a6.113 6.113 0 0 1-.03-.23c0-.024-.004-.048-.006-.07a4.126 4.126 0 0 1-.014-.162l-.005-.082c0-.06-.005-.12-.006-.18V23.523c0-.052.006-.105.01-.157 0-.02 0-.041.004-.062.005-.062.01-.123.017-.185v-.024a4.603 4.603 0 0 1 .046-.328l.018-.116c.007-.04.017-.083.025-.124l.023-.118.028-.125a4.16 4.16 0 0 1 .028-.118l.033-.127.03-.118c.023-.079.046-.158.072-.237l.009-.029a6.952 6.952 0 0 1 .191-.54l.042-.102c.022-.057.045-.114.07-.17l.048-.11c.025-.056.05-.111.072-.167l.052-.111.082-.171.054-.107.098-.187.048-.091a13.066 13.066 0 0 1 .56-.921c.015-.025.031-.047.047-.072l.1-.147.056-.078.108-.15.05-.071c.052-.072.104-.143.158-.208l.004-.006.166-.214.035-.042c.085-.104.17-.207.259-.31l.012-.014c.089-.102.179-.204.271-.304l.02-.021c.071-.081.151-.162.227-.242l.054-.055.235-.236.016-.015c.071-.066.137-.133.206-.197l.062-.058.194-.178.035-.03c.07-.066.142-.129.218-.192l.059-.05c.056-.047.112-.095.17-.142l.07-.057.177-.142.046-.037.223-.171.06-.045.169-.12.076-.055.16-.113.071-.05.214-.146.01-.008.231-.15.071-.043c.056-.035.111-.072.168-.104l.08-.049c.057-.035.115-.07.173-.102l.065-.04.243-.137.046-.025.199-.108.078-.04.19-.098.07-.035.253-.122.036-.017.233-.107.076-.033c.078-.035.157-.071.236-.102l.034-.014c.096-.04.192-.078.29-.116l.07-.026.293-.109c.115-.04.23-.079.346-.117l.049-.015c.11-.035.22-.068.329-.1l.078-.022.13-.036.097-.025.133-.034.093-.023.143-.032.085-.019.162-.033.065-.013.053-.01.147-.026.072-.013.127-.02.08-.012.122-.017.08-.01.121-.015.08-.008.125-.012.071-.007.142-.01h.057c.066-.005.131-.008.196-.01h.036l.16-.005h.467l.116.005.077.005.117.009.072.006c.042 0 .084.008.126.013l.062.007c.063.007.125.014.187.024 1.526.213 2.678.883 3.405 1.852l-.65-.863z" fill="#327183"/>
            <path d="M659.089 16.774v-.257c0-.065-.006-.128-.01-.19v-.036c-.004-.071-.01-.137-.017-.205 0-.03-.005-.06-.009-.092a7.483 7.483 0 0 0-.038-.29c0-.012-.005-.026-.007-.04a5.077 5.077 0 0 0-.041-.23l-.02-.096a4.721 4.721 0 0 0-.04-.173c0-.007 0-.015-.005-.022l-.025-.094-.038-.143a8.93 8.93 0 0 0-.08-.251l-.01-.03-.033-.09c-.01-.031-.03-.081-.045-.121l-.048-.118a3.272 3.272 0 0 0-.05-.118l-.013-.03a3.218 3.218 0 0 0-.042-.086l-.053-.112-.06-.114-.058-.109-.014-.027-.05-.082-.063-.107c-.022-.036-.046-.071-.071-.107-.025-.036-.045-.071-.072-.103l-.016-.025a6.265 6.265 0 0 0-.113-.156l-.65-.866c.044.06.087.12.129.181.024.034.046.071.071.104l.071.106a8.4 8.4 0 0 1 .064.107c.02.036.043.071.064.11.02.038.04.071.058.11.02.038.04.07.06.113.019.042.036.071.054.112.017.04.036.077.053.116l.05.119.05.116.044.122c.015.04.03.08.043.12l.043.135c.014.044.025.077.036.116.012.039.026.093.039.142l.03.116.04.174.02.095c.015.076.029.154.042.231 0 .015.005.028.007.042.015.096.027.193.038.29l.008.092a7.27 7.27 0 0 1 .03.43v.309c0 .082 0 .164-.005.247 0 .022 0 .044-.003.067 0 .065-.008.132-.012.198a9.156 9.156 0 0 1-.028.312c0 .01 0 .02-.003.031-.01.086-.02.173-.034.259l-.024.156c-.008.052-.015.097-.024.142-.01.046-.02.105-.03.158l-.03.147c-.01.05-.023.107-.036.16l-.034.148c-.012.05-.028.108-.042.161-.014.054-.025.1-.039.149-.028.1-.058.2-.089.3l-.01.036a11.35 11.35 0 0 1-.114.339l-.04.106c-.028.08-.056.157-.087.236l-.052.132a9.024 9.024 0 0 1-.088.213l-.06.143c-.03.07-.062.142-.095.213l-.064.143c-.035.071-.072.142-.105.214l-.068.13c-.04.08-.082.158-.124.237l-.06.115a14.628 14.628 0 0 1-.43.734c-.013.024-.028.047-.043.071a12.03 12.03 0 0 1-.295.451c-.042.062-.084.124-.128.186l-.07.1-.137.189-.064.086c-.066.089-.132.177-.2.265l-.004.005-.21.267-.045.053c-.107.132-.216.263-.327.391l-.016.019c-.112.13-.227.258-.343.384l-.024.028-.285.304-.067.072c-.098.1-.197.2-.298.299l-.02.02a17.01 17.01 0 0 1-.26.248l-.078.072c-.082.076-.164.151-.247.225l-.043.039a17.63 17.63 0 0 1-.276.241l-.071.064-.214.18-.087.07-.235.18-.057.045c-.095.073-.19.144-.285.213l-.077.058c-.071.051-.138.103-.208.153l-.097.071a12.9 12.9 0 0 1-.201.143l-.09.062a14.47 14.47 0 0 1-.276.187l-.012.008-.29.19-.09.056-.214.13-.1.062a6.826 6.826 0 0 1-.219.13l-.083.05c-.102.058-.203.116-.306.172l-.057.032-.252.136-.098.051-.24.124-.087.043c-.106.053-.214.105-.32.155l-.046.022a8.132 8.132 0 0 1-.294.135l-.095.042c-.1.044-.2.087-.3.128l-.042.019c-.121.05-.243.099-.365.146l-.087.033c-.124.047-.248.094-.37.138l-.25.09-.082.027-.174.057-.099.03-.158.049-.104.03-.142.04-.165.045-.122.032-.168.043-.118.028-.177.04-.108.025-.204.042-.082.017-.065.012-.19.035-.092.015-.162.026-.101.015-.153.021-.103.013-.152.018-.101.011-.158.015-.094.008-.178.014-.071.005-.248.012h-.044l-.203.005H642.658l-.15-.004-.097-.003-.143-.007-.102-.003-.149-.011-.092-.008-.16-.016c-.027 0-.053-.005-.079-.009a8.573 8.573 0 0 1-.236-.03c-1.93-.277-3.384-1.12-4.305-2.343l.65.865c.919 1.224 2.375 2.066 4.305 2.34.078.012.157.022.237.031l.078.009.16.016.093.007.148.012.098.006.143.007.1.003h.491c.067 0 .134 0 .202-.005h.044c.083 0 .166-.007.249-.012l.071-.005.177-.013.094-.008.157-.015.102-.01.152-.019.103-.013a5.65 5.65 0 0 0 .153-.022l.101-.015c.054-.007.108-.017.162-.025l.093-.016.19-.034.064-.012h.01c.024-.004.048-.01.071-.015l.205-.042.106-.024.178-.04.118-.03.169-.041.12-.033.166-.045.06-.016.08-.024.104-.03.158-.048.1-.032.171-.055.085-.028.255-.088c.124-.044.247-.09.371-.137l.087-.034c.122-.047.244-.096.365-.146h.009l.033-.015c.1-.042.2-.085.3-.13l.094-.04c.1-.045.198-.09.297-.137l.035-.016.01-.004.32-.156.086-.043c.08-.04.16-.082.241-.124l.055-.028.042-.022c.085-.045.169-.092.253-.138l.057-.03c.102-.057.203-.115.305-.174l.022-.012.062-.037.218-.13.1-.06.214-.132.062-.039.027-.018.292-.188.011-.008c.095-.062.187-.124.277-.188l.029-.02.06-.042.202-.143.097-.071c.07-.05.139-.102.208-.153l.057-.043.02-.015c.095-.071.19-.144.285-.217l.056-.045.224-.18.04-.03.047-.041.214-.18.071-.063c.093-.08.185-.16.276-.241l.01-.009.032-.03.248-.225.077-.072c.088-.081.175-.165.26-.248l.018-.017c.101-.1.2-.199.298-.3l.067-.07c.097-.101.193-.202.285-.305l.008-.008.017-.02c.117-.126.231-.255.344-.384l.015-.018c.111-.129.22-.26.327-.392l.027-.03.017-.023.213-.266.005-.006.2-.264.063-.087.137-.19.071-.099c.044-.061.086-.123.128-.186.014-.02.029-.04.042-.061l.018-.028c.08-.12.158-.24.235-.361l.044-.071a15.068 15.068 0 0 0 .428-.735l.061-.114c.042-.08.084-.158.124-.237l.067-.135a6.593 6.593 0 0 0 .17-.356l.095-.214.06-.138.088-.214.052-.13c.03-.08.06-.158.088-.237l.039-.106c.04-.113.077-.226.113-.339l.01-.035c.031-.1.061-.201.09-.301l.006-.023.033-.125.042-.161c.014-.054.023-.1.034-.149l.037-.16.029-.147.03-.157.024-.147.024-.155c0-.011.004-.022.005-.032l.029-.227c0-.01 0-.021.003-.032.009-.078.016-.155.021-.233l.007-.078.011-.199v-.097c0-.071.004-.142.005-.214l.009-.057z" fill="#327183"/>
            <path d="M16.99.095c5.312.76 7.036 5.817 3.85 11.294-3.186 5.477-10.077 9.308-15.39 8.55-5.313-.756-7.038-5.813-3.85-11.293C4.785 3.166 11.675-.662 16.99.096zM6.655 17.865c4.203.6 9.652-2.428 12.173-6.763 2.52-4.334 1.157-8.333-3.045-8.932C11.58 1.57 6.13 4.599 3.61 8.933c-2.52 4.334-1.157 8.334 3.045 8.933" fill="url(#x)" transform="translate(636 9.818)"/>
            <path d="M654.026 18.734V18.678c0-.019 0-.04-.006-.06v-.009c0-.022-.006-.045-.01-.07v-.005a2.65 2.65 0 0 0-.022-.12 2.079 2.079 0 0 0-.046-.188c-.006-.023-.009-.028-.014-.041l-.01-.025-.024-.06c0-.006-.006-.014-.01-.022l-.01-.02a.84.84 0 0 0-.025-.05c-.01-.016-.008-.017-.013-.025l-.01-.016-.028-.044-.016-.025-.022-.03-.694-.914.037.055c.013.018.02.028.028.043l.024.042a.831.831 0 0 1 .025.05l.02.043.024.058c.008.022.017.044.024.071l.02.072.026.117c.008.04.016.081.022.12v.005c.004.023.008.047.01.071v.007c0 .022.005.042.007.062v.006a.434.434 0 0 1 0 .051v.007a.138.138 0 0 1 0 .025v.005a.06.06 0 0 1 0 .012l.688.904a.03.03 0 0 0 0-.009v-.006a.02.02 0 0 0 0-.006v-.017l.005-.008z" fill="#27606D"/>
            <path fill="#3F697E" d="m644.86 16.928.694.914-2.004-.281-.694-.915z"/>
            <path d="m649.693 17.032-.694-.914V16.136a.105.105 0 0 1-.005.01v.007l-.007.014a.038.038 0 0 0-.003.008l-.012.021v.006a.753.753 0 0 1-.017.033l-.018.033a.151.151 0 0 1-.008.015l-.015.026-.008.016-.016.03-.009.015-.019.033-.008.015-.02.035-.012.022-.016.029-.015.028-.018.032-.013.022-.027.047-.006.011-.029.051c0 .005-.005.01-.007.014l-.036.063-.356.635.695.915.356-.636.05-.088.02-.04a.18.18 0 0 0 .01-.015l.023-.04.016-.028.016-.03.014-.025.018-.03.013-.024.016-.029.012-.023.015-.025.012-.022.014-.026.01-.019.014-.024.008-.015.014-.027.005-.01.017-.032v-.005l.011-.022-.002-.003.006-.014.004-.008.004-.009v-.011l.003-.01z" fill="#6FB8DE"/>
            <path fill="#3F697E" d="m648.285 17.41.694.914-2.003-.282-.695-.914z"/>
            <path fill="#6FB8DE" d="m646.281 17.128.695.914-3.322 5.879-.694-.914z"/>
            <path fill="#3F697E" d="m642.96 23.007.694.914-1.421-.2-.695-.914z"/>
            <path d="M651.666 17.938a.576.576 0 0 0-.356-.2.967.967 0 0 0-.159-.02h-.162l-.031.007-.046.007h-.012l-.021.005c-.016 0-.032.007-.048.012h-.016l-.023.007-.026.009-.013.004a.4.4 0 0 0-.043.017h-.006a.655.655 0 0 0-.045.02l-.016.008-.012.006-.013.007-.039.022-.006.004-.009.006a.2.2 0 0 0-.02.012l-.036.024h-.005l-.028.02-.027.023-.005.004-.036.031-.013.012-.012.012-.013.013-.03.032-.008.009a1 1 0 0 0-.108.142l-.008.011-.025.043a.75.75 0 0 0-.032.061l-.013.028c0 .006-.005.011-.008.017l-.009.023c0 .006-.003.012-.005.017-.003.005-.005.015-.008.022v.014c0 .01-.005.021-.007.032-.003.01 0 .009 0 .013a1.253 1.253 0 0 0-.013.084v.03a.02.02 0 0 0 0 .007v.08a.02.02 0 0 0 0 .006v.04l.005.015v.01c0 .005.004.01.005.013l.007.016a.133.133 0 0 0 .01.022c0 .007.007.014.01.02l.005.007.007.012.018.029.006.01.016.02.694.915-.023-.03-.018-.03-.01-.018-.011-.02c-.004-.008-.008-.015-.01-.022a.114.114 0 0 1-.008-.017c0-.007-.005-.015-.007-.023a.24.24 0 0 1-.01-.04c-.001-.004-.001-.01-.005-.014-.003-.005 0-.016 0-.024v-.099l.005-.04c0-.015.005-.03.008-.044v-.013c0-.011.004-.022.007-.033l.004-.014c0-.007.004-.015.007-.022a.149.149 0 0 1 .006-.016c0-.008.005-.016.009-.024l.006-.016.015-.03.006-.013.026-.047.032-.053a1.075 1.075 0 0 1 .109-.146l.008-.01.043-.044.013-.012a.78.78 0 0 1 .051-.045l.004-.005.056-.042h.004l.059-.04.008-.004.059-.033.012-.006.062-.03h.007l.056-.02.026-.008.038-.012.049-.011.032-.007.046-.007.033-.005h.163a.816.816 0 0 1 .082.008c.025 0 .05.008.076.014.139.02.266.092.356.2l-.693-.905z" fill="#327183"/>
            <path d="m651.833 18.461.692.914a.02.02 0 0 1-.016-.01l-.694-.915c.003.006.01.01.016.011" fill="#416C83"/>
            <path fill="#327183" d="M653.326 17.867h-.004l-.008.005h-.005l-.01.005h-.006l-.016.007-.008.004-.019.008-.01.005-.023.01-.011.005-.03.012-.01.01-.051.022-.014.005-.052.022h-.008l-.064.025-.015.007-.06.024-.01.004-.071.029-.019.008-.071.028h-.004l-.08.031-.019.008-.076.03h-.006l-.08.032-.023.008-.077.03h-.005l-.082.032-.02.007-.165.064-.016.005-.156.06-.015.004-.071.027.69.925.07-.026.019-.007.155-.057.016-.007.08-.03h.008l.075-.029.022-.009.075-.029.019-.007.071-.026.026-.01.079-.03h.005l.075-.03.023-.01.075-.03.014-.005.063-.025.02-.008.072-.03.065-.026.017-.007.065-.026.056-.023.013-.005.052-.022h.006l.03-.012.012-.005.02-.01.013-.005.017-.007.01-.005.014-.007h.006l.008-.004h.017zM648.599 23.038l-.019-.03a1.36 1.36 0 0 1-.032-.057v-.007l-.025-.052a1.407 1.407 0 0 1-.044-.11c0-.006 0-.012-.005-.017a2.211 2.211 0 0 1-.03-.098c0-.01-.006-.02-.008-.031a.741.741 0 0 1-.014-.071c0-.01-.005-.02-.006-.03-.002-.009 0-.024-.004-.037-.005-.012-.005-.035-.006-.05l-.021-.154-.695-.915.022.154v.016c0 .006 0 .023.004.035.005.011 0 .024.005.037v.007c0 .007.003.015.005.023l.014.071v.014c0 .006.003.012.005.017.008.033.018.066.03.098v.017c.013.038.028.075.044.11l.004.011.02.042v.006a.752.752 0 0 0 .027.048l.005.009.02.03.013.022.012.017.695.914c.002-.01-.008-.026-.016-.04z"/>
            <path d="m649.988 21.225.694.916c-.101-.134-.285-.3-.599-.552-.334-.257-.549-.455-.694-.647l-.695-.915c.146.192.36.39.695.647.313.254.498.418.599.552" fill="#416C83"/>
            <path d="M652.47 21.882v-.147c0-.027-.005-.054-.01-.08v-.016c0-.005-.003-.015-.005-.022l-.012-.06-.004-.022c0-.005-.004-.011-.006-.017a.81.81 0 0 0-.025-.08c0-.006-.003-.01-.005-.014a1.052 1.052 0 0 0-.024-.06l-.011-.027v-.008a1.54 1.54 0 0 0-.115-.199l-.016-.025-.04-.053-.694-.915.056.079.014.02a1.123 1.123 0 0 1 .1.179l.015.035.024.06.014.039.017.055.01.04c.004.012.009.04.012.06l.006.038.009.078v.149c0 .04 0 .066-.007.1v.027c0 .021-.006.043-.01.065-.003.021-.008.052-.014.078l-.01.053a6.652 6.652 0 0 1-.02.083c-.008.028-.01.037-.017.056l-.01.037a2.255 2.255 0 0 1-.028.082l-.013.037c-.012.034-.025.07-.04.1l-.005.017c-.016.04-.034.079-.052.118-.005.011-.01.023-.016.033a2.445 2.445 0 0 1-.111.215l-.017.03a1.773 1.773 0 0 1-.07.113c-.03.049-.063.097-.096.143l-.026.037c-.025.034-.05.071-.076.103l-.032.04a3.333 3.333 0 0 1-.128.155c0 .004-.006.008-.009.011-.034.039-.071.077-.106.114-.035.037-.078.076-.118.113l-.018.017a3.96 3.96 0 0 1-.1.087l-.037.03-.084.066-.044.032-.081.058-.047.03c-.028.02-.057.039-.086.056l-.044.028c-.033.02-.067.039-.101.057l-.034.02c-.047.025-.094.05-.143.071l-.062.028-.089.04a2.809 2.809 0 0 1-.167.066c-.012.005-.025.008-.038.012a3.12 3.12 0 0 1-.157.052l-.077.022-.07.018-.092.022-.071.015-.094.018-.071.012-.1.014c-.022 0-.043.007-.065.009a2.394 2.394 0 0 1-.112.01l-.055.006a3.334 3.334 0 0 1-.17.008c-.178 0-.355-.012-.53-.04a3.796 3.796 0 0 1-.637-.136 1.931 1.931 0 0 1-.864-.62l.695.914c.224.284.523.498.862.62.21.063.424.108.641.134a3.4 3.4 0 0 0 .531.04c.057 0 .113-.004.17-.008l.055-.005c.037 0 .074-.006.111-.01l.066-.01.1-.013.07-.012.072-.013.027-.005.071-.016.09-.021.072-.019.048-.013.028-.009c.053-.016.106-.033.158-.051l.028-.01h.01a3.37 3.37 0 0 0 .166-.065l.09-.041.06-.027a1.91 1.91 0 0 0 .136-.07h.005l.035-.02c.028-.016.057-.032.084-.049l.016-.01.045-.027.057-.035.028-.02.047-.031.037-.025.045-.033.043-.033.022-.016c.022-.016.041-.033.062-.05l.038-.03.01-.007.089-.08.02-.016c.038-.035.076-.07.114-.11.036-.036.071-.074.106-.113l.006-.007c.045-.051.087-.102.129-.155l.017-.02.015-.02c.025-.035.05-.072.075-.104a4.489 4.489 0 0 0 .122-.18.03.03 0 0 0 0-.005c.023-.036.045-.071.065-.11l.018-.03.048-.088.02-.04c.015-.028.03-.056.043-.085l.015-.034c.019-.039.036-.078.052-.117l.007-.017c.013-.034.026-.071.039-.1l.013-.038.027-.082.011-.037.007-.02.008-.036c.008-.027.015-.055.02-.083.006-.028.009-.035.012-.053a3 3 0 0 0 .014-.078c0-.01 0-.02.005-.03.005-.009 0-.023.004-.035.004-.012 0-.017 0-.027.005-.044.008-.077.009-.109z" fill="#327183"/>
            <path d="M10.303 5.903c1.483.208 2.703.384 2.696.395.01.01-.153.3-.357.657l-.356.636-2.003-.282-3.323 5.88-1.425-.2 3.322-5.88-2.004-.285.366-.647.377-.645 2.707.37zm4.32 3.599c-.444-.356-.562-.512-.543-.745a.694.694 0 0 1 .1-.311 1.041 1.041 0 0 1 1.054-.542c.025 0 .051.008.077.014.306.071.438.225.473.547 0 .102.023.176.049.178.55-.201 1.48-.57 1.496-.596.024-.072-.03-.382-.084-.56a1.127 1.127 0 0 0-.63-.712 2.895 2.895 0 0 0-.707-.176 2.456 2.456 0 0 0-.441-.029c-.922.042-1.818.517-2.433 1.287-.23.315-.416.66-.553 1.025-.072.277-.09.622-.025.854.122.386.336.656.936 1.118.514.415.68.593.705.783.01.152-.01.239-.114.422-.108.194-.273.35-.473.448a1.556 1.556 0 0 1-.915.15 1.14 1.14 0 0 1-.633-.282c-.112-.119-.24-.436-.25-.66l-.022-.154-.583.201-.779.266-.2.072c-.031.025 0 .489.056.668.13.46.54.86 1.09 1.068.208.064.421.11.637.137.175.027.353.04.53.04a3.502 3.502 0 0 0 2.422-1.019c.564-.577.948-1.397.912-1.96-.03-.5-.325-.889-1.152-1.532z" fill="url(#y)" transform="translate(636 9.818)"/>
            <path d="M21.015.096c5.313.759 7.037 5.816 3.851 11.293-3.186 5.477-10.077 9.308-15.39 8.55-5.313-.756-7.038-5.813-3.85-11.293 3.186-5.48 10.076-9.308 15.39-8.55zm-10.333 17.77c4.203.599 9.652-2.43 12.173-6.764 2.52-4.334 1.157-8.333-3.045-8.932-4.203-.6-9.653 2.429-12.173 6.763-2.52 4.334-1.157 8.334 3.045 8.933" fill="url(#x)" filter="url(#z)" transform="translate(636 7)"/>
        </g>
        <g fill-rule="nonzero" mask="url(#b)">
            <path d="M6.279 3.83C14.05-.898 26.006.454 32.983 6.86c6.977 6.405 6.336 15.436-1.44 20.169C23.769 31.76 11.816 30.405 4.839 24c-6.977-6.406-6.332-15.437 1.44-20.17zm22.624 20.773C35.05 20.86 35.557 13.717 30.04 8.65S15.066 2.512 8.92 6.255C2.772 9.997 2.262 17.14 7.78 22.208c5.519 5.067 14.976 6.138 21.123 2.395" fill="url(#A)" filter="url(#B)" transform="translate(663 40)"/>
            <path d="M9.055 6.48c6.148-3.744 15.605-2.672 21.123 2.395 5.519 5.067 5.01 12.209-1.14 15.952-6.147 3.744-15.602 2.671-21.122-2.395-5.519-5.067-5.008-12.209 1.139-15.953z" fill="url(#C)" transform="translate(669.202 40)"/>
            <path fill="url(#D)" opacity=".36" d="m8.088 16.503 20.235 8.955 7.282-5.73.753-6.235-13.114-7.417-3.762 7.417-5.886-1.164z" transform="translate(669.202 40)"/>
            <path d="M699.586 47.643c-.087-.08-.176-.159-.265-.237l-.087-.075-.184-.157-.107-.09-.167-.136-.123-.094-.16-.125-.129-.096-.159-.117-.134-.096a3.763 3.763 0 0 0-.158-.107l-.138-.094-.16-.107-.144-.093-.162-.107-.143-.088c-.055-.034-.108-.068-.164-.1l-.146-.087-.164-.096-.15-.085-.166-.092-.15-.081c-.057-.03-.108-.06-.17-.09l-.152-.078-.17-.086-.156-.075-.17-.083-.159-.073-.172-.078-.16-.07-.174-.075-.16-.067-.176-.072-.163-.064-.174-.073-.164-.06-.179-.066-.164-.058-.176-.058-.166-.056-.182-.058-.167-.052a5.124 5.124 0 0 0-.183-.055l-.168-.05-.185-.05-.167-.046-.187-.048-.169-.043-.188-.045-.173-.04-.19-.042-.168-.032-.191-.04-.17-.032-.192-.036-.164-.032-.195-.031-.166-.027-.198-.03-.164-.022-.201-.024-.163-.02-.204-.022-.14-.015h-.02l-.161-.017-.196-.016-.161-.012-.194-.012-.162-.009c-.063 0-.128-.008-.191-.01l-.171-.006-.188-.006h-1.059l-.168.007-.184.007-.168.009-.182.012-.168.012-.181.014-.168.015-.18.018-.168.018-.18.022-.165.021-.173.027-.166.025-.177.028-.166.027-.176.032-.163.03-.177.035-.162.034-.175.038-.16.038-.176.042-.159.04-.173.045-.157.043-.173.05-.154.046-.171.052-.155.05-.17.057-.152.051-.17.062-.148.053-.17.066-.146.057-.167.069-.144.06-.168.073-.14.062-.169.079-.134.063a8.546 8.546 0 0 0-.172.086l-.128.064-.178.093-.117.062-.198.108-.094.051c-.096.056-.192.108-.287.17-.114.07-.225.141-.336.215l-.084.056c-.107.068-.202.136-.3.204l-.025.018c-.107.074-.207.15-.308.226l-.077.06c-.09.068-.177.137-.263.207l-.029.024-.007.006a9.488 9.488 0 0 0-.31.264l-.064.057c-.1.09-.197.18-.292.271l-.04.039a14.61 14.61 0 0 0-.256.26l-.043.045c-.09.094-.176.19-.26.285l-.052.061a8.998 8.998 0 0 0-.247.296l-.015.02c-.077.096-.15.193-.222.29l-.043.06c-.072.1-.142.2-.21.302l-.04.06c-.065.101-.13.202-.19.304l-.011.018c-.064.108-.124.215-.183.323l-.036.068c-.056.107-.108.215-.163.322l-.024.054a8.521 8.521 0 0 0-.138.304l-.02.045c-.046.108-.09.215-.13.33a6.176 6.176 0 0 0-.142.407c0 .012-.008.024-.011.036a7.28 7.28 0 0 0-.11.384 6.236 6.236 0 0 0-.098.41 8.094 8.094 0 0 0-.067.35l-.237 1.398a7.84 7.84 0 0 1 .068-.352l.015-.07c.025-.114.053-.227.082-.339l.017-.061a9.1 9.1 0 0 1 .093-.323c0-.012.008-.023.011-.035.037-.112.075-.224.116-.336l.026-.07c.042-.108.085-.222.131-.332l.02-.044c.044-.107.09-.204.137-.305l.026-.053c.051-.107.107-.214.162-.322l.037-.067c.058-.107.118-.215.181-.322l.011-.017c.061-.108.126-.203.191-.304l.04-.062c.068-.1.138-.202.215-.302l.044-.058a8 8 0 0 1 .222-.291l.015-.02c.08-.1.162-.198.246-.295l.054-.062c.083-.096.17-.191.258-.284l.044-.045c.082-.088.168-.174.257-.26l.04-.04c.094-.09.19-.18.29-.27l.064-.057c.101-.09.204-.178.31-.265l.028-.028c.086-.07.173-.14.262-.208l.077-.059c.1-.076.203-.152.308-.226l.024-.017c.1-.07.2-.137.3-.204l.085-.056c.108-.072.222-.143.337-.215.094-.058.19-.114.287-.17.03-.018.062-.034.093-.052l.197-.108.118-.062a8.55 8.55 0 0 1 .177-.094l.128-.064.172-.085.135-.064c.057-.027.107-.053.17-.078l.14-.066.167-.074.144-.059c.056-.024.107-.047.168-.069.06-.021.096-.038.146-.058l.169-.064.148-.055.17-.06c.05-.019.1-.036.151-.052l.171-.057.153-.05.172-.052.155-.046.173-.05.157-.043.174-.046.16-.035.175-.042.16-.037.176-.038.162-.034.176-.035.163-.031.178-.032.163-.028.18-.028.164-.024.18-.025.165-.021.182-.02.165-.02.182-.017.167-.015.182-.016.167-.011.184-.011.17-.01.184-.007h1.226l.19.006h.163l.194.01.16.008.196.014.159.011.199.017.154.014.164.018.2.02.166.02.198.025.167.024.195.028.169.027.193.032.17.03.19.034.17.034.19.037.17.037.189.042.17.04.185.044.17.043.186.048.169.046.184.052.168.048.183.055.167.053.181.058.167.054.18.063.165.058.179.064.165.062.176.068c.054.02.108.042.163.065l.176.07.161.069.174.075.16.07.172.078.157.073c.058.027.115.054.171.082l.157.076.169.085.154.079.167.089.152.081.166.093.149.084.164.096c.05.028.098.057.146.086l.164.1.144.09.162.107.14.092.16.107.137.094c.053.036.107.075.159.107l.133.096.16.118.128.096.161.124.12.095c.057.045.108.09.167.136.037.03.074.06.108.09.062.051.123.107.184.156.029.025.059.05.087.076.09.077.178.157.265.237 3.02 2.771 4.234 6.164 3.71 9.28l.235-1.397c.523-3.123-.691-6.515-3.71-9.288z" fill="#2C6B4F"/>
            <path d="M706.773 59.95c.038-.142.072-.285.108-.43l.019-.09c.031-.147.06-.295.086-.445l.235-1.402a9.063 9.063 0 0 1-.104.534 7.612 7.612 0 0 1-.107.43l-.02.077c-.038.136-.077.271-.12.406l-.013.045c-.046.142-.095.283-.146.424l-.034.09c-.052.14-.107.279-.165.418l-.025.057a13.64 13.64 0 0 1-.174.384l-.032.068c-.065.136-.134.27-.206.404l-.046.085c-.073.136-.15.271-.23.405l-.014.023c-.077.129-.158.257-.242.385l-.049.076c-.086.13-.174.256-.266.383l-.054.074c-.09.124-.184.246-.28.368l-.02.024c-.1.126-.204.251-.31.374l-.069.078c-.106.12-.213.24-.322.359l-.055.058-.322.322-.05.05c-.121.116-.244.23-.37.343l-.08.072c-.128.112-.258.223-.391.334l-.048.039a9.618 9.618 0 0 1-.33.262l-.099.074c-.127.097-.256.192-.389.287l-.032.021c-.124.088-.25.174-.378.258l-.108.071c-.14.09-.28.181-.424.27-.12.072-.241.143-.364.214l-.12.067c-.082.046-.164.093-.247.138l-.15.08c-.075.039-.15.08-.224.117-.053.028-.108.054-.162.08l-.215.108-.17.08-.214.1-.177.078-.215.094-.181.075-.215.087-.186.073-.215.082-.188.069-.215.076-.193.065c-.072.025-.143.05-.215.072l-.19.07-.215.066-.197.058-.214.062-.2.055-.214.058-.201.05-.215.053-.203.047-.223.049-.203.043-.225.044-.205.039-.225.04-.207.035-.226.035-.208.032-.227.03-.209.028-.229.027-.215.022-.23.023-.215.019-.23.018-.216.016-.232.014-.215.011c-.078 0-.156.008-.234.01l-.215.007-.234.007h-1.109l-.24-.009-.208-.006-.243-.013-.204-.01-.247-.017-.2-.015-.253-.022-.195-.017-.207-.021-.253-.027-.215-.026-.249-.031-.215-.03-.245-.036-.215-.033-.244-.04-.215-.038c-.08-.014-.16-.028-.242-.045l-.215-.041-.24-.048-.214-.047a8.458 8.458 0 0 1-.238-.052l-.215-.05c-.078-.018-.158-.037-.236-.057l-.215-.054-.236-.06-.215-.058-.233-.066-.215-.062-.232-.069-.215-.065-.229-.075-.215-.07-.227-.077-.21-.074-.224-.082-.208-.077c-.075-.03-.15-.057-.224-.087-.074-.03-.138-.054-.205-.08l-.223-.091-.204-.086-.215-.095-.202-.089-.215-.099-.199-.092a3.083 3.083 0 0 1-.215-.108l-.197-.095-.215-.108-.194-.099-.215-.113c-.063-.034-.128-.067-.191-.107l-.215-.116-.19-.108-.207-.121-.186-.108-.205-.126-.182-.113-.204-.131-.147-.109c-.07-.045-.136-.091-.204-.136l-.173-.119-.205-.144c-.057-.04-.113-.078-.169-.119l-.202-.15-.161-.12-.204-.159c-.05-.04-.102-.078-.153-.12-.07-.055-.138-.112-.207-.169a7.355 7.355 0 0 1-.142-.115c-.076-.063-.152-.129-.227-.194-.039-.033-.077-.065-.116-.1a26.378 26.378 0 0 1-.335-.3c-3.816-3.503-5.352-7.792-4.689-11.734l-.236 1.403c-.66 3.942.877 8.23 4.691 11.739a13.043 13.043 0 0 0 .454.402l.225.191.141.116.209.17.154.114c.067.052.135.107.204.158.069.05.107.08.16.12l.203.15c.069.05.108.08.168.12.06.04.133.096.2.142l.175.118.202.137.179.116.203.13.182.108.206.126.185.108.205.129c.062.036.126.07.188.107l.215.117.192.108.215.107.195.1.215.108.197.096.215.108.2.092.214.1.204.088.215.095.204.085c.074.031.147.061.221.09l.207.082.223.086c.069.027.138.053.208.077l.225.083.21.073c.075.027.15.053.227.078l.215.07.229.074.215.065.232.07.215.062.232.065c.072.02.143.04.215.058l.234.061.215.054.237.057.215.05.237.052.215.046.239.049.215.041.242.045.215.037.243.04.215.034.245.036.215.029c.073.008.165.021.248.031.083.01.14.018.215.026l.252.028c.062.005.122.013.182.02h.026l.194.016.253.022.201.014.246.017.206.01.242.013.208.007.24.008h1.344l.215-.008.235-.01.215-.011.233-.014.21-.015.232-.019.21-.02.23-.022.179-.027.229-.026.208-.027.228-.031.207-.032a7.67 7.67 0 0 0 .227-.035l.207-.034.225-.04.206-.039.223-.045.204-.042.223-.05.202-.046.22-.053.201-.05c.072-.019.144-.038.215-.059l.2-.054.214-.062.197-.058.215-.068.194-.061.215-.072.192-.066c.072-.024.143-.051.215-.077l.188-.069.215-.082.186-.072.215-.087.181-.076.215-.092.178-.079.215-.1c.057-.027.114-.052.17-.08.073-.035.145-.071.214-.108l.163-.08.225-.12.148-.077.25-.14.118-.067c.122-.07.243-.142.363-.215.144-.087.286-.177.43-.268l.107-.07c.13-.085.255-.171.38-.26l.03-.02c.133-.095.262-.19.39-.287l.098-.075c.112-.086.222-.173.33-.261l.038-.03a.042.042 0 0 1 .011-.009c.133-.107.263-.222.391-.335l.08-.072a7.86 7.86 0 0 0 .369-.342l.05-.05c.111-.108.219-.217.323-.328l.054-.057c.108-.119.22-.239.323-.36l.066-.077a7.68 7.68 0 0 0 .312-.375l.02-.025c.096-.121.189-.244.28-.367l.054-.074c.091-.126.18-.254.265-.382l.05-.077c.084-.127.165-.255.243-.385l.014-.022c.08-.134.155-.27.23-.406l.046-.085c.07-.133.14-.269.205-.404l.031-.067a9.453 9.453 0 0 0 .2-.441c.057-.139.112-.278.165-.418l.033-.09a8.062 8.062 0 0 0 .16-.476c.042-.134.082-.269.118-.404a.528.528 0 0 0 .024-.076z" fill="#2C6B4F"/>
            <path d="M6.622 2.824c7.772-4.73 19.727-3.378 26.704 3.028 6.977 6.405 6.337 15.436-1.439 20.169-7.775 4.732-19.728 3.377-26.705-3.028-6.977-6.406-6.332-15.437 1.44-20.17zm22.624 20.772c6.147-3.743 6.655-10.886 1.139-15.953-5.517-5.067-14.976-6.138-21.123-2.395C3.115 8.99 2.605 16.134 8.124 21.2c5.518 5.067 14.975 6.138 21.122 2.395" fill="url(#A)" transform="translate(669.202 40)"/>
            <path fill="#1B252F" d="m687.574 52.946-.257 1.531-.95-3.454.258-1.532z"/>
            <path fill="#35495D" d="m689.345 47.835 2.453 8.989-11.312-3.593 2.72-1.658 4.368 1.373-.95-3.455z"/>
            <path fill="#41B782" d="m692.286 46.044 4.032 14.93-18.735-5.975 2.903-1.768 11.312 3.593-2.453-8.99z"/>
            <path fill="#25674A" d="m696.318 60.974-.257 1.532-18.736-5.977.258-1.53z"/>
        </g>
    </g>
</svg>
