<svg xmlns="http://www.w3.org/2000/svg" width="14" height="14" viewBox="0 0 14 14">
    <g fill="none" fill-rule="evenodd">
        <g fill="#FFF" fill-rule="nonzero">
            <path d="M1569.69 33.321c-.415-.414-1.084-.414-1.498 0L1563 38.503l-5.192-5.192c-.414-.415-1.083-.415-1.497 0-.415.414-.415 1.083 0 1.497l5.192 5.192-5.192 5.192c-.415.414-.415 1.083 0 1.497.414.415 1.083.415 1.497 0l5.192-5.192 5.192 5.192c.414.415 1.083.415 1.497 0 .415-.414.415-1.083 0-1.497L1564.497 40l5.192-5.192c.404-.404.404-1.083 0-1.487z" transform="translate(-1556.000000, -33.000000)"/>
        </g>
    </g>
</svg>