<svg width="31" height="36" viewBox="0 0 31 36" xmlns="http://www.w3.org/2000/svg">
    <g fill-rule="nonzero" fill="none">
        <path d="M9.103 21.85C6.739 10.158 8.979 2.487 8.979 2.487s-.6 4.67 4.111 12.196c-.06 9.331 1.777 14.199 1.777 14.199l.378-.278-.378.329s-2.793-2.28-5.764-7.085zM20.238 20.194c1.13 1.139 2.185 1.927 2.947 2.301a1.7 1.7 0 0 1-.014-.007s.856.307 1.007.103c1.043-1.104 1.298-3.162.603-7.03-3.977-2.27-4.478-5.81-4.478-5.81s-.717 4.914-.065 10.443z" fill="#364FDE"/>
        <path d="M8.979 2.488S5.707 13.69 11.243 29.65c.151.46 0 .972-.402 1.279L5.003 35.02c-.554.41-1.36.153-1.61-.512C1.832 30.264-2.447 16.197 1.882.8c.2-.613.855-.971 1.459-.715l5.637 2.404z" fill="#56D8FF"/>
        <path d="m20.152 24.995-5.285 3.888s-2.818-7.469-1.359-21.638c.1-.819.956-1.228 1.661-.819l5.134 3.325s-1.007 6.906.452 13.556c.151.665-.1 1.33-.603 1.688zM29.915 16.35l-4.882-3.222c-.302-.205-.755.102-.654.46 1.158 5.166 1.007 7.724-.201 9.003-.151.204-1.007-.103-1.007-.103.805.41 1.007.205 1.007.205.805-.614 3.825-2.813 5.737-4.143.755-.563.755-1.688 0-2.2z" fill="#667DFF"/>
    </g>
</svg>
